<?xml version="1.0" encoding="UTF-8" standalone="no"?>
<!-- Created with Inkscape (http://www.inkscape.org/) -->

<svg
   width="400"
   height="400"
   viewBox="0 0 400 400"
   version="1.1"
   id="svg1"
   inkscape:version="1.4.3 (0d15f75042, 2025-12-25)"
   sodipodi:docname="lzu-vi-logo-ud.svg"
   xmlns:inkscape="http://www.inkscape.org/namespaces/inkscape"
   xmlns:sodipodi="http://sodipodi.sourceforge.net/DTD/sodipodi-0.dtd"
   xmlns="http://www.w3.org/2000/svg"
   xmlns:svg="http://www.w3.org/2000/svg">
  <sodipodi:namedview
     id="namedview1"
     pagecolor="#ffffff"
     bordercolor="#000000"
     borderopacity="0.25"
     inkscape:showpageshadow="2"
     inkscape:pageopacity="0.0"
     inkscape:pagecheckerboard="0"
     inkscape:deskcolor="#d1d1d1"
     inkscape:document-units="px"
     inkscape:zoom="1.065"
     inkscape:cx="232.86385"
     inkscape:cy="229.10798"
     inkscape:window-width="1026"
     inkscape:window-height="1108"
     inkscape:window-x="0"
     inkscape:window-y="0"
     inkscape:window-maximized="1"
     inkscape:current-layer="layer1" />
  <defs
     id="defs1" />
  <g
     inkscape:label="Layer 1"
     inkscape:groupmode="layer"
     id="layer1">
    <g
       id="g1"
       transform="translate(33.420522,29.084578)">
      <path
         id="path1"
         d="m 120.46917,149.364 -1.9588,-4.73067 0.32133,-0.13467 c 0.188,0.576 0.48173,0.76934 0.88013,0.57867 l 3.92654,-1.62533 c 0.39533,-0.13867 0.4672,-0.48133 0.21466,-1.03067 l 0.32187,-0.13333 1.238,2.99333 -0.32133,0.13333 c -0.21774,-0.588 -0.51147,-0.78133 -0.87974,-0.57733 l -3.89533,1.61067 c -0.40307,0.11733 -0.50053,0.37066 -0.28853,0.76 0.38133,0.79866 1.21666,1.11866 2.50946,0.96 l 0.14627,0.35466 -2.21453,0.84134"
         style="fill:#125582;fill-opacity:1;fill-rule:nonzero;stroke:none;stroke-width:0.133;stroke-dasharray:none" />
      <path
         id="path2"
         d="m 125.05463,152.492 1.2124,-1.648 -2.01093,0.3 z m -2.7636,0.25866 -1.24213,-2.1 0.3,-0.17733 c 0.28853,0.396 0.80773,0.52133 1.55827,0.37467 l 5.09266,-0.704 0.22974,0.38933 -3.38907,4.67867 c -0.28067,0.30133 -0.30933,0.64133 -0.0839,1.02266 l -0.3,0.17734 -1.6328,-2.76 0.3,-0.17734 0.17707,0.29867 c 0.16933,0.33333 0.3484,0.42933 0.53653,0.29067 0.04,-0.024 0.0984,-0.0867 0.1744,-0.184 0.0396,-0.024 0.0699,-0.0413 0.0901,-0.0533 l 0.63906,-0.904 -0.99373,-1.68133 -0.74173,0.11467 c -0.14734,-0.02 -0.3312,0.0347 -0.55094,0.164 -0.2412,0.14133 -0.2724,0.36266 -0.0939,0.664 l 0.2308,0.38933 -0.30054,0.17733"
         style="fill:#125582;fill-opacity:1;fill-rule:nonzero;stroke:none;stroke-width:0.133;stroke-dasharray:none" />
      <path
         id="path3"
         d="m 129.58317,153.65066 0.2704,-0.22133 1.36866,1.67333 -1.33853,4.972 0.0213,0.0267 2.43027,-1.988 c 0.33493,-0.21467 0.3156,-0.60533 -0.0573,-1.17067 l 0.26986,-0.22 1.41347,1.72667 -0.26973,0.22133 c -0.42187,-0.40666 -0.77134,-0.46666 -1.04747,-0.18 l -3.94,3.22534 -0.5308,-0.648 1.50573,-5.648 -0.0224,-0.028 -2.9416,2.408 c -0.386,0.22533 -0.3172,0.62133 0.20467,1.18533 l -0.26987,0.22 -1.5244,-1.86133 0.26974,-0.22134 c 0.34693,0.49734 0.68386,0.59734 1.0104,0.3 l 3.29333,-2.69466 c 0.33853,-0.248 0.3,-0.60667 -0.11573,-1.07734"
         style="fill:#125582;fill-opacity:1;fill-rule:nonzero;stroke:none;stroke-width:0.133;stroke-dasharray:none" />
      <path
         id="path4"
         d="m 135.34837,164.83733 -1.6328,1.71733 -3.5084,-3.23733 0.30786,-0.33467 5.92494,-1.69066 -0.43534,-0.40267 c -0.96986,-0.832 -1.85213,-0.87067 -2.64333,-0.116 l -0.28173,-0.26 1.4932,-1.51467 3.3032,3.04934 -0.42507,0.46133 -5.7312,1.63467 c 1.16667,1.20266 2.28173,1.348 3.3468,0.43333 l 0.28187,0.26"
         style="fill:#125582;fill-opacity:1;fill-rule:nonzero;stroke:none;stroke-width:0.133;stroke-dasharray:none" />
      <path
         id="path5"
         d="m 138.83837,166.17466 1.63706,1.128 1.00827,-1.464 c 0.25733,-0.33066 0.1584,-0.63866 -0.29533,-0.92266 l 0.19853,-0.28667 2.58387,1.78 -0.19854,0.28667 c -0.50306,-0.37467 -0.85413,-0.37734 -1.0536,-0.007 l -2.414,3.50267 c -0.2896,0.336 -0.162,0.664 0.3812,0.98133 l -0.1984,0.288 -2.5828,-1.78133 0.1968,-0.28667 c 0.41454,0.34133 0.73694,0.324 0.9688,-0.0533 l 1.18694,-1.72134 -1.6364,-1.128 -1.18654,1.72267 c -0.29013,0.336 -0.19053,0.644 0.29534,0.92267 l -0.1984,0.28666 -2.55467,-1.76 0.1984,-0.288 c 0.45107,0.36667 0.79373,0.364 1.02493,-0.012 l 2.41414,-3.50266 c 0.25626,-0.33067 0.138,-0.652 -0.35267,-0.96267 l 0.19747,-0.28667 2.5552,1.76 -0.198,0.288 c -0.4468,-0.336 -0.76814,-0.32 -0.9676,0.052 l -1.01,1.464"
         style="fill:#125582;fill-opacity:1;fill-rule:nonzero;stroke:none;stroke-width:0.133;stroke-dasharray:none" />
      <path
         id="path6"
         d="m 144.6733,170.17866 c -0.82133,1.66667 -0.77707,2.704 0.13333,3.11467 0.84947,0.432 1.67454,-0.19067 2.47654,-1.86667 0.79013,-1.656 0.75733,-2.68933 -0.102,-3.1 -0.9016,-0.43066 -1.73707,0.18667 -2.50787,1.852 z m -1.50827,-0.72 c 0.98854,-1.63866 2.38747,-2.14133 4.19627,-1.50933 1.58707,0.99067 2.062,2.38933 1.4308,4.19733 -1.01093,1.628 -2.38907,2.11467 -4.13547,1.46134 -1.64786,-0.968 -2.14533,-2.352 -1.4916,-4.14934"
         style="fill:#125582;fill-opacity:1;fill-rule:nonzero;stroke:none;stroke-width:0.133;stroke-dasharray:none" />
      <path
         id="path7"
         d="m 150.6249,169.57733 3.00307,0.908 -0.10147,0.33333 c -0.6152,-0.21066 -0.96307,-0.10933 -1.03813,0.304 l -1.0588,3.50534 c -0.1916,0.71866 0.0917,1.228 0.84946,1.53066 0.9568,0.288 1.5932,-0.0533 1.91147,-1.02533 l 0.93693,-3.104 c 0.1584,-0.36533 -0.0853,-0.68133 -0.7328,-0.94933 l 0.10107,-0.33334 2.1688,0.65467 -0.10053,0.33333 c -0.60574,-0.0853 -0.9396,0.056 -1.00267,0.42534 l -0.9172,3.03733 c -0.376,1.24533 -1.30933,1.644 -2.8,1.19333 -1.43947,-0.45866 -2.0088,-1.22533 -1.7088,-2.3 l 1.01773,-3.37066 c 0.1432,-0.39467 -0.0661,-0.66267 -0.62866,-0.80934 l 0.10053,-0.33333"
         style="fill:#125582;fill-opacity:1;fill-rule:nonzero;stroke:none;stroke-width:0.133;stroke-dasharray:none" />
      <path
         id="path8"
         d="m 163.26557,172.38 3.13333,0.012 -0.001,0.348 c -0.65,-0.0267 -0.95213,0.17066 -0.90733,0.588 l -0.014,3.65733 c 0.0197,0.74267 0.43693,1.152 1.24947,1.224 0.9984,0.004 1.5104,-0.504 1.538,-1.52667 l 0.0125,-3.23866 c 0.0479,-0.39467 -0.27667,-0.62934 -0.97293,-0.7 l 0.001,-0.348 2.26414,0.008 -0.002,0.34666 c -0.60467,0.0907 -0.88387,0.32267 -0.838,0.69467 l -0.0125,3.16933 c -0.005,1.30134 -0.78586,1.94667 -2.34053,1.94134 -1.50893,-0.028 -2.27347,-0.6 -2.29227,-1.71467 l 0.0136,-3.51733 c 0.0239,-0.41867 -0.25373,-0.61734 -0.8344,-0.596 l 0.002,-0.348"
         style="fill:#125582;fill-opacity:1;fill-rule:nonzero;stroke:none;stroke-width:0.133;stroke-dasharray:none" />
      <path
         id="path9"
         d="m 169.96343,172.728 -0.05,-0.344 2.13747,-0.312 3.56827,3.704 0.0349,-0.004 -0.4532,-3.104 c -0.0109,-0.39734 -0.3552,-0.58134 -1.0312,-0.55334 l -0.0511,-0.34533 2.2068,-0.32133 0.0511,0.34533 c -0.5652,0.152 -0.79533,0.42 -0.6928,0.804 l 0.73387,5.03467 -0.82707,0.12133 -4.06253,-4.196 -0.0353,0.004 0.5484,3.75867 c -0.006,0.44666 0.3688,0.59066 1.12027,0.436 l 0.05,0.344 -2.37907,0.34666 -0.0496,-0.34533 c 0.6032,-0.0413 0.862,-0.27733 0.7756,-0.712 l -0.61306,-4.20533 c -0.0375,-0.41734 -0.36454,-0.56934 -0.98174,-0.456"
         style="fill:#125582;fill-opacity:1;fill-rule:nonzero;stroke:none;stroke-width:0.133;stroke-dasharray:none" />
      <path
         id="path10"
         d="m 181.74317,176.256 -3.12187,0.86266 -0.0933,-0.336 c 0.5948,-0.11733 0.8224,-0.384 0.68186,-0.80266 l -1.1308,-4.096 c -0.0896,-0.40934 -0.42186,-0.52267 -0.99733,-0.33867 l -0.0928,-0.336 3.1224,-0.86267 0.0923,0.336 c -0.60987,0.144 -0.8376,0.412 -0.6808,0.80134 l 1.1308,4.096 c 0.0735,0.43866 0.4052,0.55066 0.9968,0.33866 l 0.0928,0.33734"
         style="fill:#125582;fill-opacity:1;fill-rule:nonzero;stroke:none;stroke-width:0.133;stroke-dasharray:none" />
      <path
         id="path11"
         d="m 180.8613,170.528 -0.1312,-0.324 2.7484,-1.10934 0.13027,0.324 c -0.53854,0.21734 -0.7428,0.42534 -0.61254,0.62267 -0.11253,-0.0293 0.7084,0.98 2.4636,3.028 l 0.0328,-0.0133 c -0.001,-0.12534 -0.006,-0.324 -0.0156,-0.596 -0.0683,-2.40267 -0.124,-3.47067 -0.16626,-3.204 -0.12134,-0.30134 -0.40934,-0.36 -0.86147,-0.17734 l -0.13067,-0.324 1.87507,-0.75733 0.13013,0.324 c -0.3828,0.23067 -0.5568,0.512 -0.5208,0.84933 l 0.1672,5.53467 -0.67866,0.27467 -3.48334,-4.15734 c -0.2828,-0.388 -0.59786,-0.48666 -0.94693,-0.29466"
         style="fill:#125582;fill-opacity:1;fill-rule:nonzero;stroke:none;stroke-width:0.133;stroke-dasharray:none" />
      <path
         id="path12"
         d="m 191.09263,165.18133 1.1572,1.86667 -0.33173,0.192 c -0.86253,-0.844 -1.76307,-1.008 -2.69947,-0.49467 -0.47493,0.24667 -0.59213,0.53067 -0.35466,0.84933 l 0.8708,1.50934 c 0.6984,-0.32267 0.92706,-0.85734 0.6844,-1.60267 l 0.30213,-0.17467 1.23693,2.144 -0.3016,0.17334 c -0.51293,-0.56134 -1.0896,-0.63067 -1.73066,-0.208 l 1.02866,1.78 c 0.16867,0.38666 0.4724,0.42533 0.9124,0.11866 0.974,-0.59066 1.29894,-1.516 0.974,-2.776 l 0.33227,-0.192 1.1068,2.05734 -4.89067,2.82266 -0.17386,-0.30133 c 0.54573,-0.26133 0.69893,-0.57867 0.45826,-0.94933 l -2.126,-3.68267 c -0.18853,-0.37333 -0.53906,-0.4 -1.05106,-0.0773 l -0.17347,-0.30134 4.76933,-2.75333"
         style="fill:#125582;fill-opacity:1;fill-rule:nonzero;stroke:none;stroke-width:0.133;stroke-dasharray:none" />
      <path
         id="path13"
         d="m 194.39517,163.912 1.19013,1.504 c 0.88493,-0.64134 1.0432,-1.28534 0.47293,-1.93067 -0.51306,-0.57333 -1.01986,-0.68933 -1.52293,-0.35067 -0.32867,0.26 -0.37493,0.51867 -0.14013,0.77734 z m 5.0052,0.93066 0.27453,-0.216 c 0.57653,0.72934 0.52813,1.36 -0.14693,1.89467 -0.67867,0.56667 -1.3276,0.45733 -1.94894,-0.32667 -0.42546,-0.464 -0.7276,-0.71333 -0.9052,-0.75066 -0.20626,-0.0733 -0.49733,0.008 -0.87186,0.24533 l 1.14693,1.45067 c 0.27653,0.46133 0.65573,0.47333 1.13747,0.0333 l 0.21613,0.272 -2.488,1.97067 -0.21667,-0.27467 c 0.50307,-0.33867 0.60827,-0.67333 0.3156,-1.00533 L 193.2733,164.8 c -0.24067,-0.34267 -0.59107,-0.31734 -1.05107,0.076 l -0.21613,-0.27467 2.46093,-1.94667 c 1.18134,-0.90533 2.11307,-0.94533 2.79374,-0.12133 0.58853,0.78 0.32666,1.61067 -0.78587,2.49067 l 0.0219,0.0267 c 0.69533,-0.432 1.38026,-0.41066 2.05253,0.0653 0.65427,0.49066 0.9944,0.63733 1.01667,0.44133 0.14173,-0.0827 0.0865,-0.32 -0.1656,-0.71467"
         style="fill:#125582;fill-opacity:1;fill-rule:nonzero;stroke:none;stroke-width:0.133;stroke-dasharray:none" />
      <path
         id="path14"
         d="m 201.70397,164.556 -1.7088,-1.64134 0.26613,-0.276 c 1.228,0.69734 2.17333,0.704 2.83333,0.0147 0.51334,-0.53467 0.536,-1.04533 0.0667,-1.528 -0.268,-0.25733 -0.86667,-0.15467 -1.792,0.308 -1.23507,0.64933 -2.12827,0.708 -2.6824,0.17867 -0.87187,-0.90267 -0.87507,-1.872 -0.009,-2.908 0.28907,-0.30134 0.65427,-0.51467 1.09534,-0.63734 0.14586,-0.052 0.24373,-0.104 0.29226,-0.15466 0.0807,-0.0507 0.0781,-0.21467 -0.01,-0.492 l 0.2412,-0.252 1.53307,1.472 -0.24133,0.252 c -1.0792,-0.55334 -1.91627,-0.55334 -2.51307,0.003 -0.4328,0.516 -0.46453,0.968 -0.0953,1.356 0.3016,0.28934 0.88333,0.20267 1.74373,-0.25733 1.28333,-0.69867 2.23533,-0.752 2.85533,-0.15733 0.80667,0.904 0.77734,1.872 -0.088,2.90933 -0.35466,0.368 -0.75866,0.672 -1.21466,0.91067 -0.17867,0.052 -0.28534,0.096 -0.31734,0.12933 -0.08,0.084 -0.0853,0.256 -0.0133,0.51867 l -0.24133,0.252"
         style="fill:#125582;fill-opacity:1;fill-rule:nonzero;stroke:none;stroke-width:0.133;stroke-dasharray:none" />
      <path
         id="path15"
         d="m 208.07197,157.18933 -1.96934,2.57733 -0.27733,-0.212 c 0.404,-0.452 0.42267,-0.80266 0.0587,-1.052 L 202.50263,155.92 c -0.31866,-0.272 -0.65333,-0.16134 -1.00133,0.33333 l -0.276,-0.212 1.96667,-2.57867 0.27866,0.212 c -0.4,0.48534 -0.42,0.83734 -0.0587,1.05334 l 3.38133,2.58266 c 0.324,0.30534 0.656,0.19334 1,-0.33333 l 0.27867,0.212"
         style="fill:#125582;fill-opacity:1;fill-rule:nonzero;stroke:none;stroke-width:0.133;stroke-dasharray:none" />
      <path
         id="path16"
         d="m 203.7253,152.82133 2.924,-4.94667 1.876,1.068 -0.212,0.36134 c -1.14267,-0.352 -1.93733,-0.148 -2.38533,0.612 l 4.108,2.428 c 0.344,0.284 0.68,0.10533 1.00666,-0.53867 l 0.29867,0.17733 -1.772,2.99867 -0.3,-0.17733 c 0.40667,-0.596 0.40933,-0.98667 0.004,-1.172 l -4.10667,-2.42667 c -0.46133,0.77867 -0.256,1.57467 0.612,2.384 l -0.212,0.36133 -1.84133,-1.12933"
         style="fill:#125582;fill-opacity:1;fill-rule:nonzero;stroke:none;stroke-width:0.133;stroke-dasharray:none" />
      <path
         id="path17"
         d="m 207.1453,147.652 -0.32133,-0.136 1.14666,-2.728 0.32134,0.13466 c -0.18934,0.45067 -0.19334,0.7 -0.0133,0.74934 0.064,0.028 0.19467,0.0453 0.39334,0.0533 0.052,-0.003 0.0933,-0.0107 0.12266,-0.024 l 2.00267,-0.17867 -1.21733,-1.41733 c -0.156,-0.168 -0.28934,-0.27333 -0.39467,-0.31866 -0.224,-0.068 -0.44,0.11733 -0.652,0.55733 l -0.32,-0.13333 0.87733,-2.08934 0.32134,0.136 c -0.152,0.54134 -0.0853,0.92267 0.2,1.14134 l 1.90933,2.20133 1.476,0.62 c 0.38,0.236 0.688,0.0133 0.924,-0.66934 l 0.32133,0.13467 -1.32266,3.148 -0.32134,-0.13467 c 0.32267,-0.64666 0.27067,-1.032 -0.15466,-1.16133 l -1.508,-0.63333 -2.50134,0.19466 c -0.75866,0.008 -1.18933,0.19334 -1.28933,0.55334"
         style="fill:#125582;fill-opacity:1;fill-rule:nonzero;stroke:none;stroke-width:0.133;stroke-dasharray:none" />
      <path
         id="path18"
         d="m 119.38943,129.57067 c 0.9328,0 1.76147,-0.72667 1.76147,-1.65867 0,-0.932 -0.82867,-1.76 -1.76147,-1.76 -0.93226,0 -1.7604,0.828 -1.7604,1.76 0,0.932 0.82814,1.65867 1.7604,1.65867"
         style="fill:#125582;fill-opacity:1;fill-rule:evenodd;stroke:none;stroke-width:0.133;stroke-dasharray:none" />
      <path
         id="path19"
         d="m 213.6653,129.57067 c 0.932,0 1.65733,-0.72667 1.65733,-1.65867 0,-0.932 -0.72533,-1.76 -1.65733,-1.76 -0.932,0 -1.76133,0.828 -1.76133,1.76 0,0.932 0.82933,1.65867 1.76133,1.65867"
         style="fill:#125582;fill-opacity:1;fill-rule:evenodd;stroke:none;stroke-width:0.133;stroke-dasharray:none" />
      <path
         id="path20"
         d="m 166.57957,70 c 31.95053,0 57.8604,25.910666 57.8604,57.86 0,31.95066 -25.90987,57.86 -57.8604,57.86 -31.95,0 -57.8604,-25.90934 -57.8604,-57.86 0,-31.949334 25.9104,-57.86 57.8604,-57.86 z m 0,1.569333 c 31.08333,0 56.29106,25.208 56.29106,56.290667 0,31.084 -25.20773,56.292 -56.29106,56.292 -31.08334,0 -56.29067,-25.208 -56.29067,-56.292 0,-31.082667 25.20733,-56.290667 56.29067,-56.290667"
         style="fill:#125582;fill-opacity:1;fill-rule:evenodd;stroke:none;stroke-width:0.133;stroke-dasharray:none" />
      <path
         id="path21"
         d="m 166.57957,88.458666 c 21.75733,0 39.40173,17.644004 39.40173,39.401334 0,21.75733 -17.6444,39.40133 -39.40173,39.40133 -21.75734,0 -39.4016,-17.644 -39.4016,-39.40133 0,-21.75733 17.64426,-39.401334 39.4016,-39.401334 z m 0,1.069334 c 21.1672,0 38.3324,17.16533 38.3324,38.332 0,21.16666 -17.1652,38.332 -38.3324,38.332 -21.1672,0 -38.3328,-17.16534 -38.3328,-38.332 0,-21.16667 17.1656,-38.332 38.3328,-38.332"
         style="fill:#125582;fill-opacity:1;fill-rule:evenodd;stroke:none;stroke-width:0.133;stroke-dasharray:none" />
      <path
         id="path22"
         d="m 199.63637,124.71867 h -3.1032 v 3.17733 h 3.1032 z m -33.24267,-24.632 h 0.37187 c 0,1.196 0,1.664 0,3.172 l 0.2072,0.64133 v 2.132 l 0.65946,0.788 v 3.56133 h 0.89574 v 6.67734 h 0.9876 v -0.83734 h 1.052 v 3.88934 h 14.3724 v -2.24 h 0.80573 v 0.67066 h 2.6208 l 5.3e-4,-0.70266 h 0.80374 v 2.272 h 11.31666 v 15.15466 H 132.6717 v -15.15466 h 11.31667 v -2.272 h 0.8032 l 0.001,0.70266 h 2.62027 v -0.67066 h 0.80627 v 2.24 h 14.37186 v -3.88934 h 1.05267 v 0.83734 h 0.98747 v -6.67734 h 0.89533 V 106.82 l 0.65987,-0.788 V 103.9 l 0.20733,-0.64133 c 0,-1.50934 0,-1.97467 0,-3.172 z M 199.63637,128.18 h -4.12814 v 2.58533 h 4.12814 z m 0,2.872 h -4.798 v 2.08 h 1.62973 v -1.56133 h 0.8532 v 1.56133 h 0.68427 v 1.23867 h 1.6308 z m -11.19174,-6.33333 h 3.56254 v 3.17733 h -3.56254 z m 0,3.46133 h 4.7396 v 2.58533 h -4.7396 z m 0,2.872 h 5.5084 v 2.08 h -1.8708 v -1.56133 h -0.9792 v 1.56133 h -0.52346 v 1.23867 h -2.13494 z m 0,-9.31733 h 3.56254 v 2.74666 h -3.56254 z m 7.29907,0.0293 h -2.97813 v 5.86667 h 0.93226 v 2.48 h 1.30254 v -2.48 h 0.74333 z m -7.3496,-2.48533 h -2.6468 v 0.85066 h 2.6468 z m -0.7432,2.02266 h -2.1172 v 13.0667 h 2.1172 z m -17.44107,2.94 h -0.9876 v 1.544 h 0.9876 z m 14.49947,0 h -0.87973 v 1.86534 h -1.09947 v -1.86534 h -0.98747 v 1.86534 c -0.36666,0 -0.7328,0 -1.09946,0 v -1.86534 h -0.98707 v 1.86534 c -0.36667,0 -0.73333,0 -1.09947,0 v -1.86534 h -0.98746 v 1.86534 c -0.36667,0 -0.7328,0 -1.09947,0 v -1.86534 h -0.98747 v 1.86534 c -0.36626,0 -0.73293,0 -1.09906,0 v -1.86534 h -0.98747 v 1.86534 c -0.36613,0 -0.7328,0 -1.09893,0 v -1.86534 h -0.988 v 1.544 h 0.3 V 126.6 h 13.10053 z m -1.65893,2.7 h -1.59574 v 2.856 h 1.59574 z m -1.85627,0 h -1.59627 v 2.856 h 1.59627 z m -1.85667,0 h -1.63706 v 2.856 h 1.63706 z m 5.37547,0 h -1.37813 v 2.856 h 1.37813 z m 0,3.11867 h -12.03333 v 4.29333 h 4.4724 v -3.6093 h 0.8396 v 3.60933 h 1.03493 V 130.744 h 0.83947 v 3.60933 h 1.03493 V 130.744 h 0.8396 v 3.60933 h 1.03493 V 130.744 h 0.8396 v 3.60933 h 1.09787 z m 14.92347,-8.32533 h -3.1032 v 2.74666 h 3.1032 z m -32.52294,4.05066 v -1.544 h 1.00987 v 1.544 z m -33.59066,-1.06666 h 3.1032 v 3.17733 h -3.1032 z m 0,3.46133 h 4.12813 v 2.58533 h -4.12813 z m 0,2.872 h 4.79746 v 2.08 h -1.6292 v -1.56133 h -0.85306 v 1.56133 h -0.6844 v 1.23867 h -1.6308 z m 11.19173,-6.33333 h -3.56307 v 3.17733 h 3.56307 z m 0,3.46133 h -4.7396 v 2.58533 h 4.7396 z m 0,2.872 h -5.5084 v 2.08 h 1.87093 v -1.56133 h 0.97907 v 1.56133 h 0.52347 v 1.23867 h 2.13493 z m 0,-9.31733 h -3.56307 v 2.74666 h 3.56307 z m -7.29893,0.0293 h 2.9776 v 5.86667 h -0.93187 v 2.48 h -1.30307 v -2.48 h -0.74266 z m 7.34946,-2.48533 h 2.6468 v 0.85066 h -2.6468 z m 0.7432,2.02266 h 2.1172 V 134.368 h -2.1172 z m 17.44107,2.94 h 0.98707 v 1.544 h -0.98707 z m -14.49947,0 h 0.87974 v 1.86534 h 1.09946 v -1.86534 h 0.98747 v 1.86534 c 0.36613,0 0.7328,0 1.09907,0 v -1.86534 h 0.98746 v 1.86534 c 0.36667,0 0.7328,0 1.09947,0 v -1.86534 h 0.98747 v 1.86534 c 0.36666,0 0.7328,0 1.09893,0 v -1.86534 h 0.9876 v 1.86534 c 0.36667,0 0.73333,0 1.09947,0 v -1.86534 h 0.98746 v 1.86534 c 0.36614,0 0.7328,0 1.09947,0 v -1.86534 h 0.98693 v 1.544 h -0.29946 V 126.6 h -13.10054 z m 1.6584,2.7 h 1.5968 v 2.856 h -1.5968 z m 1.8568,0 h 1.59574 v 2.856 h -1.59574 z m 1.85627,0 h 1.63747 v 2.856 h -1.63747 z m -5.37507,0 h 1.37814 v 2.856 h -1.37814 z m 0,3.11867 h 12.03334 v 4.29333 h -4.4724 V 130.744 h -0.84014 v 3.60933 h -1.0344 V 130.744 h -0.83946 v 3.60933 h -1.03494 V 130.744 h -0.8396 v 3.60933 H 150.3837 V 130.744 h -0.8396 v 3.60933 h -1.09787 z m -14.92346,-8.32533 h 3.1032 v 2.74666 h -3.1032 z m 32.52293,4.05066 v -1.544 h -1.00987 v 1.544 z m 1.15213,-15.372 V 107.376 l -0.61826,-0.40667 -0.61827,0.40667 v 3.03733 z m 0.56147,6.65734 v -5.728 h -2.35947 v 5.728 z m 1.79267,3.04 v -2.036 h -5.94534 v 2.036 z m -2.9724,1.364 c 0.2932,0 0.53386,0.24666 0.53386,0.54933 v 0.16267 h 1.0172 V 122.024 c 0,-0.30267 0.24014,-0.54933 0.53387,-0.54933 v 0 c 0.29373,0 0.53387,0.24666 0.53387,0.54933 v 0.16267 h 1.0172 V 122.024 c 0,-0.30267 0.24053,-0.54933 0.53373,-0.54933 v 0 c 0.29333,0 0.53333,0.24666 0.53333,0.54933 v 0.16267 h 1.01827 V 122.024 c 0,-0.30267 0.2396,-0.54933 0.53333,-0.54933 v 0 c 0.2932,0 0.53334,0.24666 0.53334,0.54933 v 0.16267 h 1.01773 V 122.024 c 0,-0.30267 0.24067,-0.54933 0.53387,-0.54933 v 0 c 0.29373,0 0.53386,0.24666 0.53386,0.54933 v 0.16267 h 1.01774 V 122.024 c 0,-0.30267 0.24,-0.54933 0.53333,-0.54933 v 0 c 0.29373,0 0.53387,0.24666 0.53387,0.54933 v 0.16267 h 1.0176 V 122.024 c 0,-0.30267 0.2396,-0.54933 0.53333,-0.54933 v 0 c 0.29373,0 0.53387,0.24666 0.53387,0.54933 v 0.16267 h 1.0172 V 122.024 c 0,-0.30267 0.24013,-0.54933 0.53386,-0.54933 v 0 c 0.29374,0 0.53387,0.24666 0.53387,0.54933 v 0.16267 h 1.01773 V 122.024 c 0,-0.30267 0.24014,-0.54933 0.53387,-0.54933 v 0 c 0.2932,0 0.53333,0.24666 0.53333,0.54933 v 0.16267 h 0.91667 v -1.28134 h -36.25947 v 1.28134 h 0.91667 V 122.024 c 0,-0.30267 0.24013,-0.54933 0.53387,-0.54933 v 0 c 0.29333,0 0.53333,0.24666 0.53333,0.54933 v 0.16267 h 1.01773 V 122.024 c 0,-0.30267 0.24014,-0.54933 0.53334,-0.54933 v 0 c 0.29373,0 0.53386,0.24666 0.53386,0.54933 v 0.16267 h 1.0172 V 122.024 c 0,-0.30267 0.24067,-0.54933 0.5344,-0.54933 v 0 c 0.29374,0 0.53334,0.24666 0.53334,0.54933 v 0.16267 h 1.01773 V 122.024 c 0,-0.30267 0.24,-0.54933 0.53373,-0.54933 v 0 c 0.29334,0 0.53334,0.24666 0.53334,0.54933 v 0.16267 h 1.01826 V 122.024 c 0,-0.30267 0.2396,-0.54933 0.5328,-0.54933 v 0 c 0.29374,0 0.53387,0.24666 0.53387,0.54933 v 0.16267 h 1.01773 V 122.024 c 0,-0.30267 0.24067,-0.54933 0.53387,-0.54933 v 0 c 0.2932,0 0.53387,0.24666 0.53387,0.54933 v 0.16267 h 1.01773 V 122.024 c 0,-0.30267 0.24,-0.54933 0.53333,-0.54933 v 0 c 0.29374,0 0.53334,0.24666 0.53334,0.54933 v 0.16267 h 1.01813 V 122.024 c 0,-0.30267 0.2396,-0.54933 0.53333,-0.54933 v 0 c 0.29334,0 0.53387,0.24666 0.53387,0.54933 v 0.16267 h 1.0172 V 122.024 c 0,-0.30267 0.24013,-0.54933 0.53387,-0.54933 z m 18.12973,2.49333 v -1.53067 h -0.91667 v 1.08534 h -1.0672 v -1.08534 h -1.01773 v 1.08534 c -0.35573,0 -0.71147,0 -1.06773,0 v -1.08534 h -1.0172 v 1.08534 c -0.35574,0 -0.712,0 -1.0672,0 v -1.08534 h -1.0176 v 1.08534 c -0.35574,0 -0.71147,0 -1.0672,0 v -1.08534 h -1.01774 v 1.08534 c -0.35573,0 -0.71146,0 -1.06773,0 v -1.08534 h -1.01773 v 1.08534 c -0.3552,0 -0.71147,0 -1.06667,0 v -1.08534 h -1.01827 v 1.08534 c -0.3556,0 -0.71093,0 -1.06706,0 v -1.08534 h -1.0172 v 1.08534 c -0.35574,0 -0.712,0 -1.06774,0 v -1.08534 h -1.0172 v 1.08534 h -1.06773 v -1.08534 h -1.0172 v 1.08534 c -0.35627,0 -0.712,0 -1.0672,0 v -1.08534 h -1.01813 v 1.08534 c -0.3552,0 -0.71094,0 -1.06667,0 v -1.08534 h -1.01773 v 1.08534 c -0.35627,0 -0.712,0 -1.06774,0 v -1.08534 h -1.01773 v 1.08534 c -0.35573,0 -0.71147,0 -1.06667,0 v -1.08534 h -1.01826 v 1.08534 c -0.35574,0 -0.71134,0 -1.06707,0 v -1.08534 h -1.01773 v 1.08534 c -0.35574,0 -0.71147,0 -1.06774,0 v -1.08534 h -1.0172 v 1.08534 c -0.35573,0 -0.71146,0 -1.0672,0 v -1.08534 h -1.01773 v 1.08534 h -1.0672 v -1.08534 h -0.91667 v 1.53067 z m -14.58133,2.768 2.55426,1.83333 v 1.228 h 4.7364 v -2.856 h -6.1156 v -0.85466 h -9.44693 v 0.85466 h -6.1156 v 2.856 h 4.73653 v -1.228 l 2.5536,-1.83333 z m -2.42814,1.55333 c 0.97867,0 1.78027,0.84934 1.78027,1.888 v 4.176 h 0.9136 v -5.76666 l -0.73547,-0.76 h -6.15733 l -0.73533,0.76 v 5.76666 h 0.91346 v -4.176 c 0,-1.03866 0.80107,-1.888 1.78027,-1.888 z m 0.4636,1.92667 v 4.13733 h 0.6104 v -4.46 c 0,-0.59333 -0.47186,-1.08 -1.04893,-1.08 h -2.29067 c -0.57706,0 -1.04893,0.48667 -1.04893,1.08 v 4.46 h 0.6104 V 130.216 Z m -0.57706,4.13733 v -2.99066 c 0,-0.10534 -0.162,-0.192 -0.35987,-0.192 h -1.29387 c -0.19786,0 -0.35986,0.0867 -0.35986,0.192 v 2.99066 z m -5.7068,2.83867 h 9.4 v 0.83067 h -9.4 z m -1.54067,1.24533 h 12.48133 v 0.832 H 160.3389 Z m 3.236,-2.48266 h 6.00933 v 0.83066 h -6.00933 v -0.83066"
         style="fill:#125582;fill-opacity:1;fill-rule:evenodd;stroke:none;stroke-width:0.133;stroke-dasharray:none" />
      <path
         id="path23"
         d="m 156.0937,149.748 v -1.28267 c 0.59107,-0.23867 1.15827,-0.552 1.7036,-0.94 h 1.37347 v 6.444 h -1.47294 V 148.92 c -0.49853,0.33733 -1.0328,0.61333 -1.60413,0.828 z m 4.99213,2.63733 h 1.4896 c 0.0853,0.516 0.32654,0.78 0.72187,0.792 0.7776,-0.003 1.1172,-0.68933 1.0192,-2.06 -0.18427,0.152 -0.37707,0.256 -0.5744,0.31333 -0.1912,0.06 -0.4396,0.0893 -0.7464,0.088 -1.2224,-0.116 -1.89787,-0.76133 -2.02867,-1.93866 0.0964,-1.364 0.9032,-2.09734 2.42187,-2.19734 1.63493,-0.003 2.4516,0.95334 2.45,2.86934 0.0948,2.60933 -0.74627,3.892 -2.52187,3.84933 -1.46813,0.016 -2.21146,-0.556 -2.2312,-1.716 z m 1.3984,-2.89733 c 0.0131,0.72533 0.32974,1.092 0.95214,1.10133 0.56866,-0.012 0.86093,-0.37867 0.88013,-1.10133 -0.0291,-0.76 -0.32133,-1.152 -0.88013,-1.172 -0.61254,0.0173 -0.9292,0.40933 -0.95214,1.172 z m 7.4948,1.26533 c 0.006,-1.59867 -0.28586,-2.41067 -0.87546,-2.43733 -0.5896,0.0267 -0.8808,0.83866 -0.8704,2.43733 -0.0104,1.592 0.2808,2.40133 0.8704,2.424 0.5896,-0.0227 0.88173,-0.832 0.87546,-2.424 z m 1.5172,0 c -0.0427,2.20267 -0.84946,3.31733 -2.4224,3.348 -1.53013,-0.0347 -2.3172,-1.148 -2.35826,-3.348 0.0443,-2.21067 0.83173,-3.33467 2.35826,-3.37067 1.56987,0.0333 2.37814,1.15734 2.4224,3.37067 z m 0.80987,1.632 h 1.4896 c 0.0844,0.516 0.32653,0.78 0.72187,0.792 0.77706,-0.003 1.1172,-0.68933 1.01933,-2.06 -0.18493,0.152 -0.3776,0.256 -0.5756,0.31333 -0.19053,0.06 -0.43907,0.0893 -0.74573,0.088 -1.22187,-0.116 -1.89854,-0.76133 -2.0292,-1.93866 0.0963,-1.364 0.9036,-2.09734 2.4224,-2.19734 1.63493,-0.003 2.4516,0.95334 2.45,2.86934 0.0948,2.60933 -0.7464,3.892 -2.52187,3.84933 -1.46827,0.016 -2.21147,-0.556 -2.2308,-1.716 z m 1.398,-2.89733 c 0.0129,0.72533 0.3296,1.092 0.952,1.10133 0.56827,-0.012 0.86093,-0.37867 0.8808,-1.10133 -0.0297,-0.76 -0.3224,-1.152 -0.8808,-1.172 -0.6124,0.0173 -0.9296,0.40933 -0.952,1.172"
         style="fill:#125582;fill-opacity:1;fill-rule:nonzero;stroke:none;stroke-width:0.133;stroke-dasharray:none" />
      <path
         id="path24"
         d="m 145.8509,84.297333 c -0.0323,-0.06267 0.16253,-0.104 0.29013,-0.162666 0.05,-0.02267 0.1588,-0.07067 0.188,-0.07333 0.10267,-0.008 0.13654,-0.012 0.3604,0.064 0.224,0.076 0.3756,0.136 0.48707,0.076 0.11093,-0.06133 0.2244,-0.116 0.24573,-0.16 0.0209,-0.04267 0.0276,-0.149333 0.0505,-0.258666 0.0224,-0.109334 0.0776,-0.205334 0.0713,-0.342667 -0.007,-0.136 -0.0244,-0.250667 -0.006,-0.316 0.0183,-0.06533 0.14333,-0.401333 0.22093,-0.462667 0.0787,-0.06 0.4968,-0.288 1.02333,-0.354666 0,0 0.1792,0.032 0.2224,0.158666 0.0433,0.126667 0.19014,0.493334 0.2224,0.544 0.0319,0.052 0.0605,0.09467 0.18334,0.110667 0.1224,0.01733 0.26573,0.008 0.35733,-0.2 0.0917,-0.206667 0.23547,-0.496 0.29227,-0.654667 0.0577,-0.157333 0.0989,-0.349333 0.11866,-0.481333 0.0203,-0.132 0.003,-0.362667 0.0719,-0.477333 0.0693,-0.114667 0.15213,-0.234667 0.3896,-0.289334 0.23747,-0.05333 0.388,-0.08267 0.4948,-0.1 0.1068,-0.01733 0.23547,0.01333 0.23547,0.01333 0,0 0.10826,0.05467 0.15146,0.182666 0.0437,0.128 0.0767,0.268 0.10894,0.302667 0.0323,0.03333 0.32546,0.273333 0.6052,0.118667 0,0 0.12133,-0.05733 0.152,-0.09733 0.0308,-0.03867 0.0969,-0.16 0.1464,-0.405333 0.0495,-0.244 0.0505,-0.4 0.0912,-0.574667 0.0411,-0.176 0.0839,-0.557333 0.19266,-0.78 0.1084,-0.224 0.18694,-0.301333 0.25307,-0.406666 0.0657,-0.104 0.26827,-0.354667 0.42613,-0.42 0.37494,-0.157334 0.61974,-0.01867 1.02187,0.06133 0.1724,0.03467 0.31667,0.09867 0.36507,0.149333 0.0489,0.052 0.0776,0.09467 0.0568,0.137334 -0.0208,0.04267 -0.0344,0.557333 -0.18547,0.884 0,0 -0.0177,0.170666 -0.006,0.249333 0.0109,0.076 0.0881,0.204 0.0885,0.310667 5.3e-4,0.106666 0.0625,0.290666 0.13546,0.428 0.0131,0.02667 -0.009,0.07733 0.004,0.157333 0.0177,0.102667 0.0756,0.246667 0.14694,0.368 0.0703,0.12 0.1412,0.290667 0.21093,0.409333 0.0333,0.056 0.0995,0.084 0.13747,0.144 0.0485,0.07467 0.0677,0.182667 0.0901,0.264 0,0 0.0145,0.08133 0.01,0.150667 -0.005,0.08933 -0.0375,0.184 -0.0255,0.269333 0.0156,0.102667 -0.003,0.186667 0.0703,0.269334 0.0328,0.03733 0.14893,0.06267 0.20986,0.116 0.20574,0.177333 0.5688,0.733333 0.5672,0.996 -5.3e-4,0.185333 -0.2692,0.447999 -0.31813,0.583999 -0.0491,0.134667 -0.20267,0.646667 -0.33547,0.741334 -0.1328,0.09467 -0.42133,0.165333 -0.52453,0.117333 -0.10307,-0.048 -0.25573,-0.202667 -0.25573,-0.202667 l -0.29787,-0.08533 -0.25627,0.07067 c 0,0 -0.0359,-0.110667 -0.001,-0.208 0.0349,-0.09733 0.0453,-0.246667 0.0381,-0.469334 -0.008,-0.221333 -0.1944,-0.825333 -0.33653,-1.129333 0,0 -0.0421,-0.398666 -0.126,-0.681333 -0.0844,-0.282667 -0.32187,-0.686667 -0.34894,-0.914667 -0.0267,-0.229333 -0.007,-0.496 -0.0115,-0.574666 -0.005,-0.07867 -0.0193,-0.522667 -0.13187,-0.728 -0.11147,-0.204 -0.22187,-0.233334 -0.3072,-0.209334 -0.0855,0.024 -0.13547,0.192 -0.17133,0.321334 -0.036,0.129333 -0.21414,0.470666 -0.0959,0.962666 0,0 0.0459,0.236 0.15,0.252 0.1036,0.016 0.252,0.092 0.28907,0.170667 0.0369,0.07867 0.13386,0.388 0.13853,0.466667 0.004,0.07867 -0.003,0.372 -0.0964,0.446666 -0.0932,0.076 -0.25627,0.072 -0.438,0.028 -0.1812,-0.044 -0.32707,0.05733 -0.42867,-0.056 -0.1016,-0.113333 -0.27026,-0.130666 -0.33013,-0.36 -0.0595,-0.230666 -0.0595,-0.230666 -0.0683,-0.386666 -0.009,-0.157334 -0.1224,-0.329334 -0.186,-0.397334 -0.0629,-0.06533 -0.15573,-0.02267 -0.15573,-0.02267 0,0 -0.002,0.338666 -0.0563,0.429333 -0.0547,0.08933 0.003,0.384 0.0433,0.608 0.0396,0.221333 0.0359,0.385333 0.0437,0.574667 0.008,0.189333 0.21293,0.592 0.276,0.690666 0.0625,0.1 0.4432,0.774667 0.37813,1.048 -0.0661,0.272 -0.0787,0.518667 -0.1552,0.7 -0.076,0.18 -0.58853,0.324 -0.58853,0.324 0,0 -0.29787,-0.08533 -0.4328,-0.409333 -0.13547,-0.322667 -0.32453,-0.588 -0.35213,-0.784 -0.0276,-0.197334 -0.0765,-0.576 -0.0979,-0.76 -0.0213,-0.182667 -0.0251,-0.568 -0.0136,-0.750667 0.0109,-0.181333 0.0636,-0.448 0.0475,-0.585333 -0.0161,-0.137333 -0.0485,-0.412 -0.17347,-0.369333 0,0 -0.13907,0.08133 -0.17867,0.373333 -0.0401,0.293333 -0.0844,0.506667 -0.0687,0.645333 0.0161,0.136 -0.1672,0.432 -0.36307,0.426667 0,0 -0.2084,0.0013 -0.3208,0.07067 -0.11307,0.06933 -0.0543,0.330666 -0.0313,0.449333 0.0229,0.117333 0.3688,1.130666 0.38706,1.444 0.0181,0.313333 -0.23026,1.364 -0.412,1.593333 0,0 -0.3204,0.278667 -0.48653,0.405333 -0.16613,0.126667 -0.3396,0.03067 -0.3396,0.03067 0,0 -0.4776,-0.194667 -0.5812,-0.244 -0.10307,-0.048 -0.13747,-0.224 -0.26453,-0.358667 -0.12707,-0.133333 -0.0855,-0.217333 -0.0177,-0.313333 0.0677,-0.096 0.33494,-0.349333 0.33494,-0.349333 0,0 0.40613,-0.850667 0.34573,-1.289334 -0.0609,-0.438666 -0.0312,-1.096 -0.18853,-1.327999 -0.1572,-0.233334 -0.3036,-0.537334 -0.4864,-0.516 -0.14747,0.016 -0.248,0.05867 -0.3292,0.142666 -0.0369,0.03733 -0.0776,0.07867 -0.10307,0.14 -0.005,0.01067 -0.0109,0.024 -0.0104,0.036 0.004,0.121334 -0.0824,0.236 -0.0824,0.236 0,0 0.0385,0.206667 0.0287,0.324 -0.009,0.117333 0.0771,0.382667 0.18386,0.542667 0.0765,0.113333 0.176,0.296 0.1584,0.429333 -0.007,0.052 -0.0808,0.096 -0.10733,0.125333 -0.29067,0.336 -0.25413,0.806667 -0.788,0.482667 C 146.80717,86.056 146.59263,86.012 146.59263,86.012 c 0,0 -0.1084,-0.04667 -0.3032,-0.372 -0.35573,-0.597334 0.0568,-0.344 -0.007,-0.674667 -0.0171,-0.09067 0.007,-0.258667 -0.0405,-0.386667 -0.0219,-0.05733 -0.10053,-0.133333 -0.1308,-0.144 -0.0968,-0.03467 -0.21507,-0.04933 -0.2604,-0.137333"
         style="fill:#125582;fill-opacity:1;fill-rule:evenodd;stroke:none;stroke-width:0.133;stroke-dasharray:none" />
      <path
         id="path25"
         d="m 200.2697,101.30933 c 0.16773,0.0147 0.53333,0.0347 0.81027,0.0613 0.27733,0.0267 0.612,0.0947 0.9,0.4 0,0 -0.188,0.37066 -0.232,0.52933 -0.0427,0.15733 -0.0787,0.364 -0.512,0.66 -0.43347,0.29467 -0.40227,0.22667 -0.40227,0.22667 0,0 -0.17813,0.0147 -0.63587,-0.284 -0.45733,-0.29867 -0.60266,-0.432 -0.83546,-0.616 -0.2328,-0.18534 -0.41347,-0.45734 -0.41347,-0.45734 -0.0589,0.30267 0.0161,0.23067 0.11507,0.508 0.0459,0.13067 0.3896,0.61467 0.4844,0.776 0.0948,0.16 0.13066,0.32 0.14573,0.49867 0.0152,0.17867 0.002,0.67333 0.19227,0.956 0,0 0.37653,0.376 0.5448,0.39067 0.16773,0.0147 0.55546,-0.0253 0.55546,-0.0253 0,0 0.83067,0.0227 1.17867,-0.424 0.34933,-0.44666 0.34133,-0.556 0.52933,-0.90666 0.188,-0.352 0.39867,-0.832 0.68667,-0.87467 0,0 0.35333,0.0693 0.504,0.064 0.14933,-0.005 0.36133,-0.0147 0.43067,-0.0627 0.0413,-0.028 0.16133,-0.13733 0.2,-0.24666 0.0427,-0.12134 -0.024,-0.16934 -0.0493,-0.23067 -0.0627,-0.148 0.0987,-0.23333 0.204,-0.46933 0,0 -0.088,-0.28 -0.23333,-0.432 -0.144,-0.152 -0.24933,-0.284 -0.65333,-0.384 -0.404,-0.1 -0.78267,-0.33734 -1.39067,-0.57067 -0.608,-0.23467 -1.384,-0.482667 -1.7444,-0.700001 0,0 -0.43333,-0.09067 -0.69587,-0.285333 -0.26986,-0.201333 -0.35893,-0.630667 -0.73906,-0.514667 -0.0896,0.02667 -0.0724,0.126667 -0.0724,0.126667 0,0 -0.062,0.462667 0.0104,0.722667 0.13493,0.482667 -0.0959,1.049337 0.45106,1.309337 0.25574,0.0653 0.4984,0.24133 0.66667,0.25466 z m 6.48093,-6.474664 c 0,0 -0.76933,0.856 -0.98,1.056 -0.21066,0.2 -1.02133,1.010667 -1.12266,1.128 -0.1,0.116 -0.204,0.384 -0.328,0.564 -0.124,0.181333 -0.17734,0.276 -0.172,0.353333 0.005,0.07733 0.14933,0.08933 0.43066,0.09733 0.136,0.004 0.248,0.07733 0.31867,0.084 0.0307,0.0013 0.0467,-0.0093 0.0787,-0.0013 l 0.31866,0.088 c 0,0 0.152,0.024 0.35067,0.06133 0.13467,0.02533 0.28533,0.04533 0.372,0.04 0.08,-0.0053 0.10533,0.01467 0.18,0.088 0.216,0.210666 0.252,0.621333 0.252,0.621333 0.003,0.056 -0.0853,0.124 0,0.192 0.0573,0.04667 0.15467,-0.08133 0.27067,-0.06667 0.08,0.01067 0.16533,0.118667 0.26266,0.212 0.192,0.186667 0.176,0.278667 0.17067,0.466667 -0.003,0.106667 -0.0333,0.206661 -0.092,0.274661 -0.0853,0.10134 -0.20267,0.0947 -0.31467,0.11067 -0.12533,0.016 -0.24533,0.0453 -0.312,0.0333 -0.12533,-0.024 -0.36,-0.088 -0.47333,-0.16533 -0.036,-0.024 -0.148,-0.119998 -0.292,-0.213331 -0.184,-0.121333 -0.42667,-0.254667 -0.67733,-0.388 -0.16134,-0.08533 -0.348,-0.137333 -0.48267,-0.2 -0.50533,-0.232 -1.46133,-0.852 -1.64667,-0.941333 -0.18533,-0.08933 -0.73066,-0.426667 -0.73066,-0.426667 -0.24,-0.01733 -0.36667,0.429333 -0.39067,0.553333 -0.024,0.125334 -0.0293,0.292 -0.0413,0.385334 -0.0133,0.09333 0.11733,0.274666 0.11733,0.274666 0,0 0.75067,0.490667 0.91467,0.578667 0.16533,0.088 1.088,0.352001 1.088,0.352001 0.26266,-0.0107 0.48,-0.0213 0.676,0.0293 0.37466,0.096 0.616,0.316 0.724,0.332 0.16666,0.0267 0.752,0.04 0.752,0.04 0,0 0.25066,0.028 0.30133,0.0813 0.0507,0.0533 0.088,0.2 0.096,0.296 0.008,0.0933 -0.236,0.244 -0.38133,0.24 -0.14667,-0.004 -0.65467,-0.164 -0.65467,-0.164 0,0 -0.28933,-0.0907 -0.24933,-0.0267 0.04,0.0627 0.61066,0.79333 0.672,0.85866 0.18933,0.19867 0.196,0.23067 0.58133,0.324 0.35333,0.0707 0.37733,-0.032 0.48533,-0.176 0.108,-0.144 0.324,-0.83733 0.31867,-0.99466 -0.0107,-0.27734 -0.0467,-0.38534 0.116,-0.45734 0,0 0.26667,0.216 0.328,0.28134 0.19333,0.204 0.41867,0.0667 0.52533,-0.132 0.19067,-0.35734 -0.11066,-0.57067 0.28934,-0.614668 0.048,-0.0053 0.044,0.004 0.088,0.02667 0.0613,0.03066 0.18266,0.072 0.368,0.04266 0.284,-0.044 1.468,-0.170658 1.56133,-0.157325 0.0933,0.01333 0.46,0.012 0.52267,-0.028 0.064,-0.04 0.20666,-0.297333 0.20133,-0.496 -0.0107,-0.422666 0.196,-0.332 -0.096,-0.545333 -0.092,-0.068 -0.136,-0.08267 -0.248,-0.113333 -0.0893,-0.02533 -0.21333,-0.06 -0.336,-0.101334 -0.23733,-0.08 -0.54,-0.24 -0.64,-0.268 -0.53067,-0.148 -0.372,-0.42 -0.108,-0.670666 0.19333,-0.185333 0.272,-0.16 0.136,-0.434667 l -0.156,-0.217333 c -0.009,-0.01333 -0.016,-0.02667 -0.0147,-0.03867 0.003,-0.01067 0.0173,-0.03333 0.0307,-0.05067 0.036,-0.05467 0.10933,-0.138667 0.21733,-0.214667 0.0893,-0.064 0.256,-0.182667 0.36667,-0.305333 0.0973,-0.108 0.148,-0.224 0.148,-0.224 0,0 0.016,-0.177334 -0.032,-0.314667 -0.0493,-0.137333 -0.064,-0.346667 -0.0933,-0.482667 -0.012,-0.06 -0.008,-0.112 -0.0173,-0.158666 -0.005,-0.02667 -0.028,-0.072 -0.0333,-0.096 -0.0293,-0.138667 -0.0733,-0.14 -0.15867,-0.04933 -0.024,0.02267 -0.0347,0.06667 -0.0667,0.09733 -0.0973,0.09333 -0.25867,0.285333 -0.392,0.317333 -0.0573,0.012 -0.20134,0.110667 -0.32534,0.16 -0.148,0.06 -0.28933,0.02933 -0.36266,0.05867 -0.0733,0.02933 -0.25067,0.01467 -0.364,-0.04 -0.0707,-0.03467 -0.22667,-0.206667 -0.33867,-0.297334 -0.048,-0.03733 -0.0987,-0.07733 -0.12667,-0.06933 -0.0173,0.0053 -0.0133,0.04 -0.028,0.068 l 0.0107,0.157333 c 0.028,0.124 0.0413,0.212 0.0587,0.292 0.0133,0.06267 0.04,0.114667 -0.003,0.212 -0.0453,0.104 -0.36133,0.18 -0.584,0.289334 -0.22133,0.109333 -0.86533,0.138666 -0.86533,0.138666 0.0787,0.145334 0.33733,0.07333 0.48666,0.07067 0.23867,-0.004 0.29067,0.04133 0.404,0.09733 0.11334,0.056 0.43334,0.154667 0.58934,0.168 0.15733,0.016 0.26133,0.105334 0.26133,0.105334 0.15067,0.262666 -0.128,0.4 -0.128,0.4 0,0 -0.19733,0.1 -0.512,0.162666 -0.31467,0.06267 -0.852,0.304 -0.976,0.26 -0.124,-0.04533 -0.25467,-0.448 -0.25467,-0.448 0,0 -0.112,-0.262666 -0.156,-0.236 -0.23466,0.148 -0.10533,0.104 -0.12933,0.270667 -0.012,0.09467 -0.001,0.470666 -0.001,0.470666 -0.064,0.08133 -0.516,0.198667 -0.64267,0.214667 -0.088,0.01333 -0.40667,0.02667 -0.604,-0.0027 -0.0453,-0.0067 -0.10533,-0.024 -0.092,-0.084 0.0227,-0.09333 0.0267,-0.174666 0.06,-0.217333 0.0347,-0.04133 0.104,-0.114666 0.16667,-0.216 0.0387,-0.06 0.11066,-0.162666 0.14,-0.238666 0.0813,-0.204 0.71333,-1.070667 0.836,-1.229334 0.0853,-0.109333 0.36,-0.364 0.492,-0.541333 0.06,-0.08133 0.0293,-0.164 0.0467,-0.18 0.0547,-0.05333 0.0933,-0.257333 0.0933,-0.257333 l 0.0133,-0.118667 z m 1.932,3.214667 0.64,0.713333 c 0.0867,0.112 0.0587,0.221333 -0.04,0.326667 -0.112,0.12 -0.33866,0.272 -0.568,0.373333 -0.132,0.06 -0.256,0.146667 -0.39466,0.137333 -0.15867,-0.01067 -0.32667,-0.124 -0.37867,-0.161333 -0.0253,-0.01867 -0.45867,-0.04 -0.468,-0.153333 -0.004,-0.068 0.0387,-0.325334 0.0427,-0.428 -0.0107,-0.09333 -0.056,-0.362667 -0.0573,-0.492 0,-0.024 -0.0547,-0.154667 -0.012,-0.185334 0.044,-0.03067 0.72267,-0.102666 1.072,-0.164 0.13734,-0.02267 0.13067,0.01067 0.164,0.03333 z m -3.96266,-3.104 c 0.005,0.166667 -0.0173,0.704 -0.007,0.777333 0.012,0.08533 0.16933,0.192 0.0667,0.298667 -0.0373,0.03867 -0.116,0.122667 -0.20934,0.218667 -0.16533,0.170666 -0.37333,0.384 -0.45866,0.458666 -0.0587,0.05333 -0.16667,0.188 -0.32667,0.324 -0.15467,0.132 -0.35733,0.264 -0.51467,0.349334 -0.0907,0.04933 -0.14666,0.106666 -0.132,-0.05467 0.003,-0.02267 0.009,-0.052 0.024,-0.08533 0.0587,-0.132 0.0773,-0.225334 0.184,-0.346667 0.108,-0.122667 0.17734,-0.316 0.26,-0.464 0.084,-0.146667 0.31467,-0.344 0.40267,-0.476 0.088,-0.132 0.10667,-0.236 0.19067,-0.393333 0.0493,-0.09333 0.20266,-0.310667 0.33333,-0.472 0.0667,-0.08267 0.132,-0.154667 0.16267,-0.176 0.0293,-0.02133 0.0227,0.02267 0.024,0.04133"
         style="fill:#125582;fill-opacity:1;fill-rule:evenodd;stroke:none;stroke-width:0.133;stroke-dasharray:none" />
      <path
         id="path26"
         d="m 125.5785,102.70133 c 0,0 -0.0995,0.33734 0.0943,0.72534 0.0704,0.14 0.2844,0.28133 0.38333,0.47333 0.11467,0.22267 0.14013,0.45467 0.3256,0.756 0.0104,0.0173 0.0833,0.0787 0.15627,0.19733 0.038,0.0613 0.0291,0.15334 0.0848,0.228 0.038,0.0507 0.1396,0.0853 0.174,0.132 0.0557,0.0787 0.0531,0.16134 0.10626,0.21734 0.102,0.11066 0.2568,0.156 0.34947,0.0987 0.10413,-0.064 0.3192,-0.152 0.62493,-0.17066 0.13814,-0.008 0.50947,-0.30267 0.4068,-0.432 -0.0735,-0.092 -0.1604,-0.216 -0.3744,-0.36267 -0.2136,-0.148 -0.8548,-0.42533 -1.2272,-0.768 -0.37186,-0.34267 -0.64626,-0.64667 -0.8056,-0.76933 -0.15946,-0.124 -0.29853,-0.32534 -0.29853,-0.32534 z m 4.2464,-2.765331 c 0.0188,-0.05867 0.10467,-0.02267 0.23587,-0.048 0.0844,-0.016 0.16986,-0.06533 0.23653,-0.072 0.076,-0.0067 0.1604,0.056 0.3172,0.05867 0.5536,0.01067 0.86813,-0.008 1.26867,0.176001 0,0 0.29946,0.16 0.36306,0.408 0.0631,0.248 0.0156,0.29866 0.002,0.36666 -0.0136,0.0693 -0.40267,0.5 -0.40267,0.5 0,0 -0.26667,-0.11866 -0.3864,-0.212 -0.11987,-0.0933 -0.83547,-0.52666 -0.91307,-0.57066 -0.0312,-0.0187 -0.20986,-0.04 -0.33693,-0.12667 -0.15893,-0.10933 -0.3396,-0.252 -0.3896,-0.30933 l -0.024,-0.0827 z m -5.4,-0.529333 c 0.0297,-0.130667 0.0224,-0.238667 0.0265,-0.354667 0.005,-0.116 -0.007,-0.22 -0.0349,-0.352 -0.0156,-0.07067 -0.0771,-0.165333 -0.0963,-0.256 -0.086,-0.416 -0.14066,-1.019999 -0.2724,-1.705333 -0.0229,-0.118666 -0.0849,-0.209333 -0.12506,-0.324 -0.0353,-0.101333 -0.0489,-0.226666 -0.0713,-0.32 -0.0968,-0.405333 -0.0577,-0.617333 -0.11826,-0.898666 -0.0796,-0.372 -0.16294,-0.754667 -0.17494,-0.848 -0.0251,-0.197334 -0.0265,-0.362667 -0.0693,-0.489334 -0.0427,-0.128 -0.0109,-0.244 0.0308,-0.284 0.0411,-0.03733 0.1932,0.0093 0.1932,0.0093 0,0 0.3412,-0.02933 0.4656,0.008 0.124,0.036 0.20627,0.16 0.2932,0.214666 0.0469,0.03067 0.2324,0.122667 0.398,0.110667 0.138,-0.0093 0.25467,-0.116 0.34013,-0.152 0,0 0.1708,-0.197333 0.24,-0.02533 0.0693,0.168 0.0417,0.221333 0.0193,0.269333 -0.0417,0.08267 -0.0584,0.145333 -0.0927,0.197333 -0.0272,0.03867 -0.0824,0.09733 -0.11413,0.157334 -0.1364,0.254666 -0.5224,0.9 -0.58694,1.650666 -0.0151,0.172 -0.0177,0.368 -0.0287,0.564 -0.008,0.161334 -0.0265,0.321334 -0.0188,0.484 0.0104,0.214667 -0.0312,0.425334 0.003,0.629333 0.0145,0.08667 0.0495,0.170667 0.0525,0.248 0.003,0.09867 -0.0276,0.188 -0.0224,0.28 0.006,0.114667 0.0157,0.209334 0.012,0.313334 -0.004,0.12 -0.0281,0.257333 -0.0459,0.382666 -0.0156,0.114667 -0.0427,0.226667 -0.0557,0.337334 -0.006,0.04933 5.3e-4,0.09867 -0.005,0.148 -0.0219,0.105333 -0.0145,0.150666 0.10054,0.184 0.0595,0.016 0.0699,0.02133 0.11613,-0.02133 0.0876,-0.07867 0.24853,-0.457333 0.33653,-1.001333 0.0885,-0.541333 0.16507,-1.001333 0.16507,-1.001333 0,0 0.0407,-0.481333 0.0391,-0.616 -0.003,-0.134667 0.0667,-0.12 0.0667,-0.12 0,0 0.15574,-0.03067 0.17814,0.02667 0.0224,0.056 0.0656,0.104 0.0656,0.104 0,0 0.20786,0.04133 0.3412,-0.028 0.0776,-0.04133 0.0661,-0.205334 0.0801,-0.310667 0.0193,-0.144 -0.007,-0.642667 0.024,-0.870667 0.0177,-0.132 0.0683,-0.330666 0.15787,-0.518666 0.0645,-0.138667 0.16186,-0.264 0.2224,-0.385334 0.1432,-0.286666 0.19626,-0.509333 0.28333,-0.708 0.0771,-0.174666 0.15667,-0.417333 0.35827,-0.36 0,0 0.18853,0.06533 0.21253,0.138667 0.0239,0.072 0.0807,0.221333 0.17187,0.292 0.0911,0.06933 0.38173,0.588 0.57813,0.78 0.1968,0.192 1.914,1.82 2.34627,2.098667 0.43133,0.278666 0.69586,0.525333 0.7928,0.613333 0.0963,0.08933 1.02813,0.756 1.07133,0.788 0.0427,0.03333 1.72027,1.249333 1.89427,1.398666 0.17453,0.148005 0.64893,0.497335 0.71146,0.560005 0.0391,0.0387 0.40734,0.316 0.4708,0.39067 0.074,0.088 0.062,0.21066 0.0251,0.29066 -0.0985,0.21734 -0.16573,0.40134 -0.16773,0.46267 -0.002,0.044 -0.138,0.27333 -0.2104,0.364 -0.0453,0.056 -0.1224,0.092 -0.1928,0.0867 -0.0891,-0.007 -0.18694,-0.0187 -0.29734,-0.068 -0.0631,-0.0293 -0.17026,-0.0453 -0.29693,-0.0773 -0.162,-0.04 -0.36453,-0.0933 -0.62907,-0.112 -0.58853,-0.0413 -0.8376,-0.0627 -0.9188,-0.0693 -0.0391,-0.003 -0.0453,-0.007 -0.0797,-0.032 -0.0744,-0.0547 -0.23333,-0.15067 -0.20987,-0.19467 0.0131,-0.024 0.12134,-0.16533 0.2344,-0.31066 0.0885,-0.112 0.1656,-0.23467 0.2344,-0.288 0.0224,-0.0173 0.13907,-0.0267 0.28227,-0.052 0.13067,-0.0213 0.2344,-0.0613 0.28547,-0.13734 0.0421,-0.0613 0.16186,-0.0907 0.1864,-0.21733 0.024,-0.12133 -0.088,-0.14267 -0.15,-0.18933 -0.0432,-0.0347 -1.25307,-1.138675 -1.6088,-1.400008 -0.23654,-0.173333 -0.94747,-0.669333 -1.49174,-1.078667 -0.27546,-0.208 -0.50826,-0.393333 -0.61453,-0.503999 -0.31667,-0.329334 -0.95627,-0.858667 -1.0756,-0.993334 -0.1192,-0.133333 -0.87387,-0.817333 -1.02547,-1.018666 -0.1516,-0.2 -0.2584,-0.328 -0.29693,-0.385334 -0.0859,-0.128 -0.21667,-0.172 -0.2276,-0.06933 -0.0129,0.126667 -0.0807,0.229333 -0.16453,0.308 -0.1308,0.124 -0.30107,0.133333 -0.3604,0.192 -0.1188,0.117333 -0.27294,0.690667 -0.26774,0.792 0.005,0.101333 0.12974,0.589333 0.0771,0.729333 -0.0531,0.14 -0.1432,0.418667 -0.25253,0.488 0,0 -0.0948,-0.004 -0.19854,-0.01467 -0.1036,-0.01067 -0.24946,0.016 -0.33746,0.129333 -0.0875,0.114666 -0.0672,0.52 -0.0448,0.636 0.0224,0.114666 0.0803,0.201333 0.0803,0.201333 0,0 0.2244,-0.217333 0.2984,-0.313333 0.37027,-0.477333 0.32454,-0.433333 0.8552,-0.202667 0,0 0.20734,-0.286666 0.24694,-0.409333 0.0391,-0.122667 0.19213,-0.032 0.19213,-0.032 0,0 0.1068,0.096 0.13173,0.172 0.0256,0.076 0.14587,0.586666 0.15574,0.789333 0.01,0.204 0.1052,0.333333 0.18386,0.393333 0.0781,0.06133 0.15934,0.08267 0.24947,-0.016 0.0896,-0.09733 0.12813,-0.290666 0.47867,-0.130666 0,0 0.19746,0.06933 0.1984,0.14 0.002,0.07067 0.0172,0.32 0.0115,0.4 -0.006,0.07867 0.19374,0.902666 0.45374,1.341342 0,0 0.0187,0.20933 0.6452,0.5 0.6272,0.28933 0.79066,0.40266 0.84693,0.47333 0.0563,0.072 0.488,0.25333 0.43853,1.03867 0,0 0.0145,0.35866 -0.46973,0.31733 0,0 -0.27667,-0.004 -0.55787,-0.23467 -0.17493,-0.144 -0.26453,-0.21866 -0.31146,-0.248 -0.0479,-0.0293 -0.0453,-0.016 -0.0771,0.0333 -0.0412,0.0627 -0.10213,0.172 -0.0729,0.23466 0.0427,0.088 0.17293,0.24534 0.2396,0.33867 0.0672,0.0933 0.1656,0.43467 0.13493,0.56399 -0.0193,0.0813 -0.0573,0.13067 -0.13653,0.15068 -0.0473,0.012 -0.112,0.016 -0.19014,0.003 -0.078,-0.0133 -0.17386,-0.003 -0.23853,-0.0253 -0.10773,-0.0387 -0.16507,-0.124 -0.1656,-0.24667 0,0 -0.0515,-0.22266 -0.0765,-0.47733 -0.0249,-0.25733 -0.0328,-0.44533 -0.0511,-0.528 -0.0192,-0.0853 -0.0276,-0.21733 -0.0839,-0.28934 -0.0567,-0.0707 -0.45573,-0.36667 -0.5344,-0.42667 0,0 -0.1208,-0.0253 -0.16613,0.052 -0.0452,0.076 -0.0823,0.16 0.009,0.25866 0.0911,0.0973 0.15626,0.17601 0.1088,0.23733 -0.0473,0.0613 -0.32654,0.27734 -0.49947,0.15867 -0.17187,-0.12 -0.3328,-0.27334 -0.3516,-0.48266 0,0 0.0756,-0.332 0.0516,-0.64401 -0.0235,-0.312 -0.0869,-0.5 -0.19373,-0.596 -0.1068,-0.0973 -0.1036,-0.136 -0.1036,-0.136 0,0 -0.0928,0.26267 -0.0996,0.452 -0.008,0.18933 0.0319,0.5 -0.008,0.62267 -0.0391,0.12266 -0.0412,0.23333 -0.10786,0.26533 -0.0661,0.032 -0.114,0.0933 -0.43587,0.0947 -0.3224,0.001 -0.46093,0.14533 -0.688,0.0947 -0.22667,-0.0493 -0.18707,-0.172 -0.18707,-0.29733 -5.3e-4,-0.12668 0.24067,-0.456 0.27187,-0.64 0.0319,-0.18533 0.1464,-0.58533 0.18187,-0.86533 0.0348,-0.280009 0.0843,-0.757342 0.0995,-0.885342 0.0151,-0.128 -0.0344,-0.208 -0.0344,-0.208 l -0.3568,-0.332 c 0,0 -0.0995,0.02133 -0.2432,0.188 -0.14373,0.168 -0.2156,0.09867 -0.4532,0.765333 0,0 -0.10826,0.320009 -0.23693,0.486669 -0.12813,0.16534 -0.16507,0.124 -0.23227,0.21067 -0.0677,0.0867 -0.19373,0.21333 -0.27866,0.28667 -0.0855,0.0747 -0.6224,0.14799 -0.66507,0.13465 -0.0428,-0.0133 0.18067,-0.28533 0.26973,-0.46932 0.0891,-0.18268 0.18547,-0.374672 0.20267,-0.466672 0.006,-0.032 0.0124,-0.068 0.0109,-0.113334 -0.003,-0.05733 -0.007,-0.102666 0.005,-0.148 0.0109,-0.04 0.0188,-0.05867 0.0459,-0.09067 0.0312,-0.03867 0.0557,-0.048 0.0765,-0.138667 z m -2.5104,0.870664 c 0.0552,-0.16266 0.16093,-0.23066 0.23693,-0.471997 0.0459,-0.145334 0.0527,-0.252 0.0907,-0.404 0.0437,-0.178667 0.11453,-0.344 0.0984,-0.496 0,0 -0.009,-0.088 0.003,-0.209334 0.009,-0.09467 0.0489,-0.208 -0.009,-0.317333 -0.038,-0.072 -0.13066,-0.106667 -0.262,-0.169333 -0.009,-0.004 -0.0172,-0.008 -0.026,-0.012 -0.0401,-0.01733 -0.0916,-0.01333 -0.1224,-0.04267 -0.13746,-0.128 -0.38546,-0.184 -0.47346,-0.326667 -0.0615,-0.09733 -0.0353,-0.205333 0.0177,-0.298666 0.0317,-0.05733 0.0303,-0.125333 0.14587,-0.14 0.0869,-0.01067 0.41093,0.028 0.50413,0.0093 0.0932,-0.02 0.24427,-0.09467 0.31507,-0.118666 0.0709,-0.024 0.36573,-0.096 0.4948,0.03733 0.0365,0.03733 0.15106,0.105333 0.20626,0.125333 0.0547,0.02 0.0656,-0.04267 0.0959,-0.03867 0.0593,0.0067 0.19013,0.01867 0.27453,0.04533 0.0843,0.02667 0.23907,-0.01333 0.2552,0.169333 0.0109,0.124 -0.10946,0.182667 -0.0833,0.269333 0.0119,0.04133 0.0609,0.07467 0.0952,0.168 0.0511,0.133334 0.1568,0.358667 0.12093,0.477334 -0.0437,0.144 -0.2412,0.176 -0.29173,0.252 -0.0932,0.136 -0.0651,0.353333 -0.0744,0.568 -0.009,0.214666 -0.0735,0.687993 -0.0355,0.757333 0.0385,0.068 0.0219,0.22533 0.004,0.31466 -0.0177,0.092 -0.11774,0.15734 -0.25627,0.168 -0.0995,0.008 -0.28013,-0.02 -0.4328,-0.0307 -0.0599,-0.004 -0.12133,-0.0253 -0.16293,-0.009 -0.14747,0.0547 -0.34387,0.024 -0.42454,0.0267 -0.0531,0.001 -0.17453,0.0573 -0.2464,0.0453 -0.0995,-0.0173 -0.0963,-0.23333 -0.0577,-0.348"
         style="fill:#125582;fill-opacity:1;fill-rule:evenodd;stroke:none;stroke-width:0.133;stroke-dasharray:none" />
      <path
         id="path27"
         d="m 185.32023,86.358666 c 0,0 0.25934,0.121334 0.31814,0.221334 0.0391,0.06667 0.248,0.632 0.286,0.728 0.0391,0.1 0.2568,0.176 0.3724,0.412 0.0812,0.166666 0.0797,0.390666 0.12453,0.597333 0.0353,0.16 0.12187,0.318667 0.1504,0.393333 0.11147,0.290667 0.17453,1.093334 -0.0385,1.189334 -0.0791,0.036 -0.24734,-0.06 -0.3656,-0.03867 -0.1968,0.036 -0.47707,0.06667 -0.62134,0.08 -0.23066,0.01867 -0.374,0.176 -0.55933,0.129333 -0.186,-0.04533 -0.25987,-0.112 -0.22867,-0.304 0.0317,-0.192 0.36454,-1.041333 0.4052,-1.452 0.0864,-0.874666 0.18174,-1.570666 0.1568,-1.956 z m -6.1532,-3.585333 c 0.12507,0.06667 0.274,0.238667 0.45267,0.268 0.17867,0.02933 1.64373,0.282667 2.29733,0.245334 0.65427,-0.036 0.8896,-0.0067 1.04534,-0.03467 0.15573,-0.028 0.5104,0.03733 0.7448,-0.284 0.2344,-0.32 0.712,-1.018667 0.86453,-1.336 0.1532,-0.316 0.32347,-0.784 0.386,-0.965333 0.062,-0.181334 0.12653,-0.552 0.0255,-0.834667 0,0 -0.0296,-0.3 0.1016,-0.418667 0.1308,-0.118666 0.3792,-0.14 0.44066,-0.208 0.0333,-0.03733 0.0891,-0.05733 0.1432,-0.052 0.0333,0.004 0.0771,0.03067 0.0901,0.03867 0.0271,0.016 0.0437,0.052 0.0489,0.06533 0.0297,0.07067 0.16667,0.402667 0.2912,0.614667 0.13747,0.234667 0.50253,0.868 0.53693,1.009333 0.0339,0.142667 0.0735,0.382667 -0.0656,0.593334 0,0 -0.14893,0.16 -0.2344,0.282666 -0.0849,0.122667 -0.0375,0.350667 -0.186,0.398667 -0.1484,0.04667 -0.4728,0.242667 -0.5692,0.390667 -0.0964,0.150666 -0.1724,0.325333 -0.19946,0.425333 -0.0276,0.1 -0.0527,0.232 -0.0527,0.232 0,0 0.0808,0.036 0.2172,0.01467 0.13693,-0.02 0.4136,0.0027 0.55573,-0.032 0.0713,-0.016 0.30734,0.004 0.51614,-0.048 0.1256,-0.032 0.21146,-0.134667 0.32973,-0.16 0.0807,-0.01867 0.16507,0.0013 0.2244,-0.01467 0.0803,-0.02267 0.15627,-0.02267 0.20573,-0.03867 0.0641,-0.02133 0.0943,-0.06 0.136,-0.09067 0.0692,-0.052 0.0645,-0.126667 0.0531,-0.198667 -0.006,-0.04 -0.0203,-0.092 -0.0432,-0.14 -0.0197,-0.04267 -0.0287,-0.108 -0.0563,-0.161333 -0.0104,-0.02133 -0.0129,-0.03333 -0.005,-0.048 l 0.0147,-0.03067 c 0.0124,-0.01867 0.0364,-0.02 0.0552,-0.0067 0.05,0.03867 0.20667,0.162667 0.26147,0.256 0.0651,0.112 0.2744,0.38 0.30826,0.498667 0.0333,0.12 -0.0411,0.201333 -0.12546,0.212 -0.06,0.008 -0.29854,0.028 -0.53134,0.064 -0.0963,0.01467 -0.21293,0.024 -0.2708,0.04933 -0.1052,0.048 -0.2692,0.08533 -0.4224,0.193334 -0.13586,0.09467 -0.22973,0.242666 -0.3812,0.281333 -0.32346,0.08267 -0.80733,0.076 -0.96146,0.137333 -0.15414,0.06133 -0.45627,0.169334 -0.62614,0.304 -0.1692,0.133333 -0.264,0.316 -0.36813,0.334667 -0.10373,0.01867 -0.36773,0.225333 -0.4568,0.281333 -0.088,0.05733 -0.29173,0.416 -0.47133,0.610667 -0.1792,0.193333 -0.438,0.608 -0.48494,0.716 -0.0464,0.108 -0.20733,0.290666 -0.3364,0.442666 -0.1292,0.152 -0.386,0.376 -0.82453,0.393334 0,0 -0.3396,-0.004 -0.54013,0.05333 -0.2,0.05733 -0.40147,0.1 -0.56347,0.141333 -0.16147,0.04267 -0.47133,0.132 -1.19227,-0.084 -0.72026,-0.216 -0.8624,-0.293333 -1.25466,-0.382666 -0.34267,-0.07867 -0.95627,-0.237334 -1.10467,-0.276 -0.0573,-0.01467 0.006,-0.157334 0.0917,-0.14 0.0656,0.01333 0.19427,0.03733 0.3432,0.04667 0.2172,0.01333 0.81974,-0.124 1.30827,-0.185333 0.48853,-0.06 1.02973,-0.128 1.36253,-0.272 0.3328,-0.142667 1.176,-0.321333 1.48227,-0.476 0.30627,-0.154667 0.76147,-0.692 0.81987,-0.826667 0,0 -0.005,-0.209333 -0.18814,-0.193333 -0.18226,0.01733 -0.92333,0.144 -1.1656,0.150667 -0.24266,0.0067 -0.402,-0.02933 -0.8364,0.05333 -0.43546,0.08267 -0.73026,0.210667 -0.95053,0.02 -0.22027,-0.190667 -0.32547,-0.428 -0.488,-0.753333 -0.0891,-0.178667 -0.238,-0.509333 -0.26413,-0.765333 -0.008,-0.08133 0.0469,-0.130667 0.12093,-0.194667 0.0744,-0.064 0.2208,-0.233333 0.34573,-0.166667"
         style="fill:#125582;fill-opacity:1;fill-rule:evenodd;stroke:none;stroke-width:0.133;stroke-dasharray:none" />
      <path
         id="path28"
         d="M 77.037902,271.76933 H 68.000928 V 271.156 c 1.106775,0.04 1.617708,-0.30934 1.536455,-1.04534 v -7.49733 c 0.08125,-0.73733 -0.42968,-1.08533 -1.536455,-1.04667 v -0.61333 h 5.716668 v 0.61333 c -1.106253,-0.0387 -1.617707,0.30934 -1.536453,1.04667 v 7.436 c -0.0422,0.73733 0.30676,1.064 1.043226,0.984 1.557813,-0.124 2.643747,-1.272 3.259893,-3.444 h 0.67344 z m 5.522867,0 H 78.257702 V 271.156 c 0.860414,-0.12267 1.515627,-0.8 1.966667,-2.02934 l 3.5036,-8.35733 h 0.8 l 4.056266,9.34133 c 0.244267,0.69734 0.737467,1.04534 1.474,1.04534 v 0.61333 H 84.404636 V 271.156 h 0.613466 c 0.6552,0.04 0.962534,-0.144 0.923467,-0.55334 0,-0.084 -0.02133,-0.24666 -0.0636,-0.492 0.04227,0.164 0.02133,0.12267 -0.05987,-0.124 l -0.8,-1.78 h -3.440666 l -0.492667,1.22667 c -0.123467,0.204 -0.204667,0.532 -0.246867,0.98267 0.0422,0.49333 0.349,0.74 0.9234,0.74 h 0.799467 z m 2.090133,-4.42533 -1.416133,-3.31734 -1.35,3.31734 z m 6.1396,-5.77734 v -0.61333 h 3.8104 l 5.287067,7.37333 h 0.05987 V 262.796 c 0.0812,-0.69734 -0.471866,-1.10667 -1.659866,-1.22934 v -0.61333 h 3.933727 v 0.61333 c -1.0228,0.12267 -1.49466,0.532 -1.41346,1.22934 v 8.97333 h -1.473467 l -6.024,-8.36 h -0.0624 v 6.70133 c -0.123467,0.736 0.492666,1.08534 1.8432,1.04534 v 0.61333 H 90.850902 V 271.156 c 1.1068,0.04 1.618267,-0.30934 1.537067,-1.04534 v -7.49733 c 0.0812,-0.73733 -0.4516,-1.08533 -1.597467,-1.04667 z m 21.197468,6.02267 -0.06,4.18 h -8.4208 v -0.8 l 5.65413,-9.28 h -1.04627 c -2.25266,0.0427 -3.44066,1.04667 -3.56413,3.01333 h -0.67653 l 0.12347,-3.74933 h 7.93013 V 262.06 l -5.47027,8.97333 c 2.9896,0.12267 4.60733,-1.02667 4.8536,-3.444 z m 5.7708,-1.84267 h 3.50306 v -3.13333 c 0.0423,-0.73733 -0.4088,-1.08533 -1.35306,-1.04667 v -0.61333 h 5.53333 v 0.61333 c -1.1068,-0.0387 -1.61827,0.30934 -1.53707,1.04667 v 7.49733 c -0.0812,0.736 0.43027,1.08534 1.53707,1.04534 v 0.61333 h -5.53333 V 271.156 c 0.94426,0.04 1.39533,-0.30934 1.35306,-1.04534 v -3.688 h -3.50306 v 3.688 c -0.0423,0.736 0.4088,1.08534 1.35306,1.04534 v 0.61333 h -5.4708 V 271.156 c 1.06454,0.04 1.55787,-0.30934 1.474,-1.04534 v -7.49733 c 0.0839,-0.73733 -0.40946,-1.08533 -1.474,-1.04667 v -0.61333 h 5.4708 v 0.61333 c -0.94426,-0.0387 -1.39533,0.30934 -1.35306,1.04667 z m 9.15,0.61334 c 0.36973,-3.39867 2.21346,-5.26267 5.53333,-5.59067 3.2776,0.36667 5.10053,2.232 5.47027,5.59067 -0.3276,3.36133 -2.15307,5.184 -5.47027,5.46933 -3.35947,-0.28533 -5.20573,-2.108 -5.53333,-5.46933 z m 2.95,0 c 0,3.23866 0.86293,4.856 2.58333,4.856 1.67813,0.0427 2.52027,-1.57867 2.52027,-4.856 0,-3.27867 -0.84214,-4.896 -2.52027,-4.85334 -1.7204,0 -2.58333,1.61734 -2.58333,4.85334 z m 9.45986,-5.40667 h 5.53067 v 0.61333 c -1.14627,-0.0387 -1.678,0.30934 -1.5968,1.04667 v 6.452 c 0.0812,1.312 0.81827,2.028 2.21307,2.15067 1.80146,0 2.7036,-0.90134 2.7036,-2.704 v -5.716 c 0.12346,-0.69734 -0.45107,-1.10667 -1.72027,-1.22934 v -0.61333 h 3.99427 v 0.61333 c -1.0652,0.12267 -1.5584,0.532 -1.474,1.22934 v 5.59333 c 0,2.29467 -1.37454,3.44 -4.11987,3.44 -2.66133,-0.0387 -4.01453,-1.04267 -4.05667,-3.00933 v -6.20667 c 0.0833,-0.73733 -0.40946,-1.08533 -1.474,-1.04667 z m 20.05627,0 h 5.5312 v 0.61333 c -1.14627,-0.0387 -1.67867,0.30934 -1.59733,1.04667 v 6.452 c 0.0812,1.312 0.81826,2.028 2.21346,2.15067 1.80107,0 2.7032,-0.90134 2.7032,-2.704 v -5.716 c 0.12347,-0.69734 -0.45053,-1.10667 -1.71986,-1.22934 v -0.61333 h 3.99373 v 0.61333 c -1.06453,0.12267 -1.55773,0.532 -1.47387,1.22934 v 5.59333 c 0,2.29467 -1.37453,3.44 -4.11933,3.44 -2.662,-0.0387 -4.01507,-1.04267 -4.0572,-3.00933 v -6.20667 c 0.0843,-0.73733 -0.40893,-1.08533 -1.474,-1.04667 z m 12.10307,0.61333 v -0.61333 h 3.8104 l 5.28706,7.37333 h 0.0599 V 262.796 c 0.0812,-0.69734 -0.47187,-1.10667 -1.65987,-1.22934 v -0.61333 h 3.93387 v 0.61333 c -1.02293,0.12267 -1.4948,0.532 -1.4136,1.22934 v 8.97333 h -1.474 l -6.02333,-8.36 h -0.0631 v 6.70133 c -0.12347,0.736 0.4932,1.08534 1.84373,1.04534 v 0.61333 h -4.24066 V 271.156 c 1.1068,0.04 1.61773,-0.30934 1.53653,-1.04534 v -7.49733 c 0.0812,-0.73733 -0.45053,-1.08533 -1.59693,-1.04667 z m 18.55426,10.20267 H 184.3181 V 271.156 c 1.10413,0.04 1.61773,-0.30934 1.53387,-1.04534 v -7.49733 c 0.0839,-0.73733 -0.42974,-1.08533 -1.53387,-1.04667 v -0.61333 h 5.71413 v 0.61333 c -1.10626,-0.0387 -1.61773,0.30934 -1.53653,1.04667 v 7.49733 c -0.0812,0.736 0.43027,1.08534 1.53653,1.04534 z m 1.102,-10.20267 v -0.61333 h 5.22454 v 0.61333 c -1.0256,-0.0387 -1.498,0.16534 -1.4136,0.616 -0.12347,-0.16533 0.5532,2.02667 2.02706,6.576 h 0.0625 c 0.0817,-0.24666 0.20466,-0.59466 0.36773,-1.04533 1.51507,-3.976 2.13173,-5.736 1.8432,-5.28667 0,-0.572 -0.43013,-0.86 -1.29013,-0.86 v -0.61333 h 3.56573 v 0.61333 c -0.77867,0.084 -1.25053,0.42934 -1.41573,1.04667 l -3.38014,9.156 h -1.29013 l -2.95,-9.096 c -0.20467,-0.81867 -0.65573,-1.188 -1.35107,-1.10667 z m 20.64174,-0.61333 0.124,3.872 h -0.67734 c -0.57066,-2.08933 -1.80133,-3.136 -3.68666,-3.136 -0.94134,-0.0813 -1.372,0.24667 -1.29067,0.984 v 3.07333 c 1.35333,0.12267 2.172,-0.49066 2.45733,-1.844 h 0.616 v 4.36267 h -0.616 c -0.28533,-1.352 -1.104,-1.96533 -2.45733,-1.84267 v 3.62667 c -0.0413,0.69467 0.388,1.02267 1.29067,0.984 2.048,-0.0427 3.35866,-1.17067 3.93333,-3.38 h 0.676 l -0.12267,4.116 H 202.0653 V 271.156 c 1.10667,0.04 1.61867,-0.30934 1.53733,-1.04534 v -7.49733 c 0.0813,-0.73733 -0.43066,-1.08533 -1.53733,-1.04667 v -0.61333 z m 12.16666,8.42 h 0.61334 c 0,1.63867 -0.75867,2.456 -2.27334,2.456 -1.55733,0.0427 -2.336,-0.81733 -2.336,-2.58 0.12267,-1.84267 -0.512,-2.724 -1.904,-2.64267 v 3.256 c -0.124,0.94534 0.388,1.37467 1.536,1.29334 v 0.61333 H 213.9853 V 271.156 c 1.10667,0.04 1.61733,-0.30934 1.536,-1.04534 v -7.49733 c 0.0813,-0.73733 -0.42933,-1.08533 -1.536,-1.04667 v -0.61333 h 5.53067 c 2.62133,0.0413 3.95466,1.004 3.996,2.88933 -0.0413,1.67734 -1.31067,2.53734 -3.812,2.58 v 0.06 c 1.476,0.124 2.39866,0.90267 2.76666,2.33734 0.36934,1.35333 0.676,1.924 0.92267,1.72 0.32667,0.0413 0.51067,-0.34934 0.55333,-1.16667 z m -5.9,-6.76 v 3.37867 c 1.924,0.04 2.848,-0.676 2.764,-2.14934 -0.04,-1.35333 -0.61466,-2.072 -1.72133,-2.15333 -0.69733,0 -1.04267,0.30667 -1.04267,0.924 z m 8.22934,9.156 v -4.18 h 0.676 c 0.656,2.376 1.80133,3.58533 3.44133,3.62667 1.31067,-0.0413 1.98667,-0.63467 2.02667,-1.78267 0,-0.69467 -0.86,-1.32933 -2.58,-1.904 -2.336,-0.82 -3.504,-1.88533 -3.504,-3.19733 0.12266,-2.252 1.35333,-3.44 3.68666,-3.56267 0.78,0 1.51867,0.204 2.21467,0.61333 0.24533,0.124 0.408,0.184 0.492,0.184 0.16267,0 0.328,-0.14133 0.49067,-0.43066 0.0427,-0.08 0.0813,-0.14134 0.12266,-0.18267 h 0.61334 v 3.74933 h -0.61334 c -0.57333,-2.08933 -1.596,-3.15466 -3.072,-3.196 -1.188,0.0413 -1.80266,0.55334 -1.844,1.536 0,0.73734 0.83867,1.37067 2.52,1.904 2.41734,0.77867 3.62667,1.92667 3.62667,3.44267 -0.124,2.09067 -1.392,3.236 -3.81067,3.44 -0.86,0 -1.72266,-0.16133 -2.58266,-0.48933 -0.28534,-0.124 -0.49067,-0.184 -0.61467,-0.184 -0.204,0 -0.408,0.184 -0.61333,0.55333 -0.0413,0.04 -0.0627,0.06 -0.0627,0.06 z m 15.97066,0 h -5.71466 V 271.156 c 1.10533,0.04 1.61866,-0.30934 1.53466,-1.04534 v -7.49733 c 0.084,-0.73733 -0.42933,-1.08533 -1.53466,-1.04667 v -0.61333 h 5.71466 v 0.61333 c -1.10667,-0.0387 -1.61733,0.30934 -1.536,1.04667 v 7.49733 c -0.0813,0.736 0.42933,1.08534 1.536,1.04534 z m 1.46933,-10.816 h 10.14134 l 0.0627,3.80933 h -0.73733 c -0.49333,-2.048 -1.51867,-3.07333 -3.07333,-3.07333 v 8.42133 c -0.084,0.736 0.49066,1.08534 1.72,1.04534 v 0.61333 h -6.14667 V 271.156 c 1.312,0.04 1.90667,-0.30934 1.784,-1.04534 v -8.42133 c -1.55867,0 -2.58,1.02533 -3.07333,3.07333 H 243.652 Z m 11.12,0.61333 v -0.61333 h 5.224 v 0.61333 c -0.81866,0 -1.23066,0.16534 -1.23066,0.49334 0,0.12266 0.084,0.348 0.24666,0.676 0.0413,0.0813 0.064,0.14133 0.064,0.184 l 1.656,3.13333 1.47734,-2.95067 c 0.16266,-0.36666 0.24666,-0.65466 0.24666,-0.86 0,-0.45066 -0.452,-0.676 -1.35333,-0.676 v -0.61333 h 3.996 v 0.61333 c -0.944,0.084 -1.51867,0.45067 -1.72267,1.10667 l -2.27333,4.60933 v 2.828 c -0.0813,0.736 0.49333,1.08534 1.72,1.04534 v 0.61333 h -6.024 V 271.156 c 1.312,0.04 1.90667,-0.30934 1.784,-1.04534 v -2.888 l -2.028,-3.93333 c -0.532,-1.22933 -1.12667,-1.804 -1.78267,-1.72267"
         style="fill:#231f20;fill-opacity:1;fill-rule:nonzero;stroke:none;stroke-width:0.133;stroke-dasharray:none" />
      <path
         id="path29"
         d="m 120.1441,214.00533 c -0.0119,-0.30667 0.83653,-0.112 1.45053,-0.104 0.24014,0.003 0.76307,0.0107 0.8808,0.056 0.4224,0.16133 0.56254,0.20667 1.3104,0.92267 0.74787,0.71466 1.23547,1.23466 1.788,1.20266 0.5532,-0.032 1.1084,-0.0427 1.2708,-0.17333 0.16254,-0.12933 0.388,-0.54133 0.68027,-0.932 0.29267,-0.39067 0.69213,-0.67333 0.91973,-1.22533 0.2276,-0.55334 0.36934,-1.036 0.56414,-1.26267 0.19533,-0.228 1.31253,-1.324 1.73493,-1.42 0.42227,-0.0973 2.5036,-0.22133 4.71453,0.49333 0,0 0.65054,0.456 0.58547,1.04134 -0.0652,0.58533 -0.16307,2.308 -0.13027,2.568 0.0328,0.26 0.0651,0.488 0.52027,0.78 0.4552,0.29333 1.04067,0.52133 1.788,-0.12934 0.748,-0.65066 1.85373,-1.528 2.37347,-2.04933 0.5208,-0.52 1.04066,-1.20267 1.3656,-1.69067 0.32506,-0.48666 0.68293,-1.42933 1.17093,-1.75466 0.48747,-0.32534 1.04,-0.65067 2.08067,-0.42267 1.04066,0.22667 1.69066,0.38933 2.14586,0.52 0.4552,0.13067 0.9104,0.488 0.9104,0.488 0,0 0.32507,0.42133 0.25987,1.00667 -0.0651,0.58666 -0.1948,1.204 -0.13013,1.39866 0.0651,0.19467 0.78066,1.69067 2.17866,1.59334 0,0 0.58534,0 0.78014,-0.0973 0.19533,-0.0973 0.6828,-0.456 1.33333,-1.33333 0.65,-0.87733 0.94267,-1.49467 1.4308,-2.11333 0.48747,-0.61734 1.3656,-2.048 2.2104,-2.73067 0.84573,-0.68267 1.30053,-0.84533 1.75627,-1.13867 0.45466,-0.292 1.7228,-0.90933 2.4708,-0.87733 1.77653,0.0773 2.488,1.08 3.9344,2.14533 0.6172,0.456 1.0728,0.976 1.17026,1.268 0.0973,0.29334 0.13027,0.52134 -0.0323,0.65067 -0.16307,0.13067 -1.1708,2.14533 -2.374,3.15333 0,0 -0.39014,0.65067 -0.48747,0.976 -0.098,0.32534 -0.0328,0.97467 -0.2276,1.39867 -0.19533,0.42133 -0.29173,1.268 -0.2604,1.94933 0.006,0.12667 -0.18027,0.28934 -0.27667,0.63067 -0.1224,0.43867 -0.15666,1.11467 -0.1004,1.72533 0.0561,0.60934 0.0192,1.41867 0.0755,2.01467 0.0271,0.28667 0.23747,0.52133 0.27867,0.82533 0.0531,0.38934 -0.0693,0.84934 -0.1344,1.21734 0,0 -0.0937,0.348 -0.24014,0.61466 -0.18746,0.34534 -0.49373,0.66134 -0.60053,1.01867 -0.13067,0.43733 -0.35467,0.732 -0.2224,1.19733 0.0595,0.212 0.47347,0.528 0.6172,0.84934 0.48493,1.084 0.88907,3.96266 0.39747,5.00133 -0.348,0.736 -1.89894,1.27333 -2.34534,1.72133 -0.44693,0.44534 -2.00413,2.188 -2.70626,2.316 -0.70107,0.12667 -1.97707,-0.128 -2.2964,-0.51066 -0.31867,-0.38267 -0.63747,-1.276 -0.63747,-1.276 l -1.0208,-0.892 -1.1484,-0.19334 c 0,0 0.064,-0.50933 0.38333,-0.828 0.31867,-0.31866 0.63747,-0.89333 1.02027,-1.78666 0.3828,-0.892 0.7656,-3.63467 0.7656,-5.10267 0,0 0.574,-1.65867 0.7656,-2.93467 0.1912,-1.27466 0,-3.31733 0.3188,-4.27333 0.3188,-0.95733 0.8932,-1.97733 1.02027,-2.296 0.12813,-0.31867 0.8932,-2.10533 0.8292,-3.12667 -0.0636,-1.02 -0.4464,-1.33866 -0.8292,-1.40266 -0.3828,-0.064 -0.89267,0.51066 -1.27547,0.95733 -0.3828,0.44533 -1.7224,1.46667 -2.1688,3.636 0,0 -0.2552,1.02 0.1276,1.27467 0.38227,0.256 0.8292,0.82933 0.8292,1.21333 0,0.38133 -0.1912,1.78533 -0.31933,2.104 -0.1276,0.31867 -0.70094,1.46667 -1.21187,1.59467 -0.51,0.128 -1.148,-0.19067 -1.786,-0.70134 -0.63747,-0.51066 -1.40307,-0.38266 -1.5948,-1.02 -0.19107,-0.63866 -0.8292,-1.02133 -0.63747,-2.04133 0.19107,-1.02133 0.19107,-1.02133 0.4464,-1.66 0.2552,-0.63733 0.1276,-1.53067 0,-1.912 -0.1276,-0.384 -0.574,-0.384 -0.574,-0.384 0,0 -0.638,1.34 -1.0208,1.59467 -0.3828,0.256 -0.7016,1.532 -0.9568,2.488 -0.2552,0.95733 -0.574,1.59466 -0.8932,2.36 -0.3188,0.76533 -0.2552,2.744 -0.1912,3.25333 0.064,0.51067 0.3188,3.892 -0.4464,4.848 -0.7656,0.95733 -1.276,1.91467 -1.914,2.488 -0.63746,0.57333 -2.93386,0.19067 -2.93386,0.19067 0,0 -1.0208,-0.892 -0.95734,-2.424 0.0641,-1.53067 -0.19106,-2.93334 0.0641,-3.76267 0.2552,-0.82933 0.7656,-2.424 1.02026,-3.18933 0.2552,-0.76534 0.95734,-2.29734 1.34014,-2.99867 0.38226,-0.70133 1.0844,-1.65733 1.27546,-2.232 0.1912,-0.57467 0.574,-1.72267 0,-1.78667 0,0 -0.702,0.064 -1.40306,1.148 -0.70214,1.08534 -1.276,1.85067 -1.4672,2.424 -0.19174,0.57467 -1.4672,1.404 -2.2328,1.02134 0,0 -0.8292,-0.38267 -1.4032,-0.31867 -0.5744,0.064 -0.8296,1.212 -0.95667,1.72267 -0.1276,0.50933 -0.63813,5.16666 -1.14853,6.44133 -0.5104,1.276 -3.44427,4.976 -4.59267,5.55067 0,0 -1.78587,0.50933 -2.6792,0.70133 -0.89267,0.19067 -1.4036,-0.51067 -1.4036,-0.51067 0,0 -1.5308,-1.65866 -1.84947,-2.04133 -0.31933,-0.38267 -0.1276,-1.148 -0.3828,-1.91467 -0.2552,-0.764 0.0635,-1.01866 0.5104,-1.27466 0.4464,-0.25467 1.9776,-0.76534 1.9776,-0.76534 0,0 3.18907,-2.616 3.76307,-4.46533 0.5744,-1.84933 1.91347,-4.40133 1.7224,-5.61333 -0.1912,-1.212 -0.2048,-2.69334 -0.9704,-2.94667 -0.61507,-0.20533 -1.0916,-0.22667 -1.56827,-0.048 -0.21666,0.0827 -0.45413,0.16667 -0.66813,0.364 -0.0417,0.0373 -0.0891,0.076 -0.11147,0.12933 -0.20466,0.48267 -0.76413,0.78 -0.76413,0.78 0,0 -0.23173,0.892 -0.4864,1.33867 -0.2552,0.44667 -0.40627,1.65867 -0.2792,2.488 0.0917,0.596 0.14587,1.50267 -0.17133,1.99733 -0.124,0.192 -0.49694,0.228 -0.65787,0.29867 -1.7744,0.78933 -2.50413,2.71867 -4.01867,0.44667 -0.5104,-0.76534 -1.2756,-1.34 -1.2756,-1.34 0,0 -0.34426,-0.38534 -0.5104,-2.04134 -0.30413,-3.02133 0.86254,-1.25466 1.224,-2.67866 0.0989,-0.39067 0.5088,-1.01334 0.55734,-1.608 0.0213,-0.27067 -0.15107,-0.716 -0.25054,-0.816 -0.3188,-0.31867 -0.75946,-0.59867 -0.77613,-1.02667"
         style="fill:#231f20;fill-opacity:1;fill-rule:evenodd;stroke:none;stroke-width:0.133;stroke-dasharray:none" />
      <path
         id="path30"
         d="m 238.21197,237.152 c 0.54,-0.48 1.68,-1.56 2.58133,-2.34134 0.9,-0.78 2.10133,-1.62133 3.90133,-1.62133 0,0 0.6,1.68133 0.96,2.28267 0.36133,0.59866 0.90133,1.32 0.54,3.54 -0.35867,2.22266 -0.47867,1.92133 -0.47867,1.92133 0,0 -0.48133,0.6 -2.76133,1.14 -2.28133,0.54133 -3.12133,0.60133 -4.38266,0.78133 -1.26,0.18 -2.64134,-0.06 -2.64134,-0.06 0.768,1.07467 0.76534,0.62667 1.92134,1.14 0.54,0.24 3.06133,0.6 3.84133,0.78134 0.78,0.18 1.38133,0.54 1.98133,1.02 0.6,0.48 2.10133,1.98133 3.54133,2.22133 0,0 2.28134,-0.0613 2.82134,-0.54133 0.54,-0.47867 1.56133,-1.8 1.56133,-1.8 0,0 2.52,-2.52134 2.16,-4.92267 -0.35867,-2.4 -0.72,-2.70133 -1.26,-4.32267 -0.54,-1.62 -1.41333,-3.69333 -0.69333,-4.71333 0,0 1.25733,-0.896 1.68533,-1.376 0.428,-0.48 1.01733,-1.16933 1.07733,-1.52933 0.0347,-0.208 0.0507,-0.9 -0.18,-1.352 -0.252,-0.48934 -0.596,-0.42667 -0.85733,-0.52534 -0.64533,-0.24266 -0.44,-0.99733 -0.86,-2.01733 0,0 -1.13333,-0.55067 -2.03333,-0.55067 -0.9,0 -1.62134,-0.06 -3.12134,0.9 -1.5,0.96134 -3.36133,1.44 -5.88266,2.64 -2.52133,1.20134 -5.58267,2.88267 -7.324,3.36267 0,0 -1.56,1.08133 -2.94,1.32 -1.424,0.248 -3.02133,-0.74133 -3.78267,0.78133 -0.18,0.36 0.18,0.6 0.18,0.6 0,0 1.26134,1.56134 2.28134,2.10134 1.89733,1.004 2.98,3.392 5.40266,2.46133 0.96,-0.60133 2.22,-0.84133 2.76134,-1.32133 z m -1.01867,-39.26667 c 0,0 0.39333,4.91733 0.39333,6.16267 0,1.24666 0.132,6.164 0.19734,6.82 0.0653,0.65466 0.58933,1.77066 0.78666,2.688 0.19734,0.91733 0.33334,1.36266 0.59067,1.57333 0.25733,0.21067 0.71867,-0.19467 1.57333,-1.04933 0.412,-0.41067 0.97333,-0.54534 1.20133,-0.74667 0.0973,-0.0853 0.108,-0.172 0.228,-0.24533 l 1.21467,-0.736 c 0,0 0.52533,-0.39867 1.22267,-0.90534 0.47866,-0.34666 0.98533,-0.752 1.224,-1.03866 0.22133,-0.26667 0.356,-0.284 0.80933,-0.30134 1.288,-0.052 2.67333,1.05067 2.67333,1.05067 0.18267,0.15733 0.132,0.632 0.59734,0.56667 0.31066,-0.044 0.20266,-0.72134 0.59333,-1.04 0.268,-0.21734 0.85733,-0.16667 1.42933,-0.18934 1.152,-0.0467 1.38667,0.27467 1.95734,0.84534 0.32266,0.32133 0.548,0.716 0.58666,1.092 0.0587,0.564 -0.30533,0.912 -0.58666,1.30533 -0.32134,0.444 -0.58267,0.904 -0.81734,1.072 -0.44266,0.316 -1.34133,0.85867 -1.91066,0.98533 -0.184,0.04 -0.808,0.108 -1.524,0.27734 -0.92267,0.21866 -2.05467,0.57733 -3.208,0.96266 -0.74134,0.24667 -1.456,0.67734 -2.04534,0.91334 -2.216,0.88666 -6.96533,2.02533 -7.78933,2.34266 -0.82266,0.316 -3.48266,1.01334 -3.48266,1.01334 -0.76,0.696 0.25333,2.40666 0.57066,2.84933 0.316,0.444 0.82267,0.95067 1.076,1.26667 0.25334,0.31733 1.20267,0.44266 1.20267,0.44266 0,0 3.73733,-0.88533 4.49733,-1.13866 0.76,-0.25334 4.30667,-2.344 4.30667,-2.344 0.74,-0.848 1.348,-1.55467 2.08266,-2.016 1.40267,-0.88267 2.8,-0.98 3.17334,-1.27067 0.56933,-0.444 2.34266,-2.22267 2.34266,-2.22267 0,0 0.82267,-0.69733 1.14,-0.69733 0.316,0 0.88667,0.31733 1.20267,0.57067 0.31733,0.25333 0.064,1.45733 -0.37867,1.9 -0.444,0.444 -2.43733,1.55066 -2.43733,1.55066 0,0 -1.14,0.63334 -0.824,0.69734 0.31733,0.0627 4.27333,0.44266 4.65333,0.44266 1.17867,0 1.29867,0.072 2.724,-0.85466 1.26667,-0.88667 1.01334,-1.26534 0.88667,-2.02667 -0.12667,-0.75867 -1.64667,-3.48267 -2.15333,-3.92533 -0.89467,-0.784 -1.336,-0.99734 -1.07734,-1.70934 0,0 1.45734,-0.19066 1.83734,-0.19066 1.20666,0 1.44533,-1.11067 1.14,-2.02667 -0.548,-1.64133 -2.09867,-1.34 -1.06,-2.712 0.128,-0.168 0.144,-0.12667 0.34533,-0.19733 0.27867,-0.096 0.764,-0.352 1.22133,-1.01734 0.696,-1.01333 3.8,-5.06666 4.116,-5.31866 0.31734,-0.25467 1.39334,-1.39334 1.456,-1.71067 0.064,-0.31733 -0.316,-1.52 -0.94933,-2.08933 -1.34667,-1.21334 -0.456,-1.592 -1.97733,-1.31067 -0.488,0.088 -0.66,0.17733 -1.08667,0.436 -0.344,0.208 -0.816,0.48667 -1.30533,0.748 -0.95067,0.50667 -2.33867,0.97333 -2.724,1.20267 -2.02667,1.212 -2.40667,-0.088 -2.40667,-1.64667 0,-1.14667 0.30933,-1.316 -0.94933,-1.70933 l -1.13734,-0.15334 c -0.068,-0.009 -0.132,-0.0293 -0.15866,-0.0667 -0.032,-0.04 -0.0547,-0.15467 -0.0747,-0.24534 -0.0587,-0.27066 -0.10267,-0.748 -0.0227,-1.308 0.0667,-0.46933 0.184,-1.336 0.132,-2.04133 -0.0453,-0.624 -0.25866,-1.12533 -0.25866,-1.12533 0,0 -0.50667,-0.56934 -1.076,-0.82267 -0.57067,-0.25333 -1.268,-0.82533 -1.77467,-1.14 -0.21867,-0.13733 -0.37467,-0.30267 -0.54267,-0.41067 -0.10133,-0.0653 -0.30933,-0.12933 -0.4,-0.184 -0.51466,-0.31466 -0.65066,-0.17866 -0.624,0.352 0.008,0.14 0.10934,0.30534 0.10934,0.496 0,0.576 0.124,1.64134 -0.17334,2.152 -0.12533,0.21734 -0.24533,0.95467 -0.45866,1.488 -0.25334,0.63334 -0.76,0.98267 -0.88667,1.29867 -0.12667,0.31733 -0.696,0.824 -1.20267,1.01333 -0.316,0.11867 -1.30533,0.096 -1.92133,0.18 -0.25467,0.0347 -0.53333,0.076 -0.58933,0.188 -0.0333,0.0667 0.0853,0.15734 0.12933,0.288 l 0.51733,0.42667 c 0.472,0.28267 0.78667,0.49867 1.084,0.684 0.232,0.144 0.47334,0.21467 0.65334,0.63467 0.18933,0.44266 -0.50667,1.652 -0.82267,2.66533 -0.31733,1.01333 -2.12533,3.10133 -2.12533,3.10133 0.684,0.188 1.22266,-0.83066 1.65866,-1.30533 0.688,-0.74933 0.98667,-0.77867 1.49334,-0.968 0.50666,-0.19067 1.75866,-0.89067 2.26533,-1.33467 0.50667,-0.444 1.09733,-0.50666 1.09733,-0.50666 1.26,0.30666 0.86667,1.584 0.86667,1.584 0,0 -0.26933,0.90666 -1.00533,2.06933 -0.73467,1.16133 -1.56934,3.54933 -2.076,3.80133 -0.50534,0.25334 -2.14134,-0.53066 -2.14134,-0.53066 0,0 -1.152,-0.424 -1.19466,-0.20667 -0.23067,1.164 0.009,0.63067 0.464,1.2 0.25333,0.316 1.456,1.392 1.456,1.392 0.064,0.444 -0.90934,2.192 -1.22534,2.63467 -0.22133,0.30933 -1.12266,1.344 -1.79333,1.872 -0.15067,0.11866 -0.38933,0.25333 -0.53333,0.0333 -0.224,-0.344 -0.46134,-0.59867 -0.49467,-0.82667 -0.032,-0.228 -0.0547,-0.65866 -0.18266,-1.156 -0.076,-0.29866 -0.18267,-0.82266 -0.33067,-1.14 -0.392,-0.85333 -1.228,-5.376 -1.35867,-6.22933 -0.0893,-0.58533 -0.068,-2.18667 -0.232,-3.124 -0.0747,-0.428 -0.42266,-0.576 -0.42266,-0.67733 0,-0.32934 -0.52534,-1.05067 -0.52534,-1.05067 l -0.328,-0.392 z m 15.704,3.476 4.10533,0.11333 c 0.60533,0.0627 0.86267,0.472 0.89733,1.088 0.04,0.70534 -0.15466,1.856 -0.51066,2.87067 -0.204,0.58267 -0.3,1.22933 -0.74,1.63467 -0.5,0.46 -1.35067,0.64533 -1.62134,0.69866 -0.13066,0.0267 -1.47733,1.30667 -1.85333,1.00134 -0.22933,-0.18534 -0.90133,-1.076 -1.208,-1.396 -0.32533,-0.24 -1.29467,-0.892 -1.7,-1.27334 -0.0747,-0.0707 -0.644,-0.28666 -0.612,-0.512 0.0333,-0.224 1.812,-2.544 2.656,-3.81333 0.332,-0.49733 0.41733,-0.376 0.58667,-0.412 z m -21.35067,3.16667 c 0.53734,0.47333 2.13734,2.13066 2.4,2.316 0.3,0.21066 1.09467,0.0413 1.124,0.67466 0.0107,0.228 0.036,0.72 0.0613,1.29334 0.0453,1.02133 0.0947,2.296 0.0773,2.77866 -0.0133,0.34134 0.0907,1.08 0.0427,1.97067 -0.0453,0.876 -0.23467,1.89467 -0.43334,2.63333 -0.116,0.432 -0.10133,0.77334 -0.55733,0.252 -0.068,-0.0787 -0.136,-0.184 -0.196,-0.328 -0.24,-0.57333 -0.47733,-0.90533 -0.53867,-1.59866 -0.06,-0.69467 -0.46133,-1.48 -0.672,-2.17467 -0.21066,-0.69467 -0.14266,-1.992 -0.29333,-2.656 -0.14933,-0.664 -0.42,-1.02667 -0.66133,-1.75067 -0.14267,-0.43066 -0.37067,-1.552 -0.488,-2.43333 -0.06,-0.452 -0.0907,-0.86533 -0.0667,-1.028 0.0227,-0.152 0.14133,-0.003 0.20133,0.0507"
         style="fill:#231f20;fill-opacity:1;fill-rule:evenodd;stroke:none;stroke-width:0.133;stroke-dasharray:none" />
      <path
         id="path31"
         d="m 74.336862,221.36533 c 0,0 -1.531253,0.596 -2.412493,2.42667 -0.31876,0.664 -0.22604,1.86266 -0.656253,2.784 -0.49636,1.06133 -1.280213,1.82266 -1.864587,3.37333 -0.03333,0.088 -0.05416,0.536 -0.283333,1.144 -0.119267,0.31733 -0.486456,0.55067 -0.603643,0.97067 -0.08021,0.288 0.08802,0.75866 0.0099,1.024 -0.127083,0.42933 -0.441145,0.65733 -0.50052,1.02 -0.114063,0.69333 0.157292,1.4 0.635416,1.57866 0.538545,0.20134 1.484892,0.74267 2.430212,1.82267 0.42708,0.488 2.57968,1.02133 2.767187,0.26933 0.135413,-0.53866 0.337493,-1.21466 0.270306,-2.42933 -0.06771,-1.21467 -0.8776,-4.388 -0.675,-6.75067 0.20156,-2.36266 0.540107,-4.252 0.540107,-5.19733 0,-0.94533 0.342706,-2.036 0.342706,-2.036 z M 96.779035,229.16 c 0.271334,-0.0973 0.3808,0.328 0.8532,0.73866 0.303067,0.264 0.730134,0.44267 0.9448,0.672 0.243734,0.26 0.254134,0.75467 0.692667,1.34267 1.551068,2.08267 2.521338,3.19333 2.992668,5.20533 0,0 0.2656,1.568 -0.47133,2.51467 -0.73694,0.94667 -1.06094,0.91867 -1.35574,1.06533 -0.29533,0.148 -3.007865,-0.0587 -3.007865,-0.0587 0,0 -0.323866,-1.332 -0.323866,-2.04267 0,-0.70933 -0.444267,-4.60667 -0.5032,-5.02 -0.02293,-0.168 -0.454134,-0.89333 -0.496267,-1.61333 -0.05373,-0.90134 -0.0428,-1.98 0.02707,-2.33067 L 96.367035,229.308 Z M 83.238369,207.62933 c 0.569333,-0.26267 0.952133,-0.60267 1.394267,-0.91867 0.441733,-0.316 0.7948,-0.66 1.200533,-1.14 0.221867,-0.26266 0.390667,-0.75866 0.674,-1.09066 1.297466,-1.51467 3.375466,-3.44667 5.535466,-5.90267 0.3744,-0.42533 0.533334,-0.916 0.843734,-1.39467 0.2744,-0.42133 0.7036,-0.83466 0.9844,-1.18266 1.224933,-1.52667 2.1192,-1.98667 2.9916,-3.02134 1.1464,-1.35866 2.3292,-2.77066 2.638,-3.08 0.660401,-0.65866 1.266671,-1.13866 1.616131,-1.66266 0.34907,-0.524 0.87347,-0.74134 1.13494,-0.69734 0.262,0.044 0.52346,0.74134 0.52346,0.74134 0,0 1.0916,1.17866 1.30987,1.74533 0.21827,0.56933 0,1.224 0.0432,1.704 0.024,0.26267 0.21413,1.212 0.73333,1.79467 0.43027,0.48266 1.162,0.608 1.5376,0.82533 0,0 1.22027,0.0693 0.78907,0.81333 -0.43187,0.744 -0.7084,0.79334 -0.9464,0.844 -0.42867,0.0893 -0.7068,0.204 -0.99533,0.22267 -0.224,0.0147 -0.60214,-0.0227 -0.914,0.0293 -1.33387,0.224 -4.837605,0.65067 -7.801071,2.564 -0.681867,0.44 -1.418267,0.99067 -2.1724,1.51334 -0.624534,0.43333 -1.2672,0.824 -1.848934,1.32133 -0.769333,0.656 -1.6652,1.10533 -2.322933,1.816 -0.277067,0.30133 -0.490667,0.67333 -0.767733,0.904 -0.3568,0.29733 -0.775467,0.44133 -1.105734,0.72667 -0.401066,0.34533 -0.728666,0.656 -1.125066,0.94266 -0.454133,0.328 -1.031733,0.632 -1.5468,0.92667 -0.470267,0.268 -0.9636,0.492 -1.409333,0.76 -0.202134,0.12133 -0.364134,0.28267 -0.5636,0.408 -0.452134,0.22133 -0.603067,0.38133 -0.3912,0.9 0.108933,0.268 0.119333,0.32 0.4068,0.372 0.541733,0.0973 2.412533,-0.39333 4.677066,-1.62533 2.2652,-1.23067 4.185467,-2.264 4.185467,-2.264 0,0 1.9036,-1.23067 2.395866,-1.62534 0.492134,-0.39333 0.6396,-0.0987 0.6396,-0.0987 0,0 0.557734,0.492 0.4104,0.73866 -0.147466,0.24667 -0.196933,0.54134 -0.196933,0.54134 0,0 0.4432,0.88666 1.083333,1.18133 0.374,0.17333 0.95,-0.34 1.378667,-0.58933 0.590667,-0.34534 2.363068,-1.872 3.298398,-2.41334 0.54067,-0.312 1.424,-0.696 2.37707,-0.90666 0.69533,-0.15334 1.43907,-0.152 2.062,-0.276 1.47707,-0.29467 2.45373,-0.73734 3.43853,-0.98267 0.87093,-0.21733 1.99747,-0.62 2.3636,0.29467 0,0 0.29533,0.88666 0.0984,1.18133 -0.19733,0.296 -0.59107,0.936 -0.59107,1.47733 0,0.54134 -1.08333,3.10134 -1.2308,4.38134 -0.14786,1.28 -1.24893,12.31733 -1.04426,14.71866 0.20413,2.40134 0.0516,4.088 0,4.7 -0.0511,0.61334 0.15306,5.97734 0.15306,6.23334 0,0.25466 0.3068,9.96266 0.25574,11.036 -0.0509,1.07333 0.0199,3.83066 -0.0312,4.24 -0.0312,0.256 -0.003,2.416 -0.1,2.86933 -0.112,0.524 -0.59947,0.83067 -1.00627,0.92667 -1.08586,0.25866 -1.9572,0.53733 -2.1932,0.70666 -0.1656,0.11867 -1.4104,0.27467 -1.95053,0.26134 -0.34013,-0.007 -0.6916,-0.188 -0.87493,-0.46534 -0.23294,-0.348 -0.46667,-0.74666 -0.60107,-1.29866 -0.0756,-0.312 -0.32187,-0.76 -0.5688,-1.31734 -0.3172,-0.71733 -0.7,-1.61866 -1.39013,-2.65466 -1.534805,-2.30134 -2.174938,-3.28267 -2.380671,-3.60134 -0.100534,-0.15466 -0.102134,-0.19066 -0.1084,-0.38933 -0.014,-0.432 -0.109334,-1.3 0.118266,-1.33733 0.1308,-0.0227 0.960934,-0.0267 1.821865,-0.0213 0.6704,0.004 1.34587,-0.0587 1.74014,0.0427 0.13026,0.032 0.50213,0.43467 1.0036,0.896 0.45733,0.42133 0.9052,0.688 1.32813,0.66267 0.34853,-0.02 0.80467,0.33733 1.34173,0.0667 0.52027,-0.26133 0.2744,-0.73466 0.2744,-1.1 0,-0.25866 0.62094,-7.91333 0.5688,-9.98133 -0.0344,-1.372 -0.24066,-5.432 -0.28386,-8.62533 -0.0219,-1.61467 -0.002,-3.00934 0.10213,-3.72 0.30987,-2.12 0.44053,-6.012 0.59533,-6.83867 0.1556,-0.828 0.5176,-5.584 0.828,-6.72267 0.31,-1.13733 0.4776,-1.89866 0.5808,-2.20933 0.22867,-0.68667 0.0161,-1.296 -0.39373,-1.04267 -0.51093,0.316 -1.08133,0.35734 -1.61507,0.276 -0.83386,-0.13066 -1.35946,-0.73466 -1.7464,-0.78533 -0.7756,-0.104 -3.34226,0.96933 -3.70413,1.27867 -0.36147,0.31066 -1.809468,2.172 -2.481868,2.38 -0.6724,0.20666 -1.964533,0.672 -2.533333,0.46533 0,0 -0.259334,-0.36267 -0.5172,-0.776 -0.2588,-0.41333 -0.776,-0.87867 -1.4484,-0.87867 -0.671867,0 -2.119734,1.24134 -2.481734,1.65467 -0.361466,0.41333 -0.5172,0.87867 -0.5172,0.87867 0,0 1.447867,0.20666 2.016667,0.20666 2.832267,0 2.535467,-0.04 3.206267,2.58667 0,0 1.654666,-0.0533 2.223466,-0.25867 0.568667,-0.208 0.6724,0.62 0.6724,0.62 0,0 -0.0516,0.672 -0.258933,0.98267 -0.2068,0.31067 -1.757733,2.224 -2.482267,2.844 -0.723466,0.62 -0.930266,1.344 -0.930266,1.80933 0,0.46534 0.1548,0.82667 0.7756,0.88 0.620266,0.0507 1.447866,-0.36266 1.861466,1.39467 0,0 0.309867,0.932 0.05147,1.13867 -0.258267,0.20666 -1.136933,0.98133 -1.447867,1.18933 -0.3104,0.20667 -2.792666,3.30933 -3.671333,5.53333 0,0 -0.724,0.67067 0,3.82534 0.724,3.15466 0.776,4.08666 0.672933,4.5 -0.104133,0.41333 0.464534,2.53333 -2.586533,4.60133 0,0 -1.289067,1.08533 -2.529067,-0.82667 0,0 -0.778133,-1.036 -0.726666,-2.74133 0.0324,-1.06667 0.04693,-1.608 0.02147,-1.864 -0.02667,-0.26533 -0.07147,-0.21333 -0.344266,-0.192 -0.35,0.028 -0.932933,0.11733 -1.075067,0.40133 -0.2068,0.41467 -0.4136,1.34534 -0.5688,1.86134 -0.155733,0.51733 -1.138,1.86266 -1.706666,2.12 -0.3552,0.16266 -0.648,0.16266 -0.949067,-0.0733 -0.180667,-0.14133 -0.380133,-0.36933 -0.554667,-0.69866 -0.173866,-0.32934 -0.487466,-0.652 -0.5896,-0.95734 -0.1692,-0.508 -0.014,-0.96533 0.438134,-1.32133 0,0 0.6728,-0.82667 1.552,-1.65467 0.8792,-0.828 1.551066,-1.396 1.809866,-1.70533 0.257867,-0.31067 0.724534,-0.72533 0.8276,-1.13867 0.1032,-0.41333 0.05107,-2.74 0.05107,-3.20666 0,0 -0.258267,-0.516 -0.671867,-0.464 -0.414,0.052 -0.828133,0.15466 -0.930666,0.77466 -0.104267,0.62134 -0.2068,1.08534 -0.5688,1.08534 -0.362,0 -1.965067,-0.41334 -2.0172,-1.396 -0.052,-0.98267 0.05213,-2.016 0.776133,-2.688 0,0 1.447867,-0.672 2.533733,-1.65467 1.086,-0.98267 1.602667,-1.75867 1.6548,-2.43067 0.05147,-0.672 0.206133,-0.776 0.206133,-0.776 0,0 -1.240533,0.41334 -1.964533,0.932 -0.724533,0.516 -1.757866,1.55067 -2.326533,1.75734 -0.5688,0.20666 -0.9828,0.51733 -1.2932,0.36133 -0.3104,-0.15467 -0.6724,-0.15467 -1.603173,-1.344 -0.930734,-1.18933 -1.861454,-1.29333 -2.32708,-2.27467 -0.465627,-0.98266 0.10364,-1.18933 0.569266,-1.552 0.465107,-0.36266 2.378587,-0.41333 3.153654,-0.82666 0.776,-0.41467 2.585866,-1.13867 3.723466,-1.80934 1.138,-0.67333 3.051067,-1.86266 3.568667,-2.172 0.516666,-0.312 0.6724,-0.72533 0.6724,-0.72533 l 0.206266,-2.27467 c 0,0 -0.362,-0.31066 -1.396266,-0.36133 -1.033867,-0.052 -0.982934,-0.51867 -4.136533,0.51733 0,0 -1.5,0.51734 -2.482267,0.51734 -0.982267,0 -0.9308,-0.25867 -1.447933,-0.25867 -0.516667,0 -1.344787,-0.104 -1.861454,-0.208 -0.517706,-0.10267 -2.335413,-1.88267 -2.408853,-2.07867 -0.07344,-0.196 1.57552,-0.148 2.510933,-0.344 0.935414,-0.19733 1.92292,-0.39066 2.31464,-0.592 0.1348,-0.0693 0.288,-0.15066 0.4484,-0.284 0.2068,-0.172 0.3604,-0.32 0.5656,-0.40666 0.1808,-0.0773 0.265067,-0.096 0.466667,-0.092 0.2328,0.005 0.336533,0.0693 0.7312,-0.11467 z M 72.806663,200.828 c 0.766146,-0.26534 1.319786,-0.0667 2.432279,-0.47734 0.66772,-0.24666 1.082814,-0.528 1.756254,-0.82666 0.788546,-0.34934 1.602613,-0.56134 2.12032,-1.05734 0,0 0.30104,-0.284 0.78176,-0.58933 0.37396,-0.23733 0.911466,-0.416 1.153093,-0.94533 0.158933,-0.34934 0.0188,-0.79067 -0.126,-1.45467 -0.0093,-0.0453 -0.01973,-0.0893 -0.03067,-0.13333 -0.04955,-0.19867 -0.21152,-0.37734 -0.193293,-0.576 0.08073,-0.876 -0.42136,-1.956 -0.14948,-2.692 0.186973,-0.50667 0.65784,-0.71734 1.160373,-0.792 0.3016,-0.044 0.550534,-0.248 0.937067,0.14 0.289067,0.29066 1.074933,1.60133 1.414,1.89333 0.338533,0.29067 1.0536,0.632 1.343733,0.82667 0.290134,0.19466 1.403734,1.084 1.279734,1.94266 -0.0344,0.24134 0.04373,0.86267 0.128133,1.124 0.08493,0.26 0.3464,0.12267 0.418667,0.24267 0.143866,0.24267 0.473999,0.76 0.619333,1.14933 0.145866,0.38934 0.7364,0.84667 0.1084,1.42934 -0.4324,0.4 -0.9912,0.12 -1.242267,0.468 -0.113466,0.15866 -0.102533,0.43733 -0.344266,0.832 -0.350534,0.572 -0.880134,1.61333 -1.426534,1.82133 -0.659333,0.25067 -1.343733,-0.39067 -1.766666,-0.364 -0.774,0.048 -1.5,0.77733 -2.322934,1.36 -0.8224,0.58267 -2.757813,1.7 -2.903653,2.04 -0.144787,0.34 -0.77448,0.728 -1.161453,0.92133 -0.386987,0.19467 -0.919267,0.0173 -1.354174,-0.468 -0.313013,-0.348 -0.72916,-1.1 -1.13124,-1.69333 -0.157293,-0.23067 -0.251039,-0.52133 -0.427613,-0.63067 -0.62916,-0.38933 -1.07708,-1.20666 -1.319266,-1.49733 -0.159374,-0.192 -0.715107,-0.47867 -0.87604,-0.784 -0.22084,-0.416 0.585413,-1.02533 1.1224,-1.20933"
         style="fill:#231f20;fill-opacity:1;fill-rule:evenodd;stroke:none;stroke-width:0.133;stroke-dasharray:none" />
      <path
         id="path32"
         d="m 208.19197,226.78266 c 0,0 1.34533,0.0387 1.78266,0.35867 0.29334,0.21467 2.24534,2.26267 2.588,2.60533 0.35467,0.35334 1.43334,0.276 2.37067,1.07867 0.66,0.564 1.06933,1.532 1.64933,2.34 0.452,0.62933 1.11734,1.14533 1.38267,1.41733 1.02133,1.04534 2.78533,4.384 2.048,5.19467 -0.276,0.304 -1.18,0.20133 -1.648,0.51467 -0.78267,0.524 -1.932,1.176 -2.52933,1.49733 -0.95734,0.51467 -1.28267,1.456 -2.168,1.60267 -0.88534,0.148 -1.328,0 -1.55067,-0.884 -0.22,-0.88667 -0.36933,-5.16667 -0.95867,-7.01067 -1.25733,-3.92933 -2.14,-7.10267 -2.96666,-8.71467 z m -33.18534,-3.98933 c 0.66254,0.0547 1.624,0.51467 2.4484,0.308 0.82507,-0.20533 7.60734,-1.84267 10.35734,-3.21733 2.75,-1.37334 3.8172,-1.68534 4.436,-2.09734 0.61866,-0.41333 2.26813,-0.79333 2.68066,-2.61066 0.41254,-1.81734 1.16934,-5.71334 1.23747,-7.36267 0.0688,-1.65067 -0.0687,-3.988 -0.13747,-4.88133 -0.0687,-0.89334 -0.4812,-2.612 -1.4432,-3.644 0,0 -0.688,-1.23734 -0.34426,-1.99334 0.34426,-0.75466 1.376,-1.30533 1.51253,-1.71733 0.0733,-0.22267 0.27653,-0.412 0.52187,-0.48667 0.15146,-0.0467 0.39,-0.016 0.45933,-0.005 0.14693,0.02 0.28493,0.14667 0.3328,0.192 0.26093,0.252 1.46987,1.424 2.39787,2.104 1.0308,0.756 3.78066,2.80133 4.19266,3.35067 0.41334,0.55066 1.032,1.51333 0.82534,2.68133 0,0 -0.348,0.96267 -0.484,1.64933 -0.13867,0.688 0.488,1.58134 -0.0613,2.06267 -0.55066,0.48 -1.58533,1.924 -1.72266,2.74933 -0.13734,0.82534 -0.13734,1.71867 -0.0693,2.2 0.0693,0.48134 0.20667,1.1 0.20667,1.1 0,0 0.41333,0 0.96267,-0.344 0.55066,-0.344 1.78666,-0.756 2.33733,-1.16933 0.27333,-0.20533 1.32667,-0.55867 2.13067,-1.17333 0.48266,-0.36934 0.66266,-0.96934 1.124,-1.30267 0.31333,-0.22667 0.716,-0.29867 0.93866,-0.47867 0.30534,-0.248 0.632,-0.388 0.81467,-0.55333 0.23467,-0.20933 0.29467,-0.42933 0.416,-0.64 0.204,-0.352 0.0427,-0.66933 -0.14,-0.956 -0.10267,-0.16 -0.25867,-0.35867 -0.44667,-0.524 -0.16666,-0.14667 -0.32266,-0.40933 -0.544,-0.592 -0.084,-0.0693 -0.116,-0.112 -0.112,-0.19333 l 0.008,-0.15867 c 0.016,-0.10667 0.116,-0.15867 0.22267,-0.13067 0.28933,0.0733 1.19467,0.31067 1.60667,0.61467 0.488,0.36 1.88933,1.124 2.256,1.576 0.36666,0.45333 0.196,0.94 -0.14667,1.14533 -0.24267,0.14667 -1.236,0.67467 -2.172,1.26267 -0.388,0.244 -0.872,0.5 -1.072,0.72 -0.36533,0.40133 -1.00133,0.86667 -1.46267,1.61733 -0.40666,0.66134 -0.53866,1.47067 -1.11866,1.92134 -1.236,0.96133 -3.33467,1.83333 -3.884,2.38266 -0.55067,0.55067 -1.65067,1.58134 -2.13067,2.476 -0.48133,0.89334 -0.55067,1.85467 -0.96267,2.12934 -0.41266,0.276 -1.1688,1.65066 -1.44386,2.06266 -0.27494,0.412 -0.4812,2.33734 -0.8932,3.50667 -0.41254,1.168 -0.7568,3.43733 -0.7568,3.98667 0,0.55066 -0.35254,1.64266 -0.62654,2.536 -0.27453,0.89333 -0.96253,2.336 -2.81826,3.23066 0,0 -1.47187,0.61467 -2.22814,1.23334 -0.7568,0.61733 -1.5448,1.18 -2.16346,1.66133 -0.61827,0.48 -1.78707,1.444 -5.2928,1.856 -3.50627,0.412 -4.2624,0.344 -6.11867,0.68667 -1.62347,0.30133 -4.5636,0.75866 -5.27293,0.86933 -0.27507,0.0427 -0.2708,-0.692 0.13173,-0.77333 0.3084,-0.064 0.90573,-0.204 1.5672,-0.43867 0.962,-0.344 3.29947,-2.06267 5.29267,-3.23067 1.99373,-1.16933 4.19373,-2.47466 5.362,-3.71333 1.1688,-1.23733 4.46826,-3.57333 5.49946,-4.812 1.03134,-1.236 1.99334,-4.39867 1.99334,-5.08533 0,0 -0.41254,-0.89334 -1.16827,-0.48267 -0.75627,0.41333 -3.712,2.33733 -4.7432,2.81867 -1.03133,0.48133 -1.7876,0.61866 -3.50627,1.788 -1.71826,1.168 -2.74946,2.268 -4.0552,1.856 -1.30573,-0.41334 -2.2,-1.23734 -3.50626,-2.33734 -0.7172,-0.604 -1.9724,-1.74933 -2.562,-2.80666 -0.1844,-0.33067 -0.0432,-0.648 0.15933,-1.06134 0.2016,-0.41333 0.5152,-1.416 1.17813,-1.36133"
         style="fill:#231f20;fill-opacity:1;fill-rule:evenodd;stroke:none;stroke-width:0.133;stroke-dasharray:none" />
    </g>
  </g>
</svg>
