<svg width="100" height="33" viewBox="0 0 100 33" fill="none" xmlns="http://www.w3.org/2000/svg">
<path fill-rule="evenodd" clip-rule="evenodd" d="M0 16.1959C0 25.142 7.25946 32.4088 16.2055 32.4088V31.7343C7.62371 31.7343 0.677912 24.7793 0.677912 16.1959C0.677912 7.62949 7.62371 0.641579 16.2055 0.641579C24.7696 0.641579 31.7479 7.62949 31.7479 16.1959C31.7479 24.7793 24.7696 31.7343 16.2055 31.7343V32.4088C25.1333 32.4088 32.4088 25.142 32.4088 16.1959C32.4088 7.26841 25.1333 0 16.2055 0C7.25946 0 0 7.26841 0 16.1959Z" fill="#006097"/>
<path fill-rule="evenodd" clip-rule="evenodd" d="M4.49776 16.1959C4.49776 22.6584 9.73893 27.9198 16.2055 27.9198V27.4766C9.98762 27.4766 4.94402 22.4282 4.94402 16.1959C4.94402 9.98054 9.98762 4.93221 16.2055 4.93221C22.4212 4.93221 27.4648 9.98054 27.4648 16.1959C27.4648 22.4282 22.4212 27.4766 16.2055 27.4766V27.9198C22.6533 27.9198 27.911 22.6584 27.911 16.1959C27.911 9.75042 22.6533 4.48894 16.2055 4.48894C9.73893 4.48894 4.49776 9.75042 4.49776 16.1959Z" fill="#006097"/>
<path fill-rule="evenodd" clip-rule="evenodd" d="M12.3845 6.97201C12.3515 7.10457 12.3025 7.23553 12.2029 7.3999C12.0703 7.53087 11.9708 7.62949 11.8398 7.72759L11.9708 8.0224C12.2029 7.85855 12.3515 7.67881 12.4847 7.49853L13.0454 8.72972L13.5092 8.51816L12.7818 6.82354L12.3845 6.97201Z" fill="#006097"/>
<path fill-rule="evenodd" clip-rule="evenodd" d="M14.815 7.89248V8.20531C14.6329 8.22122 14.5008 8.20531 14.4023 8.156C14.2367 8.09025 14.1701 7.98951 14.0876 7.84263L14.6009 7.72757C14.6329 7.81029 14.6664 7.84263 14.716 7.85854C14.7319 7.89248 14.7655 7.89248 14.815 7.89248ZM14.815 6.29754V6.57697C14.7809 6.57697 14.7655 6.57697 14.7319 6.60932C14.6329 6.60932 14.5514 6.65969 14.5008 6.70953C14.4513 6.75884 14.4188 6.87284 14.4513 6.97199C14.4513 7.10455 14.5008 7.18621 14.5834 7.23552C14.6329 7.26839 14.7319 7.28271 14.815 7.26839V7.54676C14.5834 7.57911 14.4023 7.54676 14.2207 7.4492C14.0551 7.36596 13.956 7.23552 13.9225 7.05418C13.9065 6.87284 13.956 6.70953 14.1046 6.56107C14.2367 6.42692 14.4513 6.34791 14.716 6.29754H14.815ZM15.4109 6.42692C15.2618 6.31451 15.0467 6.26467 14.815 6.29754V6.57697C14.8656 6.57697 14.9481 6.60932 15.0302 6.65969C15.0967 6.70953 15.1628 6.79012 15.1787 6.88981C15.1787 7.0054 15.1628 7.06956 15.0967 7.15439C15.0467 7.20211 14.9481 7.26839 14.8656 7.26839H14.815V7.54676C14.9971 7.53086 15.1628 7.4492 15.2778 7.31505C15.2778 7.53086 15.2618 7.67879 15.2123 7.75992C15.1303 7.84263 15.0467 7.89248 14.9481 7.89248C14.8986 7.90944 14.8486 7.90944 14.815 7.89248V8.20531H14.9481C15.2283 8.156 15.4759 8.02238 15.6255 7.85854C15.8082 7.67879 15.8566 7.41527 15.8082 7.06956C15.7576 6.75884 15.6255 6.52766 15.4109 6.42692Z" fill="#006097"/>
<path fill-rule="evenodd" clip-rule="evenodd" d="M17.1635 6.2477V6.52766C17.1139 6.56107 17.0969 6.56107 17.0644 6.56107C17.0138 6.57697 16.9643 6.62628 16.9318 6.69256C16.8823 6.79013 16.8493 6.95609 16.8328 7.15439C16.7997 7.36596 16.7997 7.53086 16.8328 7.59714C16.8493 7.67879 16.8823 7.72757 16.9318 7.77636C16.9813 7.81029 17.0309 7.84263 17.0969 7.84263H17.1635V8.12366H17.0644C16.7997 8.09025 16.6006 8.02238 16.436 7.84263C16.3034 7.71167 16.2204 7.4492 16.2875 7.06956C16.3034 6.74187 16.436 6.51175 16.6171 6.38026C16.7832 6.26467 16.9318 6.21536 17.1635 6.2477ZM17.2785 6.2477H17.1635V6.52766C17.1965 6.52766 17.213 6.52766 17.246 6.56107C17.2955 6.56107 17.3451 6.56107 17.4116 6.60932C17.4606 6.62628 17.4766 6.69256 17.5107 6.75884C17.5272 6.83944 17.5272 7.02131 17.5107 7.23552C17.4766 7.4492 17.4606 7.59714 17.4116 7.67879C17.3786 7.75992 17.3291 7.81029 17.2785 7.81029C17.246 7.84263 17.1965 7.84263 17.1635 7.84263V8.12366C17.3786 8.156 17.5597 8.09025 17.7088 8.02238C17.9069 7.89248 18.0235 7.62948 18.0565 7.28271C18.1071 6.95609 18.0565 6.69256 17.8749 6.51175C17.7413 6.38026 17.5272 6.26467 17.2785 6.2477Z" fill="#006097"/>
<path fill-rule="evenodd" clip-rule="evenodd" d="M18.866 6.56108L18.7339 6.83945L19.8586 7.31507C19.545 7.41528 19.2792 7.54678 19.0481 7.72758C18.8175 7.94286 18.6519 8.15601 18.5518 8.38613L19.0316 8.56694C19.0811 8.41901 19.1802 8.28751 19.3298 8.09026C19.4938 7.94286 19.6765 7.8103 19.8911 7.6788C20.0897 7.57912 20.3049 7.49853 20.4535 7.44921L20.5695 7.20213L18.866 6.56108Z" fill="#006097"/>
<path fill-rule="evenodd" clip-rule="evenodd" d="M6.76209 7.06958C6.63055 6.92271 6.31742 6.60934 5.98512 6.38028C5.68904 6.13319 5.37378 5.98632 5.19165 6.11675C5.01006 6.24772 5.05958 6.31453 5.04414 6.47784C4.99355 6.57699 4.91101 6.65971 4.82793 6.7419C4.72888 6.82355 4.49776 6.97202 4.38221 7.13533C4.36516 7.23554 4.19955 7.18623 4.18357 7.26842C4.15002 7.33363 4.1005 7.39991 4.13298 7.46566C4.2331 7.81031 4.96053 8.51817 4.96053 8.51817C4.96053 8.51817 5.30828 8.86335 5.30828 8.83101C5.5394 9.09347 5.80353 9.30715 5.87063 9.35647C6.00216 9.37184 6.16778 9.35647 6.1337 9.30715C6.00216 9.05954 5.63791 8.83101 5.48987 8.61626C5.27473 8.33736 5.04414 8.12368 4.82793 7.85856C4.77947 7.81031 4.72888 7.71169 4.67936 7.6295C4.64634 7.59716 4.64634 7.53088 4.67936 7.44922C4.69587 7.39991 4.77947 7.31508 4.86148 7.20214C4.96053 7.02133 5.12615 6.83946 5.19165 6.65971C5.25769 6.60934 5.35674 6.52768 5.35674 6.52768C5.43981 6.4455 5.58892 6.47784 5.672 6.51178C5.77158 6.52768 6.0682 6.79015 6.43192 7.15442C6.67954 7.39991 6.74718 7.36598 6.81161 7.64541C6.84623 7.75994 6.71256 7.7276 6.71256 7.77638C6.6641 7.90947 6.6641 8.0224 6.92877 8.09027C6.97776 8.12368 7.07734 8.17087 7.12634 8.12368C7.15935 8.09027 7.12634 8.03937 7.10983 7.94287C6.99374 7.6295 7.0603 7.49854 6.76209 7.06958Z" fill="#006097"/>
<path fill-rule="evenodd" clip-rule="evenodd" d="M5.50637 7.33363C5.50637 7.26841 5.45578 7.18622 5.37377 7.15441C5.25768 7.13532 5.05958 7.41528 5.09259 7.46566C5.09259 7.54678 5.12614 7.6295 5.17567 7.59715C5.22519 7.59715 5.53939 7.46566 5.50637 7.33363Z" fill="#006097"/>
<path fill-rule="evenodd" clip-rule="evenodd" d="M6.03573 7.57912C5.90313 7.59714 5.75456 7.62949 5.72207 7.62949C5.62249 7.75993 5.58894 7.84264 5.43983 7.98952C5.45581 7.98952 5.40628 8.12366 5.45581 8.17085C5.48989 8.25357 5.57296 8.30341 5.67201 8.35272C5.75456 8.38613 5.95266 8.43438 6.03573 8.22123C6.06822 8.12366 5.93562 8.0717 5.87065 8.03936V7.98952H5.95266C5.95266 7.97414 6.13372 8.03936 6.18431 8.03936C6.25088 7.90945 6.34993 7.72758 6.25088 7.57912C6.18431 7.49852 6.13372 7.54677 6.03573 7.57912Z" fill="#006097"/>
<path fill-rule="evenodd" clip-rule="evenodd" d="M11.5421 2.36853C11.574 2.35103 11.574 2.35103 11.6087 2.31922C11.4926 2.18772 11.344 1.95654 11.2945 1.97351C11.2599 2.00585 11.2439 2.00585 11.2103 2.08857C11.1619 2.17182 11.1773 2.23597 11.344 2.35103C11.4255 2.36853 11.475 2.36853 11.5421 2.36853Z" fill="#006097"/>
<path fill-rule="evenodd" clip-rule="evenodd" d="M12.7323 2.5467C12.7483 2.58275 12.7818 2.631 12.7818 2.68032C12.7483 2.79484 12.6987 2.84416 12.6657 2.89347C12.6162 2.97671 12.6492 3.07428 12.6987 3.10715C12.8809 3.15752 12.9139 2.85953 12.9139 2.61404C12.9139 2.49951 12.8809 2.39982 12.8809 2.31923C12.9139 2.23598 13.0619 2.17182 13.096 2.18773C13.1125 2.26939 13.1445 2.39982 13.2275 2.53344C13.2771 2.66229 13.4102 2.79485 13.4597 2.81181C13.6914 2.89347 13.5913 2.71266 13.5913 2.5467C13.5913 2.53344 13.5588 2.53344 13.5417 2.53344C13.4762 2.53344 13.4267 2.5467 13.3761 2.49951C13.3601 2.48307 13.1951 2.13948 13.1951 2.08858C13.2275 2.03927 13.3601 1.97352 13.3761 1.90777C13.4102 1.84043 13.3761 1.7434 13.3601 1.7434C13.293 1.7768 12.9304 2.18773 12.8809 2.23598C12.8324 2.26939 12.7818 2.26939 12.7483 2.23598C12.7323 2.21901 12.6987 2.03927 12.9799 1.66015C13.0619 1.52971 13.0454 1.52971 12.9799 1.47934C12.9304 1.46344 12.8638 1.52971 12.7818 1.52971C12.6987 1.52971 12.6492 1.51169 12.6492 1.47934C12.6162 1.43109 12.6492 1.34891 12.6162 1.29959C12.5667 1.16704 12.3515 1.25028 12.253 1.38125C12.1534 1.51169 11.8398 2.10448 11.9708 2.21901C12.1039 2.28529 12.237 2.00586 12.3515 1.87436C12.4847 1.7434 12.6162 1.7434 12.6492 1.7434C12.7818 1.7434 12.4847 2.18773 12.5997 2.53344C12.5997 2.61404 12.4676 2.71266 12.3845 2.66229C12.3845 2.66229 12.253 2.45019 12.1534 2.39982C12.1039 2.39982 12.0208 2.61404 12.1039 2.71266C12.1534 2.84416 12.4181 2.79485 12.0208 3.32242C11.9212 3.41893 11.9212 3.56951 11.9212 3.68298C11.9212 3.83092 11.9708 3.96241 12.0703 3.96241C12.203 3.99476 12.2866 3.83092 12.3025 3.78054C12.3515 3.73335 12.4341 3.5202 12.4676 3.28743C12.4847 3.12518 12.4341 2.97671 12.4847 2.84416C12.5502 2.745 12.6162 2.66229 12.7323 2.5467Z" fill="#006097"/>
<path fill-rule="evenodd" clip-rule="evenodd" d="M11.442 2.94332C11.5741 2.76252 11.5245 2.61405 11.3105 2.48308C11.2439 2.45021 11.2945 2.63102 11.2945 2.76252C11.3105 2.79486 11.2945 2.94332 11.2945 2.99264C11.2599 3.05838 11.2945 3.23919 11.442 2.94332Z" fill="#006097"/>
<path fill-rule="evenodd" clip-rule="evenodd" d="M11.7077 4.27525V3.9131C11.6741 3.83092 11.5245 3.63367 11.3924 3.23918C11.3589 3.15753 11.2598 3.15753 11.2598 3.23918C11.2598 3.28743 11.4255 3.78055 11.442 4.09391C11.475 4.3585 11.4926 4.62043 11.5245 4.8829C11.5421 5.03083 11.7902 5.32776 11.8398 5.29489C11.8888 5.27686 11.9212 5.22808 11.8563 4.98152C11.8057 4.75299 11.7562 4.52128 11.7077 4.27525Z" fill="#006097"/>
<path fill-rule="evenodd" clip-rule="evenodd" d="M14.5833 2.18773C14.5514 2.17183 14.5008 2.21902 14.4513 2.21902C14.2367 2.23598 14.0551 2.26939 13.9065 2.23598C13.8559 2.23598 13.7904 2.21902 13.7904 2.17183C13.7739 2.13948 13.7904 2.08858 13.7904 2.00586C13.7904 1.95655 13.7739 1.87437 13.7244 1.87437C13.6408 1.87437 13.5588 1.95655 13.5417 2.00586C13.4762 2.05517 13.4597 2.08858 13.4597 2.23598C13.4267 2.31923 13.4267 2.36854 13.4762 2.39983C13.5417 2.4502 13.6743 2.4502 13.7904 2.4502C14.0386 2.48307 14.3187 2.53344 14.4188 2.48307C14.5338 2.4502 14.6329 2.36854 14.6664 2.35104C14.6835 2.2853 14.6835 2.21902 14.5833 2.18773Z" fill="#006097"/>
<path fill-rule="evenodd" clip-rule="evenodd" d="M13.7244 2.92633C13.6408 2.89346 13.5912 2.9433 13.5092 3.02654C13.4267 3.10714 13.4762 3.43588 13.3761 3.5695C13.3761 3.55253 13.3266 3.52019 13.293 3.43588C13.277 3.38763 13.277 3.32241 13.195 3.28742C13.1444 3.25454 13.1444 3.33832 13.096 3.38763C13.0129 3.50216 12.9634 3.5695 12.9304 3.59919C12.7978 3.65009 12.8638 3.38763 12.7482 3.32241C12.6987 3.23917 12.5997 3.38763 12.6162 3.52019C12.6162 3.59919 12.6657 3.73334 12.6657 3.81288C12.6987 3.89718 12.6987 4.01171 12.6987 4.04512C12.7482 4.17661 12.7818 4.34046 12.8638 4.44067C12.9304 4.53823 13.0454 4.52126 12.9799 4.27524C12.9799 4.14321 12.8638 3.91309 12.9304 3.78053C12.9799 3.69994 13.096 3.69994 13.1444 3.76568C13.195 3.8309 13.195 3.99474 13.2435 4.01171C13.293 4.0939 13.3761 3.99474 13.4102 3.91309C13.4267 3.89718 13.4267 3.78053 13.4762 3.65009C13.4762 3.5695 13.5417 3.52019 13.5587 3.43588C13.5912 3.33832 13.5912 3.25454 13.6743 3.25454C13.7739 3.23917 13.8229 3.37172 13.8724 3.43588C13.8724 3.52019 13.9065 3.5695 13.9225 3.68297C13.956 3.76568 13.9225 4.01171 13.9225 4.17661C13.9065 4.2588 13.9065 4.30917 13.9065 4.34046C13.956 4.3903 14.0055 4.40726 14.0551 4.04512C14.0875 3.65009 14.1046 3.65009 14.0551 3.37172C14.0551 3.15751 13.8229 2.9433 13.7244 2.92633Z" fill="#006097"/>
<path fill-rule="evenodd" clip-rule="evenodd" d="M21.5132 2.28529C21.3801 2.35104 21.0824 2.5467 20.9013 2.79485C20.7032 3.02656 20.6686 3.10715 20.585 3.05837C20.52 3.05837 20.5365 3.05837 20.4039 2.97672C20.2554 2.92634 20.1393 2.92634 20.0242 2.89347C19.9081 2.85953 19.7596 2.97671 19.7271 3.05837C19.6765 3.15752 19.7271 3.15752 19.808 3.20684C19.8586 3.25456 20.1393 3.33833 20.2229 3.33833C20.2719 3.32243 20.3544 3.33833 20.3384 3.38764C20.3384 3.41893 19.9917 3.68298 19.8586 3.78054C19.7271 3.86379 19.4624 4.04513 19.4129 4.12626C19.3128 4.22594 19.4454 4.30919 19.5279 4.30919C19.5764 4.30919 19.709 4.20897 19.9081 4.14322C20.1393 4.09391 20.3049 3.99476 20.4039 3.9131C20.52 3.83092 20.7181 3.59921 20.7676 3.56951C20.8337 3.55255 21.264 3.86379 21.3801 3.86379C21.4291 3.83092 21.5132 3.7657 21.5782 3.69995C21.6612 3.63367 21.6106 3.55255 21.5132 3.55255C21.3966 3.5202 21.1649 3.4359 21.0328 3.37174C20.9013 3.28743 21.0153 3.23918 21.0824 3.15752C21.1479 3.07428 21.4631 2.79485 21.6106 2.631C21.7928 2.48307 21.8269 2.36854 21.7928 2.35104C21.7603 2.26939 21.6447 2.26939 21.5132 2.28529Z" fill="#006097"/>
<path fill-rule="evenodd" clip-rule="evenodd" d="M20.8821 4.14323C20.8337 4.14323 20.7676 4.27525 20.7181 4.34047C20.7032 4.39031 20.7517 4.48894 20.7517 4.58756C20.7676 4.70315 20.9013 4.93221 20.9822 4.98152C21.0328 5.01492 21.0824 4.93221 21.1985 4.78533C21.2964 4.62043 21.2964 4.62043 21.1649 4.44068C21.0648 4.27525 20.9822 4.14323 20.8821 4.14323Z" fill="#006097"/>
<path fill-rule="evenodd" clip-rule="evenodd" d="M28.8206 7.26841C28.7711 7.15441 28.4404 7.05419 28.3567 7.00541C28.2247 6.9561 28.3237 6.87286 28.3237 6.83945C28.3083 6.79014 28.1927 6.82354 28.1427 6.75886C28.0931 6.70955 28.0931 6.6263 28.1262 6.60933C28.1262 6.57699 28.1427 6.56108 28.0931 6.51177C28.0436 6.44549 28.0436 6.51177 27.878 6.51177C27.7294 6.51177 27.7294 6.52768 27.7294 6.56108C27.7294 6.60933 27.7294 6.6597 27.6464 6.69258C27.5473 6.70955 27.4648 6.74189 27.4158 6.82354C27.3322 6.9227 27.2826 6.9561 27.2826 6.97201C27.2826 7.00541 27.3322 7.02132 27.3657 7.02132C27.4158 7.02132 27.5968 6.9227 27.6788 6.88982C27.7294 6.87286 27.911 6.82354 27.9446 6.83945C27.9941 6.87286 27.9941 6.9561 27.9605 6.9561C27.9446 6.97201 27.911 6.97201 27.8626 6.9561C27.7789 6.9561 27.5643 7.02132 27.4967 7.06957C27.4158 7.13532 27.3817 7.20213 27.4312 7.23553C27.4967 7.31507 27.9446 7.31507 28.0436 7.28272C28.0596 7.28272 28.0931 7.15441 28.2247 7.15441C28.3083 7.15441 28.4073 7.23553 28.4569 7.26841C28.5053 7.31507 28.5564 7.31507 28.5394 7.36597C28.5394 7.41528 28.4569 7.41528 28.3733 7.44922C28.3237 7.44922 28.3083 7.41528 28.3083 7.36597C28.3083 7.31507 28.2747 7.28272 28.1927 7.31507C28.1262 7.31507 28.0101 7.39991 27.911 7.41528C27.779 7.44922 27.5148 7.46565 27.4648 7.46565C27.4158 7.46565 27.1511 7.06957 27.0675 7.02132C27.0196 6.9561 27.051 6.9227 27.051 6.87286C27.051 6.83945 27.5473 6.56108 27.6953 6.47783C27.878 6.39459 27.911 6.31452 27.911 6.24771C27.878 6.13318 27.6953 6.18303 27.5968 6.26468C27.4967 6.31452 27.2491 6.51177 27.1996 6.57699C27.1341 6.6263 27.051 6.74189 27.0015 6.70955C26.9189 6.69258 26.9189 6.52768 26.8864 6.47783C26.8694 6.42693 26.8199 6.42693 26.7368 6.42693C26.6207 6.44549 26.5712 6.56108 26.3246 6.69258C26.2075 6.75886 26.159 6.75886 26.1095 6.82354C26.0759 6.83945 26.0759 6.9227 26.1095 6.9561C26.159 7.00541 26.2905 6.97201 26.3731 6.9561C26.4396 6.9561 26.5057 6.88982 26.5552 6.87286C26.5712 6.87286 26.7368 7.05419 26.8358 7.13532C26.936 7.20213 27.2826 7.6295 27.3322 7.6454C27.5148 7.75993 27.7294 8.07171 27.7294 8.09027C27.7454 8.12367 27.779 8.17086 27.7294 8.20533C27.6464 8.25358 27.6464 8.25358 27.6464 8.30342C27.6788 8.33735 27.878 8.48423 27.9446 8.51816C28.0101 8.51816 28.1927 8.51816 28.2247 8.43439C28.2747 8.41901 28.1927 8.35273 28.1757 8.30342C28.1262 8.25358 28.1262 8.12367 28.0436 8.07171C27.9446 8.0224 27.5968 7.59715 27.5968 7.59715C27.5968 7.57912 27.8285 7.53087 27.878 7.54678C27.9446 7.57912 27.9446 7.67881 28.0436 7.71168C28.0931 7.71168 28.0931 7.67881 28.1427 7.67881C28.2247 7.6454 28.2247 7.67881 28.4893 7.67881C28.754 7.6454 28.7711 7.6295 28.8206 7.53087C28.8701 7.46565 28.9026 7.36597 28.8206 7.26841Z" fill="#006097"/>
<path fill-rule="evenodd" clip-rule="evenodd" d="M27.0675 7.89249C27.0509 7.84265 26.7368 7.49853 26.6542 7.44921C26.5711 7.41528 26.5216 7.41528 26.4721 7.44921C26.4396 7.49853 26.373 7.57912 26.3406 7.59715C26.3246 7.62949 26.4226 7.71168 26.4721 7.72759C26.5216 7.77637 26.6047 7.89249 26.6542 7.90946C26.7368 7.94286 26.8358 7.90946 26.8198 7.98952C26.8198 8.03936 26.6542 8.17086 26.5711 8.15601C26.4226 8.15601 26.2905 7.90946 26.1249 7.77637C26.0759 7.72759 25.9763 7.72759 25.9273 7.72759C25.8778 7.6788 25.8112 7.72759 25.8112 7.75993C25.8112 7.8103 25.8778 7.85855 25.8778 7.90946C25.8943 7.98952 25.9438 8.02239 26.0264 8.07171C26.159 8.15601 26.2905 8.28751 26.3406 8.33735C26.373 8.38613 26.4226 8.43438 26.2569 8.51816C26.1249 8.59982 25.9438 8.64913 25.7942 8.59982C25.6291 8.51816 25.5295 8.41901 25.513 8.30342C25.48 8.22123 25.431 8.33735 25.3969 8.41901C25.3809 8.48423 25.2979 8.59982 25.316 8.64913C25.3474 8.69738 25.3474 8.72972 25.48 8.78062C25.6131 8.79706 25.9273 8.87925 26.0599 8.86334C26.3406 8.831 26.4396 8.61625 26.5056 8.61625C26.5216 8.61625 26.5711 8.69738 26.6207 8.72972C26.6542 8.74775 26.7368 8.91265 26.8358 8.91265C26.9189 8.91265 27.0195 8.87925 26.9684 8.69738C26.9359 8.61625 26.8694 8.61625 26.7533 8.46726C26.7533 8.41901 26.8198 8.30342 26.8358 8.30342C26.8694 8.33735 27.1995 8.33735 27.2491 8.30342C27.2826 8.28751 27.3321 8.12367 27.3161 8.09026C27.3161 8.03936 27.1005 7.90946 27.0675 7.89249Z" fill="#006097"/>
<path fill-rule="evenodd" clip-rule="evenodd" d="M9.47532 15.8178C9.44177 15.8682 9.40875 15.9006 9.3752 15.9334C9.11054 16.3608 8.74682 17.7908 8.86291 18.4488C8.979 19.057 9.02853 19.4515 9.47532 19.995V15.8178ZM9.47532 10.0632V11.3947C9.21065 11.6417 8.92948 11.6911 9.04397 11.8538C9.11054 11.9859 9.27615 11.9705 9.47532 12.0357V12.9392C9.39171 12.9069 9.29319 12.9069 9.19414 12.9069C8.64777 12.9392 8.33357 13.2197 8.33357 13.4504C8.33357 13.6969 8.59824 16.4414 8.51623 16.9032C8.43262 17.3804 7.83725 18.925 8.01938 19.6816C8.23452 20.4054 8.99551 21.0958 9.1771 21.0958C9.24314 21.0793 9.35816 21.0284 9.47532 20.9791V23.7103C8.86291 23.038 7.6727 21.6546 7.29194 20.8322C6.76207 19.6986 7.10982 19.0077 7.25946 17.856C7.42401 16.7054 7.37449 14.8465 7.20887 13.8274C7.02727 12.4307 7.44105 12.3332 7.88784 11.8878C8.30002 11.4779 8.74682 11.3947 8.86291 10.7865C8.91243 10.3416 8.59824 10.1438 8.56522 9.8994C8.53168 9.7011 9.14462 9.79972 9.47532 10.0632ZM9.47532 11.3947V10.0632C9.54082 10.1126 9.60686 10.1783 9.63987 10.2441C9.85448 10.6046 9.87046 10.9991 9.55733 11.3114C9.54082 11.3453 9.5078 11.3782 9.47532 11.3947ZM9.47532 12.9392C9.77247 13.0066 9.97057 13.2197 10.1192 13.2685V13.303V12.4975C10.0856 12.4307 10.0526 12.4143 10.0041 12.3671C9.822 12.1518 9.62283 12.0696 9.47532 12.0357V12.9392ZM9.47532 19.995C9.5078 20.0454 9.54082 20.0777 9.59035 20.126C9.73892 20.2728 9.95353 20.389 10.1192 20.4876V19.1222C10.0856 19.074 10.0526 19.0231 10.0526 19.0077C9.87046 18.679 9.67342 18.0549 9.80602 17.3311C9.90507 16.6402 9.85448 16.408 10.0856 16.2791L10.1192 16.2611V15.1609C9.85448 15.4233 9.60686 15.6535 9.47532 15.8178V19.995ZM9.47532 23.7103C9.70697 23.9744 9.85448 24.1213 9.85448 24.1213C9.85448 24.1213 9.77247 24.3848 9.67342 24.5985C9.59035 24.8296 9.80602 24.8779 9.92211 24.8779C9.95353 24.8779 10.0526 24.7793 10.1192 24.6478V22.3126C9.87046 22.1642 9.67342 21.9017 9.59035 21.6875C9.54082 21.4924 9.32568 21.3582 9.67342 21.2776C9.73892 21.2776 9.92211 21.2776 10.1192 21.2946V20.8503C10.0041 20.8826 9.87046 20.8826 9.77247 20.8826C9.65532 20.8985 9.55733 20.9319 9.47532 20.9791V23.7103ZM10.2352 22.3794V24.4007C10.2022 24.45 10.1527 24.5486 10.1192 24.6149V22.3126C10.1527 22.3466 10.2022 22.3619 10.2352 22.3794ZM10.2352 20.8503V21.3105C10.2022 21.3105 10.1527 21.3105 10.1192 21.2946V20.8503H10.2352ZM10.2352 19.3211V20.5528L10.1192 20.4876V19.1222C10.1527 19.189 10.2022 19.2548 10.2352 19.3211ZM10.2352 15.0453V16.18C10.2022 16.1959 10.1527 16.2288 10.1192 16.2611V15.1609L10.2352 15.0453ZM10.2352 12.6768V13.303C10.2022 13.3189 10.1697 13.303 10.1192 13.303V12.4975C10.1697 12.5463 10.2022 12.6121 10.2352 12.6768ZM11.9212 25.2565C12.2029 25.3715 12.4676 25.4537 12.6657 25.503V23.8922C12.5171 23.8588 12.3845 23.775 12.4847 23.5285C12.5171 23.415 12.5997 23.283 12.6657 23.1509V22.3466C12.4676 22.643 12.1534 23.0019 11.9212 23.1509V25.2565ZM12.6657 13.7478C12.3845 13.7478 12.0703 13.7478 11.9212 13.7139V14.2224C12.1534 14.1391 12.4676 14.0596 12.6657 14.0596V13.7478ZM11.9212 18.925C12.1039 18.2346 12.3515 17.4791 12.4676 17.0687C12.4847 17.0178 12.5997 17.0342 12.6657 16.9854V16.4923C12.6492 16.4923 12.6162 16.4589 12.6492 16.408C12.6492 16.3937 12.6657 16.3274 12.6657 16.2791V15.242V15.2584C12.5997 15.4732 12.5171 15.7346 12.4181 15.9981C12.2866 16.4589 12.4341 16.5909 12.0544 16.6742H11.9212V17.0687C12.0208 17.0687 12.1039 17.0687 12.0703 17.0851C12.0544 17.1657 12.0208 17.4297 11.9212 17.7415V18.925ZM12.6657 20.2591C12.4847 20.2246 12.1534 20.2591 11.9212 20.2591V20.6514C12.0544 20.6684 12.1694 20.6684 12.253 20.7007C12.4341 20.7007 12.5171 20.7172 12.6657 21.0125V21.0464V20.2591ZM12.6657 25.503V23.8922C12.7483 23.9081 12.8638 23.9081 12.9304 23.9081C12.9799 23.9081 13.0454 23.9404 13.096 23.9404V25.5677C12.9799 25.5677 12.8809 25.5677 12.7818 25.5354C12.7483 25.5354 12.6987 25.503 12.6657 25.503ZM12.6657 16.2791V15.242C12.8638 14.7166 12.9799 14.338 12.9799 14.1084C12.9799 14.0596 12.8809 14.0251 12.6657 14.0596V13.7478H13.096V15.0453C12.9634 15.3899 12.7978 15.8682 12.6657 16.2791ZM12.6657 16.9854C12.6987 16.9854 12.7483 16.9854 12.7818 16.9345C12.7978 16.8873 12.8324 16.7054 12.7978 16.5909C12.7978 16.5093 12.7323 16.5093 12.6657 16.4923V16.9854ZM13.096 20.6032V22.7416C12.9634 22.8222 12.7978 22.9696 12.6657 23.1509V22.3466C12.7978 22.1811 12.8809 22.0655 12.8809 22.0009C12.9304 21.819 12.7978 21.3582 12.6657 21.0464V20.2591C12.6987 20.2591 12.7323 20.2728 12.7483 20.2728C12.9139 20.3396 12.9799 20.389 13.096 20.6032ZM13.096 25.5677C13.293 25.5847 13.5092 25.6176 13.6743 25.6176V23.9404C13.5417 24.0237 13.3266 23.9744 13.096 23.9404V25.5677ZM13.096 15.0453C13.195 14.6842 13.2771 14.4541 13.293 14.4042C13.3266 14.3199 13.5417 14.338 13.6743 14.338V13.8274C13.5913 13.7791 13.3601 13.7478 13.096 13.7478V15.0453ZM13.6743 21.5889C13.3761 21.6212 13.2771 21.6212 13.162 21.0464C13.1445 20.8322 13.1125 20.7007 13.096 20.6032V22.7416C13.1125 22.7082 13.162 22.7082 13.162 22.7082C13.2771 22.7082 13.4102 23.1356 13.4597 23.3317C13.5092 23.4463 13.6083 23.5942 13.6743 23.7273V23.7602V22.3794C13.6408 22.2962 13.6083 22.2464 13.6743 22.1642V21.5889ZM13.6743 16.048C13.5588 16.3115 13.4267 16.5755 13.3761 16.7054C13.1125 17.4128 13.0619 18.0872 13.2275 18.6127C13.3761 19.1069 13.5417 19.4515 13.6743 19.6986V19.7309V16.048ZM13.6743 25.6176V23.9404C13.7244 23.8922 13.7244 23.8418 13.6743 23.7602V22.3943C13.6914 22.4282 13.7244 22.4775 13.7409 22.5587C13.8229 22.7888 13.9225 22.9526 14.0551 23.397C14.1701 23.678 14.2367 23.8418 14.3187 23.9081V26.4728C14.1701 26.589 13.956 26.3896 13.956 26.3896C13.956 26.3896 14.0056 26.2416 14.0386 26.1112C14.0876 26.028 14.0876 25.9293 14.1376 25.8318C14.1872 25.6679 14.0056 25.6679 13.6743 25.6176ZM13.6743 14.338C13.6914 14.338 13.6914 14.338 13.7244 14.3199C13.8559 14.2733 13.9065 13.9769 13.6743 13.8274V14.338ZM14.3187 14.8465V16.2611C14.1376 16.408 14.0876 16.8873 14.0551 17.1657C13.972 17.7261 14.1376 18.136 14.3187 18.4817V22.2633C14.2692 22.2464 14.2207 22.2464 14.1701 22.2124C13.8559 22.0655 13.8229 22.0009 13.6914 22.1642H13.6743V21.5889C13.6914 21.5889 13.6914 21.5565 13.7244 21.5565C14.0386 21.5565 14.2862 21.5565 14.2862 21.2946C14.2862 21.0634 14.1872 20.6032 14.0551 20.4054C13.956 20.2246 13.8229 20.0273 13.6743 19.7309V16.048C13.7904 15.7516 13.9225 15.4732 14.0056 15.3078C14.1046 15.0776 14.1872 14.996 14.3187 14.8465ZM14.3187 12.4143V13.0394C14.2367 12.9562 14.1872 12.8602 14.2207 12.6439C14.2367 12.5463 14.2692 12.4647 14.3187 12.4143ZM14.3187 26.4728C14.3187 26.4564 14.3522 26.4564 14.3522 26.4564C14.4023 26.3742 14.4673 26.2093 14.5008 26.0115C14.5514 25.766 14.6009 25.7008 14.6009 25.7008C14.6009 25.7008 14.9481 25.7167 15.3443 25.7475V24.2538C15.2778 24.2358 15.2283 24.2034 15.2123 24.1536C15.0467 23.8922 15.1787 23.5454 15.3443 23.1016V21.819C15.1787 21.8513 15.1303 21.3752 15.1303 21.1117C15.0967 20.8826 15.0302 20.8503 15.0797 20.4876C15.0797 20.3571 15.2123 20.4393 15.3443 20.5369V19.6816C15.0797 19.5173 14.7655 19.2548 14.5834 18.9754C14.5008 18.8444 14.4023 18.679 14.3187 18.4987V18.4817V22.2633C14.5514 22.3943 14.6835 22.5094 14.815 22.5587C14.9806 22.643 15.0302 22.7564 14.9151 23.2172C14.7809 23.678 14.716 23.9744 14.5338 23.9887C14.4513 23.9887 14.3682 23.9887 14.3187 23.9081V26.4728ZM15.3443 12.874C15.2123 12.7271 15.1303 12.5622 15.0302 12.4975C14.8986 12.3804 14.5008 12.1852 14.3187 12.4143V13.0394C14.4513 13.1381 14.6664 13.1211 14.8986 13.2027C15.1787 13.2685 15.2778 13.5331 15.2123 13.6635C14.9806 14.0596 14.716 14.3199 14.4673 14.6333C14.4023 14.7335 14.3522 14.7987 14.3187 14.8465V16.2611C14.3522 16.2288 14.3522 16.1959 14.4023 16.1959C14.6009 16.1476 15.0467 16.7054 15.3443 16.9032V15.8841C15.1628 15.5538 14.9481 15.1116 15.1303 14.7165C15.1628 14.584 15.2283 14.4705 15.3443 14.338V12.874ZM16.2204 17.987V20.9149C16.1549 20.8826 16.0894 20.9149 16.0388 20.9319C15.9062 20.9791 15.8566 21.2262 15.7576 21.6705C15.675 22.1318 15.6255 22.1149 15.4434 22.7416C15.4109 22.8397 15.3949 22.9696 15.3443 23.0852V23.1016V21.819C15.494 21.8031 15.527 21.3582 15.5435 21.162C15.6255 20.8503 15.675 20.784 15.527 20.6684C15.494 20.6514 15.4109 20.6032 15.3443 20.5369V19.6816V19.6986C15.494 19.7803 15.6255 19.8285 15.7246 19.8285C15.8407 19.8285 16.0718 18.7606 16.2204 17.987ZM16.2204 16.6233V17.0851C16.0223 17.0342 15.6585 17.0851 15.4434 16.9854C15.4109 16.9684 15.3949 16.9345 15.3443 16.9032V15.8841V15.9154C15.4109 16.0644 15.527 16.1959 15.576 16.3115C15.7081 16.4923 15.9722 16.5909 16.2204 16.6233ZM15.3443 25.7475V24.2538V24.2867C15.5435 24.3524 15.9062 24.3021 16.2204 24.2358V25.766H16.1708C15.9892 25.766 15.6585 25.766 15.3443 25.7475ZM16.2204 13.2685V13.6969C16.0894 13.7478 15.9892 13.7945 15.8566 13.8777C15.675 14.0082 15.494 14.1572 15.3443 14.338V12.874C15.494 13.1211 15.6585 13.3189 15.7576 13.303C15.8566 13.303 16.0388 13.2685 16.2204 13.2685ZM16.2204 25.766C16.4856 25.766 17.0644 25.7475 17.5938 25.7475H17.6092V24.3344H17.5938C17.3451 24.4166 17.1965 24.3524 17.2785 24.2034C17.3291 24.1059 17.4766 23.9081 17.5938 23.8418H17.6092V23.1849C17.6092 23.1849 17.5938 23.1849 17.5938 23.2172C17.5597 23.4463 17.0138 23.9404 16.7007 24.1059C16.6006 24.1213 16.4025 24.2034 16.2204 24.2358V25.766ZM17.6092 21.1117L17.5938 21.0958C17.2785 20.7172 16.2539 20.1429 16.2539 20.1429C16.2204 20.0936 16.2204 20.0454 16.2204 19.995V19.8635C16.2539 19.2368 16.7007 17.9239 16.7832 17.4297C16.7832 17.3476 16.7998 17.2489 16.8328 17.0851C16.8823 16.9684 17.213 17.0851 17.1454 16.6402C17.1454 16.5416 17.0644 16.3115 17.0644 16.2611C17.246 15.6879 17.4281 15.0453 17.5938 14.584L17.6092 14.5516V13.0066H17.5938C17.2785 13.0066 16.9813 13.0394 16.7502 13.1381C16.6006 13.2027 16.4025 13.2536 16.2204 13.2685V13.6969C16.4025 13.6465 16.6171 13.5813 16.8823 13.4838C17.3291 13.3517 17.3786 13.6465 17.3786 13.6465C17.3786 13.6465 17.4281 13.8947 17.1635 14.601C16.8988 15.3417 16.7007 16.5416 16.5186 16.6233C16.436 16.6402 16.337 16.6402 16.2204 16.6233V17.0851C16.3034 17.0851 16.337 17.1153 16.337 17.1657C16.337 17.2155 16.3034 17.5289 16.2204 17.9239V20.9149C16.353 20.9319 16.4856 21.0958 16.6672 21.162C16.9318 21.3264 17.1139 21.4075 17.1635 21.9515C17.213 22.5094 17.5597 22.8885 17.5938 23.1356H17.6092V21.1117ZM17.6092 14.5516C17.7413 14.1895 17.8403 13.8947 17.8749 13.8454C17.974 13.6635 18.3196 13.567 18.4202 13.5331C18.7174 13.5161 18.6519 13.3517 18.5188 13.2027C18.4527 13.1211 18.1566 13.0734 17.7919 13.0394C17.7088 13.0066 17.6593 13.0066 17.6092 13.0066V14.5516ZM19.0481 15.3899V17.7261C19.0316 17.9069 18.965 18.0872 18.949 18.2346C18.9166 18.6297 18.949 18.925 19.0481 19.1069V22.6912C18.9166 22.7888 18.7834 22.8731 18.6519 22.9696C18.2871 23.1849 18.2871 23.4463 18.3707 23.7103C18.4043 23.9404 18.7834 24.1213 19.0481 24.1536V26.292C18.9001 26.4564 18.6519 26.3413 18.6519 26.3413C18.6519 26.16 18.6024 26.2093 18.6844 26.0608C18.7339 25.8816 18.7669 25.7475 18.7669 25.7475H17.6092V24.3344C17.8749 24.2358 17.9069 24.2358 17.9575 23.9887C17.974 23.8079 17.8243 23.775 17.6928 23.8079C17.6593 23.8079 17.6433 23.8079 17.6092 23.8418V21.1117C17.6593 21.1456 17.6928 21.1949 17.6928 21.2453C17.8243 21.5889 17.974 22.7888 18.1385 22.8222C18.2871 22.8397 18.7174 22.3466 18.7834 22.1149C18.949 21.6392 18.2871 21.0958 18.089 20.7516C17.8749 20.4054 17.5597 19.0077 17.9069 17.856C18.0565 17.2982 18.6024 16.18 19.0481 15.3899ZM19.0481 26.292C19.0982 26.2417 19.1306 26.16 19.1477 26.0608C19.1802 25.8954 19.1802 25.766 19.2297 25.6176C19.2632 25.5847 19.4454 25.5677 19.7596 25.4861C19.8416 25.4861 19.9081 25.4537 19.9917 25.4368V23.7602C19.9081 23.7602 19.8911 23.6605 19.8911 23.415C19.8911 23.2342 19.9412 23.0189 19.9917 22.8397V21.5077L19.9577 21.5396C19.8911 21.6392 19.8416 21.7209 19.7596 21.6875C19.6765 21.6875 19.5764 21.5565 19.4129 21.2453C19.2792 20.9791 19.2137 20.6514 19.4454 20.4054C19.545 20.3078 19.644 20.2591 19.7596 20.2591C19.8416 20.2246 19.9081 20.2591 19.9917 20.2591V19.6816C19.9081 19.6493 19.8416 19.6493 19.7596 19.6323C19.5764 19.6323 19.4454 19.5501 19.3634 19.5173C19.2632 19.4176 19.1306 19.3211 19.0481 19.1222V19.1069V22.6912C19.2137 22.5756 19.3298 22.4775 19.4624 22.3943C19.5449 22.3466 19.709 22.2962 19.7596 22.3943C19.7766 22.4457 19.7766 22.5263 19.7596 22.6583C19.7271 22.7082 19.7271 22.7416 19.7271 22.7564C19.545 23.2342 19.4454 24.1213 19.1802 24.1536H19.0481V26.292ZM19.9917 14.2224C19.9081 14.2733 19.8416 14.338 19.7596 14.4042C19.5945 14.5347 19.4624 14.6683 19.3958 14.7987C19.3128 14.9467 19.1802 15.1285 19.0481 15.356V17.7261V17.6922C19.1802 17.0851 19.3958 16.4923 19.4624 16.3608C19.5764 16.18 19.627 16.2791 19.7596 16.3937C19.808 16.408 19.8416 16.4589 19.8911 16.4589C19.9081 16.4589 19.9577 16.4923 19.9917 16.5093V14.2224ZM19.9917 12.3804C19.9081 12.3804 19.8416 12.3804 19.7596 12.4143C19.6765 12.4143 19.627 12.4307 19.5764 12.4975C19.2297 12.8247 19.4454 13.0066 19.7596 13.1211C19.8416 13.1381 19.9081 13.1693 19.9917 13.1693V12.3804ZM20.6191 19.337V20.5369C20.4375 20.9149 20.3544 21.5077 20.2719 21.819C20.2229 22.0321 20.1393 22.2962 20.0738 22.5756C20.0402 22.6583 20.0242 22.7416 19.9917 22.8397V21.5077C20.0242 21.459 20.0402 21.4075 20.0738 21.3582C20.0897 21.2262 20.1233 21.0464 20.1728 20.801C20.2719 20.4393 20.2058 20.3396 20.0738 20.3078C20.0402 20.2728 20.0242 20.2728 20.0242 20.2728L19.9917 20.2591V19.6816H20.0738C20.2229 19.6816 20.3869 19.6493 20.487 19.5994C20.5365 19.5841 20.5695 19.4679 20.6191 19.337ZM19.9917 25.4368V23.7602C20.0242 23.775 20.0402 23.775 20.0738 23.775C20.1728 23.7602 20.3384 23.678 20.585 23.5942H20.6191V25.1754C20.4039 25.2729 20.2229 25.3551 20.0738 25.4044C20.0402 25.4044 20.0242 25.4044 19.9917 25.4368ZM20.6191 13.7945V14.4042C20.5365 14.4705 20.487 14.5516 20.4375 14.601C20.2553 14.9138 20.1393 14.996 20.2058 15.5538C20.2229 15.9658 20.4039 16.1959 20.6191 16.3274V16.9032C20.4375 16.8534 20.2229 16.6742 20.0738 16.5755C20.0402 16.5416 20.0242 16.5093 19.9917 16.5093V14.2224C20.0242 14.1895 20.0402 14.1895 20.0738 14.1572C20.2229 14.0251 20.4375 13.9276 20.6191 13.7945ZM20.6191 12.5951V13.3841C20.52 13.3189 20.4039 13.2685 20.3049 13.2536C20.2553 13.2197 20.1393 13.2197 20.0738 13.2027C20.0402 13.2027 20.0242 13.2027 19.9917 13.1693V12.3804H20.0738C20.2229 12.4143 20.4039 12.4975 20.5695 12.5622C20.5695 12.5622 20.585 12.5951 20.6191 12.5951ZM20.6191 8.38612V8.59981C20.2553 8.419 20.2553 8.30341 20.6191 8.38612ZM20.6191 25.1754C20.7517 25.125 20.8821 25.0417 21.0328 24.9924V23.397C20.9013 23.4643 20.7517 23.5454 20.6191 23.5942V25.1754ZM21.0328 13.0394C20.9338 12.8602 20.7676 12.6937 20.6191 12.5951V13.3841C20.7517 13.4504 20.8821 13.5331 20.9823 13.5813C20.8821 13.6465 20.7517 13.7139 20.6191 13.7945V14.4042C20.7181 14.2733 20.8821 14.1391 21.0328 14.0082V13.0394ZM21.0328 19.5173C20.9508 19.5008 20.9823 19.2368 21.0328 18.8105V16.4414C20.9013 16.4589 20.7517 16.4414 20.6191 16.3274V16.9032C20.6686 16.9345 20.7181 16.9684 20.7676 16.9684C20.8821 16.9345 21.0153 16.9032 21.0328 16.8873V16.9032C21.0153 17.0687 20.9013 17.856 20.8012 18.2177C20.7517 18.4817 20.7032 19.0231 20.6191 19.337V20.5369C20.6686 20.4054 20.7181 20.3396 20.8012 20.2728C20.8821 20.2591 20.9508 20.2082 21.0328 20.1742V19.5173ZM21.0328 8.51815C20.9823 8.51815 20.9508 8.48422 20.9013 8.46725C20.8012 8.43437 20.7032 8.419 20.6191 8.38612V8.59981C20.7032 8.64912 20.7676 8.66556 20.8821 8.72971C20.9338 8.78061 20.9823 8.79705 21.0328 8.83099V8.51815ZM10.2352 13.303C10.3838 13.286 10.4333 13.0066 10.2352 12.6768V13.303ZM10.2352 16.18V15.0453C10.7811 14.5516 11.344 14.0596 11.3104 13.9594C11.2944 13.5161 11.0788 13.6635 10.8141 13.3841C10.6155 13.0877 10.7316 12.5622 11.4254 12.9562C11.7402 13.1381 11.5245 13.5161 11.8398 13.6969C11.8563 13.7139 11.8888 13.7139 11.9212 13.7139V14.2224C11.8563 14.2393 11.8057 14.2733 11.7402 14.2897C11.3924 14.5347 11.2439 14.5347 11.0287 14.8974C10.6325 15.6201 11.0287 15.7346 11.1773 16.0973C11.3924 16.5093 11.6241 16.6742 11.9212 16.6742V17.0687C11.7562 17.0687 11.5245 17.0851 11.3924 17.0178C11.1618 16.8873 10.9952 16.7054 10.665 16.2791C10.4999 16.0819 10.3678 16.1137 10.2352 16.18ZM10.2352 24.4007V22.3794C10.2858 22.3943 10.3343 22.4113 10.4003 22.4282C10.4839 22.4457 10.6155 22.1642 10.665 21.9017C10.7151 21.6392 10.8466 21.459 10.7151 21.3752C10.698 21.3752 10.4839 21.3439 10.2352 21.3105V20.8503C10.4333 20.8503 10.5819 20.8503 10.5819 20.784C10.5819 20.7341 10.4333 20.6514 10.2352 20.5528V19.3211C10.6325 19.8285 11.0447 20.0454 11.1773 20.0273C11.344 19.995 11.442 19.1222 11.6741 18.5798C11.7562 18.3486 11.8563 18.0363 11.9212 17.7415V18.942C11.7402 19.6323 11.6086 20.2082 11.6741 20.2246C11.7077 20.2591 11.8057 20.2591 11.9212 20.2591V20.6514C11.7077 20.6185 11.4925 20.6514 11.442 20.7516C11.4254 20.8826 11.7562 21.3264 11.7077 21.4924C11.574 21.7697 11.2103 21.459 11.1618 21.6212C10.9952 22.1149 10.8466 22.608 10.8141 22.7416C10.7971 22.9526 11.0287 22.9208 11.2103 23.0539C11.4254 23.1509 11.442 23.397 11.7562 23.2671C11.8057 23.2342 11.8563 23.2172 11.9212 23.1509V25.2565C11.2439 24.9601 10.5324 24.5486 10.2677 24.3344C10.2677 24.3344 10.2517 24.3524 10.2352 24.4007ZM21.9914 22.6583V24.4007C21.9584 24.4346 21.9094 24.468 21.8753 24.4823C21.5782 24.6812 21.2964 24.8296 21.0328 24.9601V23.397C21.4631 23.1356 21.8423 22.8058 21.9914 22.6583ZM21.9914 19.4679V20.0936C21.9584 20.0613 21.9094 20.0454 21.8753 20.0454C21.6447 20.0454 21.2964 20.0936 21.0328 20.1742V19.5173C21.33 19.5655 21.7603 19.4679 21.9914 19.4679ZM21.9914 13.1693V14.996C21.8923 15.3078 21.7928 15.637 21.6937 15.9981C21.6612 16.1312 21.8753 16.2611 21.8753 16.408C21.8423 16.8873 21.5132 16.8041 21.4791 16.9684C21.2964 17.6413 21.1479 18.3163 21.0328 18.7935V16.4414C21.0824 16.408 21.1143 16.408 21.1479 16.408C21.2964 16.3274 21.3801 15.7839 21.4631 15.4233C21.5286 15.0453 21.7928 14.2733 21.8753 14.0251C21.9584 13.8274 21.9259 13.4334 21.5782 13.6465C21.429 13.7139 21.2469 13.8454 21.0328 14.0082V13.0394C21.1649 13.2027 21.2469 13.3189 21.2964 13.4334C21.5286 13.3189 21.7097 13.2536 21.7928 13.2197C21.8593 13.2027 21.9259 13.1863 21.9914 13.1693ZM21.9914 9.02717V9.63588C21.6937 9.3241 21.363 9.02717 21.0328 8.83099V8.51815C21.347 8.63321 21.6767 8.81296 21.9914 9.02717ZM21.9914 9.63588V9.02717C22.4707 9.37182 22.9334 9.79972 23.3312 10.2106H23.3648V11.3947H23.3312C23.2317 11.2144 23.1315 11.033 22.967 10.8358C22.7689 10.5728 22.4046 10.0807 21.9914 9.63588ZM21.9914 14.996V13.1693C22.2885 13.1211 22.5037 13.2027 22.5037 13.2027C22.5037 13.2027 23.5123 13.3841 22.4707 13.7139C22.4046 13.7298 22.223 14.2574 21.9914 14.996ZM21.9914 24.4007V22.6583L22.0084 22.643C22.2065 22.4282 22.5213 21.6875 22.5213 21.459C22.5213 21.2453 22.2726 20.3237 21.9914 20.0936V19.4679C22.0409 19.4515 22.0745 19.4679 22.1075 19.4679C22.2885 19.5501 22.6038 20.5369 22.6363 20.6185C22.6363 20.6185 22.5037 15.8682 22.7849 14.7165C22.885 14.2733 23.1315 13.9276 23.3312 13.6635H23.3648V14.584H23.3312C23.2657 14.7335 23.2317 14.8645 23.2317 14.9467C23.2317 15.1285 23.2657 15.356 23.3312 15.3417H23.3648V21.2262C23.3648 21.2453 23.3648 21.2453 23.3312 21.2453C23.3312 21.2946 23.3153 21.3582 23.2812 21.4075C23.1001 21.8694 22.8679 22.1642 22.8679 22.1642C22.6363 22.5263 22.5213 22.8222 23 22.4457C23.1315 22.2962 23.2317 22.1642 23.3312 22.0321C23.3648 22.0321 23.3648 22.0009 23.3648 22.0009V23.1356H23.3312C23 23.4961 22.5372 24.0057 21.9914 24.4007ZM25.0007 12.1852C24.8021 11.8878 24.1418 11.0479 23.3648 10.2106V11.3947C23.9602 12.3671 24.1247 13.0877 24.1247 13.0877C24.1247 13.0877 23.7274 13.2685 23.3648 13.6635V14.584C23.4963 14.2897 23.7274 13.9769 23.8931 13.8274C24.1742 13.567 24.3058 13.8274 24.2733 13.9594C24.2563 14.2733 24.0097 14.5018 23.8265 14.601C23.3802 14.9467 23.5123 15.242 23.3802 15.3078C23.3648 15.3078 23.3648 15.3078 23.3648 15.3417V21.2262C23.6284 20.521 23.5959 20.0936 23.5783 19.2368C23.5459 18.2346 23.4963 17.2489 23.5959 17.4128C23.7274 17.5607 24.0416 18.8444 24.0416 19.4679C24.0097 20.7007 24.0097 21.162 23.3648 22.0009V23.1356C23.4963 23.0019 23.6284 22.8731 23.7274 22.7564C24.5875 21.9516 24.8021 20.7007 24.9507 20.3078C25.0827 19.8964 24.9837 19.3211 24.7206 18.5798C24.5055 17.8741 24.2248 16.8873 24.0912 16.2791C23.9426 15.6879 23.8931 15.1768 24.0741 14.9138C24.2248 14.6683 24.2563 14.6333 24.5055 14.7659C24.7206 14.8645 24.8191 15.1285 24.7206 16.1959C24.621 17.3311 24.7531 17.5931 25.0668 16.9032C25.316 16.2791 25.2979 15.6042 25.316 15.1768C25.381 14.7335 25.4475 14.338 25.5636 14.1391C25.6627 13.9276 25.381 12.7754 25.0007 12.1852Z" fill="#006097"/>
<path fill-rule="evenodd" clip-rule="evenodd" d="M2.44805 20.7007C2.39799 20.6684 2.34846 20.6514 2.29894 20.6186C2.03427 20.4876 1.85215 20.2591 1.76907 19.9441C1.70357 19.6493 1.7531 19.3704 1.8857 19.1069C2.03427 18.8444 2.29894 18.6647 2.62911 18.5798C2.71112 18.5475 2.82721 18.5295 2.89378 18.5295H2.92733V18.925C2.87674 18.925 2.82721 18.942 2.74467 18.942C2.38148 19.0231 2.13332 19.1891 1.98528 19.3852C1.85215 19.5501 1.85215 19.731 1.8857 19.9128C1.93522 20.126 2.06729 20.2729 2.26539 20.3572C2.33142 20.389 2.38148 20.4054 2.43101 20.4054C2.48053 20.4393 2.52953 20.4393 2.61207 20.4393H2.62911C2.69514 20.4393 2.74467 20.4393 2.76171 20.4054H2.89378L2.92733 20.389V20.784C2.76171 20.784 2.61207 20.7516 2.44805 20.7007ZM2.92733 20.784C3.02638 20.784 3.10892 20.7516 3.20797 20.7172C3.52163 20.6186 3.7863 20.4706 3.95192 20.2082C4.10049 19.9128 4.15002 19.6493 4.06748 19.3704C4.00144 19.074 3.83582 18.8778 3.57116 18.7113C3.52163 18.679 3.47317 18.6647 3.43856 18.6297C3.42258 18.6297 3.42258 18.6297 3.42258 18.6127C3.37412 18.6127 3.32246 18.5798 3.2575 18.5798V18.5475C3.20797 18.5475 3.15791 18.5475 3.10892 18.5295H2.92733V18.925C3.1414 18.8778 3.29104 18.8778 3.43856 18.8927V18.925C3.50512 18.925 3.55465 18.942 3.60524 18.942C3.7863 19.0231 3.88641 19.1891 3.95192 19.3704C4.00144 19.5841 3.96842 19.7644 3.86937 19.9128C3.70429 20.0936 3.43856 20.2591 3.0759 20.3572C3.02638 20.389 2.97579 20.389 2.92733 20.389V20.784Z" fill="#006097"/>
<path fill-rule="evenodd" clip-rule="evenodd" d="M1.75309 17.0687L3.43855 16.9345L3.47317 17.2829C3.50512 17.3476 3.47317 17.4298 3.43855 17.4791C3.42258 17.5607 3.39009 17.5931 3.32246 17.6413C3.29104 17.6599 3.20797 17.6599 3.10892 17.6922L3.1414 17.7755L3.65476 17.6922L3.52163 15.8682H3.00933V15.9334C3.10892 15.9334 3.19199 15.9334 3.24152 15.9981C3.32246 16.0151 3.34057 16.0644 3.37412 16.1312C3.39009 16.18 3.39009 16.2611 3.42258 16.3608V16.6233L1.72061 16.7564C1.58748 16.7564 1.52091 16.7564 1.45594 16.7224C1.40535 16.7055 1.35689 16.6233 1.35689 16.5093V16.4414L1.3063 16.4589L1.35689 17.4128H1.43783V17.3311C1.40535 17.2489 1.43783 17.1657 1.45594 17.1153C1.52091 17.0851 1.58748 17.0851 1.75309 17.0687Z" fill="#006097"/>
<path fill-rule="evenodd" clip-rule="evenodd" d="M5.35673 22.8731C5.4398 22.8885 5.48986 22.9208 5.53939 23.0189L5.57294 23.1016L5.62246 23.0852L5.27472 22.3795L5.19165 22.3943L5.25768 22.4457C5.27472 22.5263 5.30827 22.608 5.27472 22.6584C5.25768 22.7082 5.17567 22.7565 5.05958 22.8397L3.88641 23.415L4.77947 21.4075L4.49776 20.8826H4.44823C4.49776 20.9648 4.49776 20.9791 4.49776 21.0465C4.5148 21.0958 4.5148 21.162 4.49776 21.1949C4.49776 21.2453 4.49776 21.2946 4.44823 21.4075L3.02637 22.1149C2.92732 22.1642 2.84372 22.1812 2.79579 22.1812C2.71112 22.1812 2.69514 22.1318 2.62911 22.0656L2.61206 21.985L2.52952 22.0009L2.89377 22.7082L2.9433 22.6912L2.92732 22.608C2.87673 22.5263 2.87673 22.4457 2.89377 22.3943C2.92732 22.3795 2.97578 22.3126 3.10892 22.2464L4.33267 21.6212L3.39009 23.775L3.42258 23.8079L5.12614 22.9526C5.25768 22.8885 5.32531 22.8731 5.35673 22.8731Z" fill="#006097"/>
<path fill-rule="evenodd" clip-rule="evenodd" d="M6.61455 25.8954L6.66408 25.8816L6.08522 25.1886L6.03569 25.2565C6.11823 25.3053 6.13368 25.3715 6.13368 25.4044V25.503C6.11823 25.5677 6.06818 25.6176 5.9851 25.6679L5.48985 26.1112C5.40624 26.0608 5.32529 26.028 5.2747 25.9787C5.19163 25.9468 5.1421 25.8816 5.05956 25.8318C4.99353 25.7167 4.944 25.5847 4.91099 25.4368C4.87744 25.2729 4.91099 25.0921 4.99353 24.9092C5.05956 24.7453 5.19163 24.5985 5.35671 24.4346C5.57292 24.2867 5.80351 24.1716 6.03569 24.1536C6.30036 24.1213 6.53095 24.2034 6.71254 24.4346C6.8462 24.5985 6.89626 24.7793 6.89626 24.9601C6.87922 25.0921 6.81159 25.2225 6.74715 25.3715L6.76206 25.4368L7.29193 24.9272L7.24241 24.8779C7.19341 24.9092 7.15933 24.9272 7.12632 24.9272C7.10981 24.9272 7.07732 24.9272 7.07732 24.9092C7.06028 24.8779 7.02726 24.8599 7.02726 24.7793C6.97774 24.6812 6.92875 24.5985 6.89626 24.5152C6.87922 24.468 6.81159 24.3848 6.76206 24.3344C6.63053 24.1536 6.44894 24.0396 6.30036 23.9744C6.06818 23.9081 5.85357 23.8922 5.5889 23.9405C5.40624 23.9887 5.22518 24.073 5.05956 24.2034C4.86146 24.3848 4.72886 24.5985 4.67934 24.8599C4.59679 25.2225 4.69584 25.5677 4.99353 25.8954C5.09258 26.0115 5.19163 26.1112 5.30825 26.1923C5.40624 26.2417 5.53937 26.3244 5.63789 26.3742L6.18427 25.9293C6.26681 25.8488 6.34988 25.7984 6.40048 25.7984C6.44894 25.766 6.53095 25.8318 6.581 25.8816L6.61455 25.8954Z" fill="#006097"/>
<path fill-rule="evenodd" clip-rule="evenodd" d="M8.54874 26.2417C8.61478 26.2093 8.68134 26.2417 8.74684 26.292L8.82992 26.3413L8.86294 26.292L8.10195 25.7008L8.06946 25.7475L8.11846 25.7984C8.18502 25.8318 8.201 25.8816 8.23455 25.9294V26.028C8.23455 26.0609 8.18502 26.1112 8.10195 26.2093L7.12635 27.4103C7.07736 27.4919 7.0273 27.5243 6.97778 27.5243C6.92878 27.5413 6.8963 27.5413 6.87926 27.5243C6.84624 27.4919 6.84624 27.4432 6.87926 27.3939C6.8963 27.2963 6.8963 27.213 6.8963 27.1791C6.8963 27.1293 6.87926 27.1293 6.84624 27.0969C6.81163 27.0487 6.7621 27.0487 6.71257 27.0487C6.66411 27.0487 6.63057 27.0805 6.61459 27.1293C6.564 27.1791 6.53098 27.23 6.564 27.3101C6.564 27.3939 6.63056 27.4766 6.71257 27.5243C6.79565 27.607 6.92878 27.6574 7.0273 27.6574C7.15937 27.6574 7.25948 27.607 7.34203 27.5413C7.44108 27.4919 7.55557 27.4103 7.65622 27.2634L8.36715 26.4225C8.43265 26.292 8.49922 26.2417 8.54874 26.2417Z" fill="#006097"/>
<path fill-rule="evenodd" clip-rule="evenodd" d="M9.32568 26.6547L9.40876 26.7189C9.45828 26.7358 9.4913 26.7692 9.50781 26.8175C9.54083 26.8514 9.54083 26.9007 9.54083 26.9166C9.54083 26.9485 9.4913 27.0322 9.45828 27.1293L8.6973 28.3801C8.64777 28.4962 8.59825 28.5609 8.54872 28.5938C8.4992 28.6261 8.41665 28.5938 8.33358 28.5609L8.2505 28.5116L8.23453 28.5609L9.06102 29.0704L9.09457 28.9883L9.04397 28.9548C8.99551 28.9389 8.96143 28.8896 8.91244 28.8573C8.87996 28.8069 8.87996 28.774 8.87996 28.7581C8.87996 28.6924 8.92948 28.6441 8.99551 28.5429L9.72295 27.2963C9.80603 27.1791 9.85449 27.0969 9.87046 27.0805C9.95354 27.0487 10.0361 27.0805 10.1192 27.1293L10.1697 27.1621L10.1868 27.0969L9.37521 26.6367L9.32568 26.6547Z" fill="#006097"/>
<path fill-rule="evenodd" clip-rule="evenodd" d="M13.5913 28.414L13.6743 28.4294C13.7739 28.4623 13.8229 28.4962 13.8559 28.5609C13.8724 28.5938 13.8724 28.6924 13.8229 28.8249L13.6083 29.7126C13.5588 29.957 13.4762 30.1049 13.4267 30.2221C13.3601 30.2873 13.2771 30.3536 13.1445 30.3695C12.9799 30.4199 12.8809 30.4199 12.7323 30.3695C12.5997 30.3536 12.5171 30.3213 12.4676 30.2391C12.3845 30.1887 12.335 30.1389 12.3025 30.0577C12.2866 29.974 12.2866 29.9093 12.3025 29.7778C12.3025 29.6622 12.3025 29.5646 12.335 29.4814L12.5997 28.5116C12.6162 28.3801 12.6492 28.3297 12.6987 28.2815C12.7323 28.2491 12.7978 28.2321 12.8809 28.2491L12.9799 28.2815V28.2321L12.0544 27.9851L12.0208 28.0513L12.1199 28.0672C12.203 28.1017 12.253 28.1176 12.2866 28.1823C12.3025 28.2321 12.3025 28.3138 12.2866 28.4294L12.0544 29.3016C11.9878 29.5646 11.9708 29.7449 11.9708 29.843C11.9878 30.0079 12.0544 30.1389 12.1534 30.2391C12.253 30.3695 12.4341 30.4522 12.6657 30.5344C12.8809 30.5837 13.096 30.5837 13.2275 30.5344C13.3761 30.4522 13.4762 30.3695 13.5588 30.2719C13.6408 30.1558 13.6914 29.974 13.7409 29.7778L13.972 28.8896C14.0056 28.7581 14.0386 28.6754 14.0551 28.6441C14.1376 28.5938 14.2207 28.5609 14.2862 28.5938L14.3682 28.6261L14.4023 28.5609L13.6083 28.3621L13.5913 28.414Z" fill="#006097"/>
<path fill-rule="evenodd" clip-rule="evenodd" d="M16.436 28.6754H16.5186C16.6171 28.6754 16.6672 28.6924 16.7007 28.7581C16.7177 28.774 16.7502 28.8896 16.7502 29.0042L16.7007 30.3213L15.3949 28.5609L14.7655 28.5429V28.6261C14.8486 28.6261 14.8986 28.6261 14.9151 28.6441C14.9806 28.6754 15.0302 28.6754 15.0467 28.6924C15.0967 28.7247 15.1303 28.774 15.2123 28.8896L15.1628 30.4199C15.1628 30.5498 15.1303 30.6336 15.0967 30.6829C15.0467 30.7332 14.9971 30.7656 14.8986 30.7656H14.815V30.8128L15.592 30.8451V30.7974H15.527C15.4434 30.7974 15.3614 30.7332 15.3443 30.7152C15.3119 30.6654 15.2778 30.5837 15.3119 30.4199L15.3443 29.0704L16.7832 30.9294H16.8328L16.8823 29.0042C16.8823 28.8896 16.8988 28.8069 16.9318 28.774C16.9813 28.7247 17.0309 28.6924 17.1454 28.6924H17.213V28.6441L16.436 28.5938V28.6754Z" fill="#006097"/>
<path fill-rule="evenodd" clip-rule="evenodd" d="M18.8335 30.5344C18.7834 30.5005 18.7669 30.5005 18.7339 30.4851C18.7339 30.4199 18.7174 30.3536 18.6844 30.2391L18.4202 28.8069C18.3707 28.6754 18.3707 28.5938 18.4043 28.5429C18.4527 28.4962 18.5033 28.4623 18.5853 28.4294L18.6519 28.414V28.3621L17.6928 28.5429L17.7088 28.5938H17.9575C17.974 28.6261 18.0065 28.6261 18.0235 28.6441C18.0565 28.6754 18.0565 28.774 18.089 28.8896L18.3707 30.3213C18.4043 30.4522 18.4043 30.5344 18.3707 30.5837C18.3707 30.6336 18.2871 30.6654 18.1881 30.6829L18.1385 30.7152V30.7656L19.0811 30.5837V30.5344H18.8335Z" fill="#006097"/>
<path fill-rule="evenodd" clip-rule="evenodd" d="M20.9013 27.7067L20.9338 27.7889L20.9508 27.756C21.0328 27.756 21.0824 27.756 21.1479 27.7889C21.1649 27.7889 21.1985 27.8043 21.1985 27.8371C21.2144 27.8864 21.2144 27.9851 21.2144 28.1176L21.1479 29.5317L20.1728 28.4623C20.0738 28.3621 20.0242 28.3138 20.0242 28.2491C19.9917 28.1993 19.9917 28.1823 20.0242 28.1505C20.0402 28.1017 20.0897 28.0672 20.2058 28.0185L20.1728 27.9692L19.3128 28.2815V28.3297C19.3958 28.3138 19.4454 28.3138 19.4938 28.3138C19.5279 28.3138 19.5764 28.3297 19.627 28.3297C19.627 28.3621 19.6765 28.3801 19.7596 28.4962L21.1985 30.0577L21.2469 30.0249L21.3801 27.9692C21.3801 27.8371 21.3966 27.756 21.429 27.6733C21.4791 27.6234 21.5132 27.5741 21.5782 27.5413L21.5622 27.4919L20.9013 27.7067Z" fill="#006097"/>
<path fill-rule="evenodd" clip-rule="evenodd" d="M24.4059 27.6574C24.44 27.8042 24.4059 27.9373 24.4059 28.0185C24.3894 28.1017 24.3564 28.1823 24.3239 28.1993C24.2733 28.2491 24.2248 28.3138 24.0912 28.3801L23.777 28.5938C23.7275 28.6261 23.6944 28.6261 23.6449 28.6261C23.6284 28.6441 23.6284 28.6261 23.5959 28.6261C23.5783 28.5938 23.5459 28.5609 23.4963 28.4623L23.0831 27.8705L23.4963 27.5741C23.5783 27.5243 23.6284 27.4919 23.6944 27.4919C23.7275 27.4919 23.777 27.4919 23.8265 27.5243C23.8601 27.5243 23.9096 27.607 23.9921 27.6733L24.0097 27.6234L23.5959 26.9654L23.5459 27.0322C23.6284 27.1293 23.6284 27.213 23.6284 27.2963C23.5959 27.343 23.5459 27.4103 23.4473 27.4919L23.0165 27.756L22.5213 26.9994L23.0495 26.6547C23.1486 26.6027 23.1992 26.5561 23.2657 26.5561C23.3153 26.5222 23.3648 26.5561 23.4133 26.589C23.4628 26.6027 23.5459 26.6367 23.6284 26.7358L23.6774 26.7189L23.3802 26.292L21.9259 27.23L21.9584 27.3101L22.025 27.2634C22.0745 27.213 22.157 27.1791 22.2065 27.213C22.2726 27.213 22.3232 27.2963 22.3887 27.4103L23.1992 28.6261C23.2657 28.7247 23.3153 28.774 23.3153 28.8249C23.3153 28.8573 23.3153 28.8896 23.2812 28.9389C23.2657 28.9883 23.2317 29.0042 23.1821 29.0381L23.1316 29.0885L23.1486 29.1367L24.621 28.1993L24.4554 27.607L24.4059 27.6574Z" fill="#006097"/>
<path fill-rule="evenodd" clip-rule="evenodd" d="M25.0827 24.9601V25.1886H25.0668C24.9837 25.1886 24.9352 25.2226 24.8516 25.2729C24.8191 25.3053 24.8021 25.3228 24.7696 25.3551C24.7206 25.3715 24.6706 25.4537 24.621 25.5354L25.0827 26.0609V26.5222L24.538 25.9469C24.44 25.8488 24.3564 25.766 24.3239 25.766C24.2563 25.766 24.1902 25.7984 24.1247 25.8488L24.0741 25.9294L24.0097 25.8816L24.621 25.3053C24.8021 25.142 24.9352 25.0417 25.0343 24.9924C25.0668 24.9601 25.0827 24.9601 25.0827 24.9601ZM26.8864 26.028C26.8199 26.0609 26.6542 26.0609 26.5057 26.0115L25.6952 25.8816C25.8112 25.7167 25.8778 25.5677 25.8778 25.4368C25.8448 25.2729 25.7942 25.1754 25.6952 25.0587C25.6131 24.9924 25.513 24.9092 25.381 24.9092H25.2979C25.2484 24.9092 25.1664 24.9092 25.1163 24.9272L25.0827 24.9601V25.1886H25.1163C25.2484 25.1886 25.3474 25.2565 25.4475 25.3551C25.5636 25.4537 25.5791 25.5677 25.5791 25.7167C25.5636 25.8488 25.48 26.0115 25.316 26.16C25.316 26.16 25.2979 26.16 25.2979 26.1923C25.2979 26.1923 25.2649 26.2093 25.2484 26.2093L25.0827 26.0609V26.5222L25.5636 26.9994C25.6291 27.0805 25.6952 27.1621 25.6952 27.1791C25.7122 27.2634 25.6952 27.3429 25.6131 27.4103L25.5636 27.4766L25.5791 27.5243L26.2905 26.8175L26.257 26.7846L26.192 26.8514C26.1249 26.9166 26.0759 26.9166 26.0083 26.9166C25.9438 26.9166 25.8778 26.8668 25.7942 26.7692L25.316 26.292C25.3474 26.292 25.3474 26.2751 25.381 26.2751C25.381 26.2417 25.3969 26.2417 25.3969 26.2417C25.431 26.2093 25.4475 26.16 25.513 26.1425L26.7863 26.3413L27.2342 25.9469L27.1825 25.8954C27.0675 25.9787 26.9684 26.028 26.8864 26.028Z" fill="#006097"/>
<path fill-rule="evenodd" clip-rule="evenodd" d="M28.2417 23.5794C28.1757 23.5285 28.0931 23.4961 28.0101 23.4961C27.911 23.4643 27.8285 23.4961 27.7294 23.5285C27.6293 23.5285 27.4647 23.5942 27.2491 23.7103C27.0014 23.8418 26.8198 23.9081 26.7038 23.9081C26.6207 23.9405 26.5712 23.9081 26.5057 23.8922C26.4396 23.8079 26.3896 23.7602 26.3731 23.6605C26.3731 23.5454 26.3896 23.4463 26.4396 23.3318C26.5057 23.2671 26.5712 23.2172 26.6872 23.1509C26.7863 23.1016 26.8864 23.0852 27.0014 23.1016C27.1005 23.1016 27.1995 23.1356 27.3321 23.2172L27.3817 23.1509L26.7368 22.7082L26.7038 22.7565C26.7368 22.7888 26.7533 22.8397 26.7533 22.8397V22.9208C26.7368 22.9526 26.6872 22.9696 26.6207 23.0189C26.5057 23.1016 26.4226 23.1849 26.3406 23.283C26.2415 23.415 26.192 23.5942 26.2074 23.7602C26.2415 23.9405 26.3246 24.073 26.4396 24.1716C26.5216 24.2035 26.6047 24.2538 26.6872 24.2538C26.7863 24.2867 26.8694 24.2538 26.9684 24.2358C27.0675 24.2035 27.2342 24.1213 27.4312 24.0396C27.6293 23.9405 27.7454 23.8922 27.8119 23.8588C27.878 23.8418 27.9605 23.8418 28.0101 23.8418C28.0931 23.8418 28.1261 23.8588 28.1757 23.9081C28.2747 23.9744 28.3237 24.0396 28.3237 24.1536C28.3237 24.2538 28.3083 24.3848 28.2247 24.4824C28.1427 24.5985 28.0596 24.6478 27.9605 24.696C27.8625 24.7453 27.7789 24.7793 27.6788 24.7793C27.5643 24.7793 27.4647 24.73 27.3162 24.6812L27.2826 24.696L27.911 25.1754L27.9445 25.125C27.911 25.0587 27.878 25.0417 27.878 25.0089C27.878 24.9924 27.878 24.9924 27.911 24.9601C27.911 24.9272 27.9605 24.8779 28.0596 24.7947C28.1427 24.7453 28.2247 24.696 28.2247 24.6812C28.2747 24.6149 28.3237 24.5985 28.3567 24.5152C28.4893 24.3524 28.5053 24.1716 28.5053 23.9887C28.4568 23.8079 28.3732 23.678 28.2417 23.5794Z" fill="#006097"/>
<path fill-rule="evenodd" clip-rule="evenodd" d="M29.6146 22.1149C29.5805 22.1642 29.5645 22.1812 29.498 22.2124C29.4815 22.2464 29.449 22.2464 29.3994 22.2464C29.3664 22.2464 29.2999 22.2124 29.2178 22.1642L27.911 21.5078C27.779 21.4245 27.6953 21.3752 27.6788 21.3582C27.6464 21.2776 27.6464 21.2262 27.6953 21.1456L27.7294 21.0634L27.6788 21.0465L27.2491 21.9017L27.3162 21.9346L27.3322 21.8513C27.3657 21.8031 27.3817 21.7697 27.4312 21.7384C27.4648 21.7209 27.5148 21.6875 27.5473 21.6875C27.5643 21.7209 27.6464 21.7384 27.7454 21.8031L29.0522 22.4457C29.1843 22.5094 29.2503 22.5587 29.2674 22.608C29.2999 22.6584 29.2999 22.7416 29.2503 22.8222L29.2178 22.8885L29.2674 22.9208L29.7136 22.0656L29.6636 22.0322L29.6146 22.1149Z" fill="#006097"/>
<path fill-rule="evenodd" clip-rule="evenodd" d="M30.391 19.7803C30.3745 19.8635 30.3415 19.9128 30.292 19.9441C30.2424 19.9621 30.1604 19.9621 30.0278 19.9128L28.3567 19.468L28.4404 19.1551C28.4569 19.074 28.4893 19.0077 28.5394 18.942C28.5889 18.925 28.6395 18.8778 28.7215 18.8778C28.754 18.8444 28.8206 18.8444 28.9026 18.8778L28.9356 18.8105L28.4404 18.679L27.9446 20.4876L28.4404 20.6514L28.4569 20.5703C28.3567 20.5369 28.3083 20.4876 28.2417 20.4393C28.1927 20.389 28.1757 20.3397 28.1757 20.2729C28.1757 20.2246 28.1757 20.1429 28.1927 20.0454L28.2747 19.7803L29.9442 20.2246C30.0768 20.2591 30.1269 20.3078 30.1764 20.3397C30.2089 20.389 30.2089 20.4706 30.1764 20.5369V20.6186L30.2424 20.6514L30.4736 19.6986H30.4251L30.391 19.7803Z" fill="#006097"/>
<path fill-rule="evenodd" clip-rule="evenodd" d="M30.9198 16.6402L30.8873 16.7224C30.8873 16.8041 30.8703 16.8873 30.8043 16.9032C30.7883 16.9345 30.6727 16.9685 30.5577 16.9345L29.9778 16.9032L29.1683 16.3115C29.0522 16.2288 28.9862 16.1477 28.9532 16.0973C28.9026 16.0644 28.8701 16.0151 28.8531 15.9334C28.8206 15.8841 28.8206 15.8682 28.8206 15.8179V15.7839H28.754L28.689 16.5756H28.7711C28.7711 16.5093 28.7711 16.4589 28.8035 16.4414C28.8206 16.408 28.8206 16.3937 28.8531 16.3937C28.8701 16.3608 28.9026 16.3608 28.9356 16.3608C29.0027 16.3608 29.0522 16.408 29.1683 16.4589L29.8462 16.9685L29.0852 17.3804C28.9532 17.4298 28.9026 17.4791 28.8531 17.4791C28.8035 17.4621 28.7711 17.4298 28.754 17.3804C28.7215 17.3476 28.7215 17.2983 28.7215 17.2489V17.198H28.6709L28.5889 18.1705H28.6395C28.6395 18.1031 28.6709 18.0872 28.6709 18.0549C28.7215 17.987 28.754 17.9239 28.8035 17.907C28.8206 17.8741 28.9026 17.8561 29.0027 17.7755L29.9937 17.2155L30.5241 17.2829C30.6557 17.2829 30.7388 17.2829 30.7558 17.3311C30.8383 17.3476 30.8703 17.4298 30.8383 17.5289V17.61H30.8873L30.9699 16.6402H30.9198Z" fill="#006097"/>
<path fill-rule="evenodd" clip-rule="evenodd" d="M39.4038 11.8844C39.535 10.4241 39.4915 7.25782 41.6171 7.9563C41.0658 8.5713 46.2951 8.62421 45.9721 7.7177C46.608 7.67806 46.8324 7.65765 47.0107 7.74394C49.2576 8.91012 48.5524 14.2384 48.2491 16.4203C47.725 17.4603 46.7043 19.6281 46.0607 19.7602C44.7042 15.6815 46.277 17.5634 46.8685 16.9164C47.6325 14.6383 47.4109 10.0941 46.2609 9.42472C45.4543 9.42472 43.2725 10.2423 42.1201 9.98636C40.3341 10.6455 40.7238 17.7278 40.4466 19.8759C39.6903 19.6589 39.6678 19.5112 39.3428 19.0353C39.3492 17.0385 39.4038 12.6489 39.4038 11.8844Z" fill="#006097"/>
<path fill-rule="evenodd" clip-rule="evenodd" d="M42.4734 11.5699C42.4586 11.6029 42.4529 12.1395 42.6223 12.1506C43.9283 12.2357 44.7298 12.1957 44.6907 11.7348C44.6638 11.4182 44.7037 11.3255 44.5486 11.2136C44.4121 11.1149 43.864 11.1035 43.5452 11.1312C43.0512 11.1741 42.6782 11.1127 42.4734 11.5699Z" fill="#006097"/>
<path fill-rule="evenodd" clip-rule="evenodd" d="M43.1267 15.4604C43.231 17.8002 41.7231 16.2341 41.4419 15.2308C41.409 11.9165 47.9265 14.667 44.6627 16.3829C43.3249 17.1983 43.9358 14.446 43.1267 15.4604Z" fill="#006097"/>
<path fill-rule="evenodd" clip-rule="evenodd" d="M56.7186 6.98912C55.7847 7.61463 56.3854 8.91089 57.5106 9.01597C58.306 9.09025 57.4441 8.09454 57.4441 7.70468C57.4441 7.59841 57.6048 7.10378 57.4015 6.96837C57.3385 6.92642 56.6852 6.81189 56.7186 6.98912Z" fill="#006097"/>
<path fill-rule="evenodd" clip-rule="evenodd" d="M56.8019 9.33892C57.0348 10.0831 56.9747 10.4965 56.5421 10.9572C55.9765 11.5598 54.9677 11.549 55.7235 10.5379C55.87 10.3419 55.9739 9.46392 55.9213 9.14297C55.8638 8.79394 56.8684 9.19714 56.8019 9.33892Z" fill="#006097"/>
<path fill-rule="evenodd" clip-rule="evenodd" d="M54.1606 20.8457C53.6916 20.4288 53.5555 20.0401 53.4039 19.0101C53.9746 16.8757 55.007 15.5776 55.0709 11.7937C55.0709 11.7522 55.5821 11.8602 55.5821 11.9661C55.5821 13.4191 55.7622 15.7558 55.1977 16.7147C54.9317 16.9982 54.929 18.8666 54.929 19.3273C54.7558 20.3197 54.5071 21.0122 54.1606 20.8457Z" fill="#006097"/>
<path fill-rule="evenodd" clip-rule="evenodd" d="M59.2973 9.91158C58.5486 10.8424 58.9514 11.3423 59.1374 11.7229C59.1374 12.5207 57.7166 13.5465 57.1755 14.1227C56.8012 14.5216 56.3947 15.1736 56.8107 15.8828C57.928 16.0801 58.3405 15.5853 58.8398 14.7432C59.131 14.2557 59.7794 13.206 60.195 12.3259C60.125 12.3843 60.9634 11.3887 61.4899 11.4922C61.795 12.4512 60.362 12.3673 60.4855 13.7189C61.1927 14.4723 61.8387 12.2682 61.9185 12.0396C62.3263 11.1379 63.1546 9.99895 63.2083 11.2418C63.3106 12.4377 63.2492 12.8163 63.5821 13.5698C63.9831 14.2093 64.9824 13.8216 64.6645 12.9703C64.1237 12.3941 63.7054 12.7631 63.8077 10.6752C63.8077 10.3206 63.9915 10.6002 64.7074 10.045C64.5766 10.0072 65.4347 9.2406 64.5397 9.20295C64.4148 9.24725 62.2097 11.0645 61.9185 10.3996C61.5858 9.69051 63.2795 9.02717 63.7295 8.49452C63.9135 8.2722 64.0706 8.15658 64.0821 7.60734C63.4805 7.52624 61.8593 7.8539 63.0004 6.27765C63.2417 5.65371 61.5403 6.01007 61.4623 6.11988C60.7571 6.47912 59.6842 7.40775 59.2989 8.24427C58.7832 9.64142 59.6464 9.11115 60.3793 8.89271C60.7937 8.55791 61.2718 7.96338 62.1041 7.96338C63.1188 8.11593 61.0449 10.0894 61.0449 10.3996C60.8881 10.8286 60.9338 11.1912 60.8225 11.3503C59.7153 12.0548 59.9975 9.61418 59.2973 9.91158Z" fill="#006097"/>
<path fill-rule="evenodd" clip-rule="evenodd" d="M65.8228 10.2334C66.4472 11.0313 66.4783 10.8318 65.7605 11.5966C65.4483 11.9291 67.1025 12.2616 67.165 12.3281C67.5395 12.7271 70.1299 12.5608 68.8817 13.8907C67.9765 14.8549 65.7291 13.525 65.1675 12.9265C64.9802 12.7271 63.8254 11.8293 64.2624 11.3638C64.6057 10.9981 65.2612 10.2998 65.8228 10.2334Z" fill="#006097"/>
<path fill-rule="evenodd" clip-rule="evenodd" d="M60.147 14.2717C59.7412 14.2717 59.3746 15.9297 59.2904 16.4177C59.1641 17.2937 59.1044 17.8245 59.1044 18.6558C59.1044 19.5867 59.9548 19.6977 59.9548 18.8332C59.9548 18.0353 60.0606 17.1691 60.3103 16.6039C60.6536 15.8724 61.3098 16.3786 61.1412 17.5149C60.9832 19.5198 61.7961 17.8798 62.4514 17.1816C62.578 16.9736 63.7451 14.6473 64.2312 16.0852C64.818 17.0046 62.8714 20.0895 63.0764 20.3078C63.6382 20.9063 64.7897 18.264 65.0394 17.732C65.3739 16.645 65.3553 15.5097 64.8631 14.7667C64.3012 14.1682 63.8172 14.3265 63.2867 14.8917C63.193 14.9915 62.6741 16.5768 62.3075 16.216C62.089 15.8835 62.4301 15.0717 62.0002 14.9178C61.6178 15.0287 60.9086 16.0547 60.4793 15.8261C60.3856 15.7264 60.3562 14.8449 60.4548 14.6887C60.5423 14.1887 60.257 14.2546 60.147 14.2717Z" fill="#006097"/>
<path fill-rule="evenodd" clip-rule="evenodd" d="M78.2875 7.43914C77.7604 8.35544 77.0673 9.17787 76.7377 10.6311C76.6431 11.5595 76.7167 12.6491 76.078 12.6693C75.4211 12.6693 74.4128 12.596 74.0591 12.9728C73.5865 12.9931 72.4681 14.8295 73.3271 14.8295C74.0345 14.8295 74.6978 14.7893 75.1019 14.3586C76.1237 13.854 76.4847 13.9617 76.0238 14.7621C75.5356 15.7669 75.1604 16.6307 74.6721 17.6355C74.293 18.4697 73.8258 19.3117 74.711 19.5331C75.38 19.2124 76.6824 16.9498 77.0843 16.5728C77.4062 16.0007 77.602 15.2223 77.7418 14.4956C77.7096 13.6064 78.0834 13.9934 79.3398 13.9459C80.644 13.8369 80.6197 14.1607 80.8665 12.401C80.5859 11.6947 79.8473 12.665 79.5678 12.7739C78.8507 12.7572 78.2053 12.9325 78.056 12.6779C77.7076 11.8653 79.2099 8.96549 79.2099 7.80057C79.2554 7.01605 78.6008 7.25747 78.2875 7.43914Z" fill="#006097"/>
<path fill-rule="evenodd" clip-rule="evenodd" d="M79.8795 17.9988C80.2839 18.4294 81.016 18.8251 81.4707 18.8251C81.8178 18.8251 81.8059 16.8331 81.531 16.7276C81.119 16.6406 80.4425 16.1135 80.2909 15.9519C78.7252 14.9775 78.7674 17.0961 79.8795 17.9988Z" fill="#006097"/>
<path fill-rule="evenodd" clip-rule="evenodd" d="M90.1641 11.2498C89.8996 10.2193 91.0328 6.12586 89.9482 6.40024C89.0949 6.61568 89.7697 10.065 89.3395 10.7482C88.7306 11.0475 87.8469 9.79788 87.7004 11.0612C87.6379 11.7597 87.7749 12.4315 87.7126 13.1299C87.3725 15.4216 88.5554 14.0039 88.8711 13.0567C88.9752 11.91 90.8379 12.2786 92.0555 12.0927C93.6714 12.2255 94.3994 11.4377 95.7696 11.8095C96.2846 11.8095 94.6808 13.3302 97.0322 12.4452C97.2658 12.3002 98.3919 10.7745 97.8157 10.6621C96.9103 10.6621 95.8803 10.8746 94.9749 10.8746C92.0464 11.4322 94.8454 9.8922 96.158 8.1266C96.6102 7.24852 96.6644 6.86436 96.2663 6.18554C95.7062 5.56138 94.856 6.14539 94.8092 6.24517C94.4126 6.66088 94.041 7.11644 93.5072 7.12C93.273 7.31959 93.5386 6.69758 93.3512 6.49805C92.4238 6.38626 92.9673 7.26142 92.3833 7.10328C91.6361 7.29047 92.4768 6.38482 91.6463 6.41144C91.2117 6.41144 91.0602 6.90488 91.0153 7.41711C91.0007 7.6432 90.6605 7.43702 90.6404 7.7142C90.6998 8.16193 91.2093 7.59773 91.1061 8.20433C91.1141 8.60621 90.7071 9.18996 90.7071 9.58901C90.826 10.8276 91.5619 10.5403 91.5078 9.71421C91.4877 9.23662 92.3334 6.81312 92.5636 8.18278C92.2536 8.82378 91.3898 11.7201 92.8049 10.1133C93.1794 9.71421 93.2262 9.51466 93.5541 8.96586C93.9431 8.09861 93.2492 7.29136 95.2749 7.23343C95.478 7.65327 94.0313 9.36624 93.6886 9.98782C93.0424 11.2319 91.911 11.6274 90.1641 11.2498Z" fill="#006097"/>
<path fill-rule="evenodd" clip-rule="evenodd" d="M90.6777 15.1389C90.5224 12.7259 93.093 14.0101 94.1161 13.0984C94.5501 12.7116 95.3154 14.0987 94.8938 14.5478C92.2439 16.7616 96.3873 15.3635 96.1766 16.4491C96.1229 17.424 95.0061 16.66 94.3563 17.1346C94.4363 18.0201 92.2 23.2879 90.6276 19.9454C91.103 19.1051 92.323 20.6957 93.2346 18.0872C93.7386 15.7831 91.8213 17.6465 91.2594 17.6465C88.0749 17.6465 90.3797 15.9811 92.3345 16.0783C93.5521 16.0783 93.4661 13.9517 92.6175 14.7031C92.0086 15.3516 91.4269 15.2386 90.6777 15.1389Z" fill="#006097"/>
<path fill-rule="evenodd" clip-rule="evenodd" d="M42.793 22.2546V23.4288H42.6972C42.6393 23.1569 42.5759 22.9626 42.5063 22.845C42.4365 22.726 42.3406 22.632 42.2184 22.5626C42.1506 22.5231 42.0315 22.5047 41.8618 22.5047H41.5907V25.8477C41.5907 26.069 41.6007 26.2078 41.6212 26.2632C41.642 26.3191 41.6822 26.3669 41.7418 26.4083C41.8026 26.4507 41.8841 26.4715 41.9877 26.4715H42.1084V26.5896H40.2021V26.4715H40.3234C40.4288 26.4715 40.5139 26.4488 40.5782 26.4039C40.6248 26.3746 40.6615 26.3235 40.688 26.2502C40.7081 26.2001 40.7185 26.0656 40.7185 25.8477V22.5047H40.4542C40.2099 22.5047 40.0311 22.5655 39.9202 22.6898C39.764 22.8624 39.6659 23.1092 39.6248 23.4288H39.5234V22.2546H42.793ZM45.2918 22.1948C45.8718 22.1683 46.3428 22.3703 46.7058 22.7978C47.0677 23.2268 47.2491 23.7624 47.2491 24.4064C47.2491 24.9559 47.1143 25.4394 46.8441 25.8573C46.4857 26.4117 45.98 26.6888 45.3261 26.6888C44.6719 26.6888 44.165 26.4247 43.8067 25.8954C43.5243 25.4775 43.3827 24.9824 43.3827 24.4098C43.3827 23.7658 43.5668 23.2288 43.9342 22.8003C44.3025 22.3703 44.7545 22.1683 45.2918 22.1948ZM45.3243 22.3987C44.9909 22.3987 44.7379 22.6016 44.5636 23.0065C44.4224 23.3382 44.352 23.8159 44.352 24.4377C44.352 25.1776 44.4609 25.7243 44.6796 26.0777C44.8316 26.3254 45.045 26.4488 45.3188 26.4488C45.503 26.4488 45.6572 26.3953 45.781 26.2892C45.9374 26.1528 46.0604 25.9349 46.1484 25.6346C46.2365 25.3358 46.2803 24.9453 46.2803 24.4642C46.2803 23.8901 46.2356 23.4616 46.1455 23.1776C46.056 22.8928 45.9425 22.6922 45.8031 22.5742C45.6645 22.4575 45.5048 22.3987 45.3243 22.3987ZM49.0895 22.2546L50.8859 24.9429V23.0793C50.8859 22.82 50.8545 22.6441 50.7922 22.5524C50.7062 22.4291 50.5622 22.3693 50.3596 22.3736V22.2546H51.5619V22.3736C51.4079 22.3963 51.3052 22.4271 51.2524 22.4643C51.1989 22.5013 51.1578 22.5626 51.1282 22.6464C51.0993 22.7303 51.0845 22.8754 51.0845 23.0793V26.6888H50.993L48.5312 23.0793V25.8357C48.5312 26.0844 48.5791 26.2521 48.675 26.3399C48.7704 26.428 48.8804 26.4715 49.0031 26.4715H49.0895V26.5896H47.7981V26.4715C47.9989 26.4695 48.1379 26.4204 48.217 26.3244C48.2959 26.2285 48.3352 26.0656 48.3352 25.8357V22.7762L48.2574 22.6604C48.1803 22.5462 48.1125 22.4705 48.0528 22.4334C47.9941 22.3978 47.909 22.378 47.7981 22.3736V22.2546H49.0895ZM55.7606 22.1567V23.6838H55.6605C55.5405 23.2659 55.3609 22.9487 55.1207 22.7313C54.8817 22.5144 54.6192 22.4055 54.3342 22.4055C54.0622 22.4055 53.836 22.497 53.6555 22.6793C53.475 22.8614 53.3464 23.1145 53.2713 23.4409C53.1962 23.7667 53.1586 24.1017 53.1586 24.4445C53.1586 24.86 53.1999 25.2244 53.2821 25.5377C53.3636 25.8511 53.4967 26.081 53.6809 26.2285C53.8641 26.3755 54.0821 26.4488 54.3342 26.4488C54.4224 26.4488 54.5121 26.4377 54.604 26.415C54.6963 26.3929 54.7909 26.3606 54.8881 26.3177V25.4168C54.8881 25.2466 54.8777 25.1352 54.8578 25.0861C54.8384 25.0359 54.7971 24.9901 54.7356 24.9497C54.6745 24.9092 54.5993 24.8884 54.5112 24.8884H54.4179V24.7708H56.1867V24.8884C56.0529 24.8995 55.9592 24.9212 55.9062 24.954C55.8536 24.9878 55.8125 25.0422 55.7844 25.1188C55.7676 25.1588 55.7606 25.2582 55.7606 25.4168V26.3177C55.5275 26.4411 55.2858 26.5351 55.0337 26.5973C54.7827 26.6604 54.5216 26.6922 54.2509 26.6922C53.9054 26.6922 53.6184 26.6353 53.3904 26.524C53.1624 26.4117 52.9604 26.2656 52.7863 26.0834C52.6125 25.9012 52.4759 25.6958 52.3767 25.4679C52.2523 25.1733 52.1889 24.8436 52.1889 24.4792C52.1889 23.828 52.3814 23.277 52.7662 22.8277C53.1513 22.378 53.6352 22.1533 54.2189 22.1533C54.3994 22.1533 54.5627 22.1697 54.7076 22.2035C54.7862 22.2208 54.9135 22.27 55.0905 22.3495C55.2663 22.4291 55.3708 22.4695 55.4031 22.4695C55.4532 22.4695 55.4994 22.4478 55.5423 22.404C55.5854 22.3606 55.6247 22.2777 55.6605 22.1567H55.7606ZM57.3003 22.3736V22.2546H59.2356V22.3736H59.1174C59.0103 22.3736 58.9243 22.3953 58.8601 22.4402C58.8152 22.4705 58.7794 22.5211 58.7529 22.5939C58.7324 22.6455 58.7224 22.7795 58.7224 22.9964V25.1188C58.7224 25.5344 58.6875 25.8366 58.6179 26.0255C58.5483 26.214 58.4248 26.3712 58.2461 26.4989C58.0682 26.6257 57.8537 26.6888 57.6034 26.6888C57.2976 26.6888 57.0502 26.593 56.861 26.4006C56.6713 26.2087 56.5771 25.9971 56.5771 25.7648C56.5771 25.6153 56.6156 25.4954 56.6927 25.4023C56.7696 25.3097 56.8641 25.263 56.975 25.263C57.084 25.263 57.1754 25.3045 57.2497 25.3873C57.3239 25.4712 57.3615 25.5724 57.3615 25.6949C57.3615 25.7537 57.355 25.8062 57.3425 25.8511C57.336 25.8727 57.3075 25.9263 57.2578 26.0121C57.2083 26.0983 57.1845 26.1596 57.1845 26.1967C57.1845 26.2511 57.2075 26.2994 57.2541 26.3399C57.3221 26.3996 57.4112 26.43 57.5203 26.43C57.5972 26.43 57.6604 26.4064 57.7108 26.3592C57.76 26.3124 57.7958 26.2391 57.817 26.1398C57.8373 26.042 57.8473 25.7658 57.8473 25.3141V22.9964C57.8473 22.7751 57.8373 22.6364 57.817 22.5809C57.7958 22.5254 57.7556 22.4773 57.6962 22.4358C57.6356 22.3944 57.555 22.3736 57.4531 22.3736H57.3003ZM61.5563 26.4715V26.5896H59.6528V26.4715H59.7736C59.879 26.4715 59.9641 26.4488 60.0284 26.4039C60.0754 26.3746 60.1112 26.3235 60.1355 26.2502C60.1561 26.2001 60.166 26.0656 60.166 25.8477V22.9964C60.166 22.7751 60.1561 22.6364 60.1355 22.5809C60.1165 22.5254 60.0772 22.4773 60.0166 22.4358C59.9568 22.3944 59.8755 22.3736 59.7736 22.3736H59.6528V22.2546H61.5563V22.3736H61.435C61.3297 22.3736 61.2446 22.3953 61.1803 22.4402C61.1337 22.4705 61.097 22.5211 61.0705 22.5939C61.0515 22.6455 61.0409 22.7795 61.0409 22.9964V25.8477C61.0409 26.069 61.0515 26.2078 61.0714 26.2632C61.0926 26.3191 61.1328 26.3669 61.1927 26.4083C61.2528 26.4507 61.3334 26.4715 61.435 26.4715H61.5563ZM63.1868 22.2546H65.0654V22.3736H64.9718C64.8306 22.3736 64.7338 22.391 64.6803 22.4262C64.6275 22.4609 64.59 22.51 64.5677 22.5712C64.546 22.6334 64.5339 22.7882 64.5339 23.035V25.1569C64.5339 25.5455 64.5586 25.8019 64.6079 25.9282C64.6578 26.0535 64.7382 26.1576 64.8509 26.2415C64.9636 26.3244 65.1056 26.3659 65.2782 26.3659C65.4748 26.3659 65.6427 26.3133 65.7813 26.2078C65.9207 26.1017 66.0243 25.9567 66.0926 25.771C66.1615 25.5855 66.1962 25.263 66.1962 24.8021V23.035C66.1962 22.8407 66.1789 22.7019 66.1451 22.619C66.1111 22.5361 66.068 22.4782 66.0166 22.4469C65.9361 22.3978 65.8224 22.3736 65.675 22.3736V22.2546H66.9343V22.3736H66.8592C66.7574 22.3736 66.6723 22.3978 66.6042 22.4469C66.5364 22.4956 66.4867 22.5689 66.4569 22.6672C66.4337 22.7356 66.422 22.8581 66.422 23.035V24.6811C66.422 25.1907 66.3935 25.5585 66.3374 25.7841C66.2808 26.0101 66.1434 26.2174 65.9251 26.4073C65.707 26.5973 65.4079 26.6922 65.0305 26.6922C64.7161 26.6922 64.4727 26.6416 64.3003 26.5413C64.0664 26.4049 63.9007 26.2304 63.8035 26.0178C63.7071 25.8038 63.6587 25.518 63.6587 25.1569V23.035C63.6587 22.7862 63.6477 22.631 63.6238 22.5698C63.6009 22.5091 63.5604 22.4609 63.503 22.4247C63.446 22.3876 63.3406 22.3712 63.1868 22.3736V22.2546ZM68.6726 22.2546L70.469 24.9429V23.0793C70.469 22.82 70.4379 22.6441 70.3754 22.5524C70.2894 22.4291 70.1456 22.3693 69.9428 22.3736V22.2546H71.1455V22.3736C70.9913 22.3963 70.889 22.4271 70.8356 22.4643C70.7826 22.5013 70.741 22.5626 70.7121 22.6464C70.6827 22.7303 70.6677 22.8754 70.6677 23.0793V26.6888H70.5762L68.1148 23.0793V25.8357C68.1148 26.0844 68.1623 26.2521 68.2586 26.3399C68.3536 26.428 68.4636 26.4715 68.5867 26.4715H68.6726V26.5896H67.3813V26.4715C67.5823 26.4695 67.7215 26.4204 67.8004 26.3244C67.879 26.2285 67.9184 26.0656 67.9184 25.8357V22.7762L67.8406 22.6604C67.7637 22.5462 67.6957 22.4705 67.636 22.4334C67.5777 22.3978 67.4922 22.378 67.3813 22.3736V22.2546H68.6726ZM73.5632 26.4715V26.5896H71.6594V26.4715H71.7803C71.8859 26.4715 71.9714 26.4488 72.035 26.4039C72.0821 26.3746 72.1179 26.3235 72.1424 26.2502C72.1627 26.2001 72.1727 26.0656 72.1727 25.8477V22.9964C72.1727 22.7751 72.1627 22.6364 72.1424 22.5809C72.1234 22.5254 72.0841 22.4773 72.0233 22.4358C71.9637 22.3944 71.8821 22.3736 71.7803 22.3736H71.6594V22.2546H73.5632V22.3736H73.4419C73.3366 22.3736 73.2515 22.3953 73.1872 22.4402C73.1406 22.4705 73.1039 22.5211 73.0772 22.5939C73.0582 22.6455 73.0478 22.7795 73.0478 22.9964V25.8477C73.0478 26.069 73.0582 26.2078 73.0781 26.2632C73.0995 26.3191 73.1397 26.3669 73.1994 26.4083C73.2594 26.4507 73.3405 26.4715 73.4419 26.4715H73.5632ZM77.8785 22.2546V22.3736C77.7468 22.3987 77.6284 22.4826 77.525 22.6257C77.4501 22.7327 77.3379 22.9824 77.1894 23.3772L75.9347 26.6888H75.8468L74.5976 23.2432C74.4474 22.8277 74.3464 22.5833 74.2963 22.511C74.245 22.4382 74.1487 22.3919 74.0075 22.3736V22.2546H75.7522V22.3736H75.6939C75.536 22.3736 75.4288 22.3963 75.3714 22.4435C75.33 22.4748 75.3097 22.5221 75.3097 22.5843C75.3097 22.6223 75.317 22.6682 75.3312 22.7207C75.3455 22.7718 75.3939 22.9125 75.4759 23.1406L76.2518 25.2977L76.9714 23.3772C77.0578 23.1449 77.1108 22.9892 77.1302 22.9106C77.1501 22.8321 77.1592 22.7641 77.1592 22.7086C77.1592 22.6455 77.1455 22.5887 77.1161 22.5394C77.0876 22.4902 77.0456 22.4532 76.9908 22.4281C76.9139 22.391 76.8112 22.3736 76.6844 22.3736V22.2546H77.8785ZM79.709 22.5047V24.269H79.7812C80.0125 24.269 80.1791 24.1828 80.2836 24.0101C80.3872 23.8376 80.4533 23.5826 80.4827 23.2466H80.5839V25.516H80.4827C80.4604 25.2683 80.4157 25.0663 80.3468 24.9082C80.2772 24.7501 80.1975 24.6441 80.1058 24.5896C80.0152 24.536 79.8822 24.5086 79.709 24.5086V25.7296C79.709 25.9687 79.7169 26.1138 79.7346 26.1673C79.7509 26.2208 79.7832 26.2642 79.83 26.2984C79.8758 26.3331 79.9509 26.3495 80.0554 26.3495H80.2726C80.6126 26.3495 80.885 26.2555 81.0898 26.068C81.2953 25.8815 81.442 25.5955 81.5319 25.2114H81.6307L81.4676 26.5896H78.3206V26.4715H78.4415C78.5469 26.4715 78.6319 26.4488 78.6962 26.4039C78.7428 26.3746 78.7786 26.3235 78.8034 26.2502C78.8239 26.2001 78.8338 26.0656 78.8338 25.8477V22.9964C78.8338 22.8003 78.8292 22.6802 78.8197 22.6354C78.8025 22.5611 78.7687 22.5033 78.7212 22.4633C78.6522 22.403 78.5594 22.3736 78.4415 22.3736H78.3206V22.2546H81.3677V23.5368H81.2659C81.214 23.2235 81.1415 22.9989 81.0469 22.8624C80.9537 22.726 80.8207 22.6257 80.6482 22.5626C80.5483 22.5231 80.3605 22.5047 80.085 22.5047H79.709ZM83.6138 24.6137V25.8289C83.6138 26.0636 83.6261 26.2107 83.6496 26.2709C83.6745 26.3322 83.7165 26.3813 83.7773 26.417C83.8387 26.4531 83.9522 26.4715 84.1188 26.4715V26.5896H82.255V26.4715C82.4234 26.4715 82.5374 26.4531 82.5975 26.415C82.6573 26.378 82.6993 26.3297 82.7243 26.27C82.7477 26.2097 82.7601 26.0636 82.7601 25.8289V23.0162C82.7601 22.7814 82.7477 22.6344 82.7243 22.5732C82.6993 22.512 82.6573 22.4643 82.5957 22.4281C82.5356 22.391 82.4216 22.3736 82.255 22.3736V22.2546H83.9469C84.3877 22.2546 84.7094 22.2917 84.914 22.364C85.117 22.4358 85.284 22.5698 85.4131 22.7655C85.5414 22.9593 85.6066 23.1887 85.6066 23.4505C85.6066 23.7701 85.5094 24.0343 85.3161 24.2434C85.1921 24.3755 85.0198 24.4748 84.798 24.5404L85.6735 26.0077C85.788 26.1977 85.8695 26.3158 85.917 26.3625C85.9912 26.4291 86.0759 26.4652 86.1726 26.4715V26.5896H85.0266L83.8533 24.6137H83.6138ZM83.6138 22.4884V24.3866H83.7673C84.0156 24.3866 84.2017 24.3606 84.3252 24.3056C84.4491 24.2512 84.5461 24.1533 84.6166 24.0111C84.6871 23.8694 84.7229 23.6852 84.7229 23.4573C84.7229 23.1265 84.6577 22.8831 84.528 22.725C84.3985 22.5669 84.1895 22.4884 83.9008 22.4884H83.6138ZM88.9818 22.1567L89.0121 23.6009H88.9012C88.8501 23.2389 88.7224 22.9477 88.5192 22.726C88.3157 22.5057 88.0967 22.3953 87.8599 22.3953C87.6776 22.3953 87.5329 22.4532 87.4266 22.5698C87.3193 22.6855 87.2662 22.82 87.2662 22.9714C87.2662 23.0663 87.2852 23.1526 87.3228 23.2268C87.3745 23.3271 87.4578 23.4264 87.5722 23.5238C87.6569 23.5946 87.8511 23.719 88.1551 23.8979C88.5812 24.1476 88.8682 24.3833 89.0165 24.605C89.1641 24.8263 89.2374 25.0793 89.2374 25.3652C89.2374 25.7276 89.1183 26.0395 88.8822 26.3004C88.6447 26.5611 88.3433 26.6922 87.9785 26.6922C87.8637 26.6922 87.7545 26.6777 87.6531 26.6507C87.5515 26.6223 87.4229 26.5698 87.2691 26.4936C87.1825 26.4507 87.1125 26.43 87.0572 26.43C87.0106 26.43 86.9609 26.4507 86.9099 26.4936C86.8573 26.536 86.8153 26.6016 86.7831 26.6888H86.6843V25.0523H86.7831C86.8622 25.5127 87.0133 25.8627 87.2386 26.1051C87.4631 26.3471 87.7052 26.4686 87.9644 26.4686C88.1655 26.4686 88.3247 26.403 88.4438 26.2729C88.5631 26.1432 88.6226 25.9913 88.6226 25.8193C88.6226 25.7165 88.5998 25.6173 88.5536 25.5213C88.5079 25.4264 88.4392 25.3348 88.346 25.2485C88.2523 25.1622 88.0886 25.0499 87.8519 24.9115C87.5212 24.7173 87.2826 24.5524 87.1379 24.416C86.9921 24.2796 86.8812 24.1268 86.8034 23.959C86.7256 23.7908 86.6863 23.6053 86.6863 23.4023C86.6863 23.0576 86.7934 22.7631 87.0062 22.5197C87.2194 22.2777 87.4881 22.1567 87.8115 22.1567C87.9297 22.1567 88.0442 22.1726 88.1551 22.2069C88.2397 22.2329 88.3424 22.2796 88.4622 22.3495C88.583 22.4185 88.6685 22.4532 88.716 22.4532C88.7626 22.4532 88.7993 22.4358 88.826 22.4021C88.8537 22.3683 88.8782 22.2864 88.9012 22.1567H88.9818ZM91.7459 26.4715V26.5896H89.8423V26.4715H89.9636C90.069 26.4715 90.1541 26.4488 90.2184 26.4039C90.265 26.3746 90.3008 26.3235 90.3255 26.2502C90.3456 26.2001 90.3556 26.0656 90.3556 25.8477V22.9964C90.3556 22.7751 90.3456 22.6364 90.3255 22.5809C90.3061 22.5254 90.2668 22.4773 90.2062 22.4358C90.1468 22.3944 90.065 22.3736 89.9636 22.3736H89.8423V22.2546H91.7459V22.3736H91.6253C91.5197 22.3736 91.4342 22.3953 91.3703 22.4402C91.3233 22.4705 91.2866 22.5211 91.2605 22.5939C91.2409 22.6455 91.2311 22.7795 91.2311 22.9964V25.8477C91.2311 26.069 91.2409 26.2078 91.2614 26.2632C91.2822 26.3191 91.3224 26.3669 91.3823 26.4083C91.4428 26.4507 91.5234 26.4715 91.6253 26.4715H91.7459ZM95.616 22.2546V23.4288H95.5201C95.4622 23.1569 95.3988 22.9626 95.3292 22.845C95.2597 22.726 95.1635 22.632 95.0414 22.5626C94.974 22.5231 94.8545 22.5047 94.6852 22.5047H94.4139V25.8477C94.4139 26.069 94.4239 26.2078 94.4442 26.2632C94.465 26.3191 94.5056 26.3669 94.565 26.4083C94.6256 26.4507 94.7071 26.4715 94.8107 26.4715H94.9316V26.5896H93.0256V26.4715H93.1464C93.2518 26.4715 93.3369 26.4488 93.4012 26.4039C93.4478 26.3746 93.4844 26.3235 93.5112 26.2502C93.5315 26.2001 93.5414 26.0656 93.5414 25.8477V22.5047H93.2776C93.0329 22.5047 92.8541 22.5655 92.7432 22.6898C92.5872 22.8624 92.4894 23.1092 92.4483 23.4288H92.3464V22.2546H95.616ZM99.9998 22.2546V22.3736C99.8798 22.3919 99.787 22.4334 99.723 22.498C99.6333 22.5876 99.4921 22.8321 99.2988 23.2302L98.5098 24.7993V25.8477C98.5098 26.0713 98.5189 26.2107 98.5388 26.2656C98.5582 26.3191 98.5975 26.3669 98.6554 26.4083C98.7137 26.4507 98.7908 26.4715 98.8881 26.4715H99.0915V26.5896H97.0488V26.4715H97.2392C97.3464 26.4715 97.4319 26.4488 97.494 26.4039C97.541 26.3746 97.5777 26.3235 97.6042 26.2502C97.6243 26.2001 97.6343 26.0656 97.6343 25.8477V24.9781L96.7777 23.1208C96.6071 22.7544 96.488 22.5394 96.4176 22.4739C96.3478 22.4083 96.255 22.3755 96.1388 22.3736V22.2546H97.8835V22.3736H97.8057C97.7003 22.3736 97.6261 22.391 97.5839 22.4281C97.5419 22.4643 97.5216 22.5023 97.5216 22.5428C97.5216 22.619 97.5929 22.8123 97.7361 23.1208L98.3938 24.5568L99.0496 23.2485C99.2115 22.929 99.293 22.7173 99.293 22.6127C99.293 22.5558 99.2703 22.5076 99.2234 22.4695C99.1631 22.416 99.0504 22.3847 98.8881 22.3736V22.2546H99.9998Z" fill="#006097"/>
</svg>
